<svg xmlns="http://www.w3.org/2000/svg" viewBox="0 0 907.12 960.59"><defs><style>.cls-1{fill:#ececec;}.cls-2{fill:#e1e1e1;}.cls-3{fill:#f5f5f5;}.cls-4{fill:#1a2e35;}.cls-5{fill:#375a64;}.cls-6{fill:#ffd5bd;}.cls-7{fill:#ff997c;}.cls-8{fill:#ddd;}.cls-9{fill:#0072ce;}.cls-10{opacity:0.3;}.cls-11{fill:#fafafa;}.cls-12{fill:#cf695d;}.cls-13{fill:#ffbf9d;}.cls-14{fill:#a55147;}.cls-15{fill:#f9807d;}.cls-16{fill:#e5997a;}.cls-17{fill:#f7eadc;}.cls-18{fill:#6b6b6b;}.cls-19{fill:#512809;}.cls-20{fill:#ff735d;}.cls-21{fill:#ff9a6c;}.cls-22{fill:#f4a198;}</style></defs><title>資產 1</title><g id="圖層_2" data-name="圖層 2"><g id="圖層_1-2" data-name="圖層 1"><path class="cls-1" d="M745.88,950.17c-36.5-26.88-43.72-75.26-41.17-118.53.43-7.22-.18-14.86,3.42-21.12s11.73-10.39,18.12-7.18c5.31,2.66,7.49,9,10.37,14.2a42.3,42.3,0,0,0,16.54,16.62c4.55,2.5,10.2,4.1,14.81,1.71,6.32-3.28,7.27-11.88,7.41-19.07l.75-40.2c.13-7.19.3-14.53,2.7-21.3s7.51-13,14.39-14.73,15.25,2.41,16.52,9.49c.53,2.94-.15,6,0,9s1.43,6.33,4.25,7.23,5.77-1,8-3.1c7.61-7.07,12.87-16.3,17.81-25.48s9.75-18.59,16.68-26.34,16.4-13.79,26.71-14.11,21.12,6.3,23.47,16.47-3.82,20.34-10.46,28.38a160.25,160.25,0,0,1-34.2,31c-2.31,1.56-4.81,3.23-5.74,5.87-1.68,4.76,2.74,9.63,7.43,11.33,5.32,1.91,11.14,1.5,16.73,2.3S892,796,894,801.35c2.76,7.42-3.58,15-9.75,19.86a137.46,137.46,0,0,1-41.27,22.47c-5.34,1.8-10.94,3.36-15.3,7s-7.09,10-4.64,15.13,9,6.92,14.58,6,10.6-3.77,15.93-5.63c10-3.48,22.71-2.48,28.83,6.22,4,5.71,4.19,13.54,1.92,20.17s-6.68,12.3-11.34,17.5c-16.3,18.18-36.95,32.63-60.06,40s-44.41,9-67,.09"/><path class="cls-2" d="M757.74,923.3c6.92-21.69,16.48-44.84,27.3-68.71q4.1-8.94,8.08-17.65c2.67-5.78,5.31-11.52,8.25-17A319.57,319.57,0,0,1,820,789.61c6.4-9.37,12.81-18,18.87-26.08s11.87-15.43,17.45-21.94a255.83,255.83,0,0,1,28.57-28.73c3.63-3.12,6.52-5.44,8.5-7l2.27-1.75a4.42,4.42,0,0,1,.8-.56,5.16,5.16,0,0,1-.72.67l-2.18,1.85c-1.92,1.61-4.76,4-8.33,7.17a270,270,0,0,0-28.2,29c-5.52,6.53-11.26,13.94-17.29,22S827.37,781,821,790.31a326.11,326.11,0,0,0-18.5,30.28c-2.91,5.43-5.53,11.12-8.19,16.92l-8.08,17.64c-10.81,23.85-20.38,46.93-27.35,68.54"/><path class="cls-2" d="M801.75,819.93a14.55,14.55,0,0,1-.63-3.09c-.33-2-.71-4.89-1.12-8.49-.84-7.18-1.66-17.14-2.52-28.12s-1.82-20.91-2.76-28.06c-.46-3.58-.87-6.47-1.17-8.46a14.23,14.23,0,0,1-.33-3.14,14.73,14.73,0,0,1,.83,3c.46,2,1,4.85,1.59,8.42,1.19,7.14,2.3,17.09,3.16,28.09.82,10.84,1.56,20.64,2.13,28.14.27,3.38.51,6.23.7,8.52A14.76,14.76,0,0,1,801.75,819.93Z"/><path class="cls-2" d="M894.61,805a18.33,18.33,0,0,1-3.7.35c-2.38.16-5.82.36-10.06.74-8.49.7-20.18,2.08-33,4.17s-24.37,4.52-32.66,6.5c-4.15,1-7.49,1.83-9.81,2.41a19.63,19.63,0,0,1-3.62.8,19,19,0,0,1,3.48-1.3c2.28-.74,5.59-1.75,9.73-2.83,8.25-2.22,19.8-4.78,32.67-6.9a326.28,326.28,0,0,1,33.15-3.79c4.27-.27,7.73-.33,10.11-.32A21.2,21.2,0,0,1,894.61,805Z"/><path class="cls-2" d="M758.92,921.63a4.69,4.69,0,0,1-.61-1.14c-.4-.92-.9-2-1.49-3.38-1.29-3-3-7.26-5.14-12.61-4.19-10.7-9.52-25.66-15.18-42.25s-10.84-31.59-14.81-42.36c-1.94-5.24-3.54-9.54-4.73-12.74l-1.27-3.48a4.75,4.75,0,0,1-.36-1.25,5.25,5.25,0,0,1,.61,1.15c.4.91.9,2,1.49,3.38,1.29,2.94,3,7.25,5.14,12.6,4.19,10.7,9.52,25.66,15.18,42.26s10.84,31.58,14.81,42.36l4.73,12.74,1.27,3.48A4.86,4.86,0,0,1,758.92,921.63Z"/><path class="cls-2" d="M882.73,885.12a5.43,5.43,0,0,1-1.23.47l-3.6,1.1-13.26,3.94C853.45,894,838,898.72,821,904s-32.5,9.93-43.76,13c-5.64,1.55-10.21,2.76-13.38,3.53l-3.66.86a4.68,4.68,0,0,1-1.3.21,5.43,5.43,0,0,1,1.23-.47l3.6-1.11L777,916.12c11.2-3.32,26.61-8.09,43.63-13.39s32.49-9.92,43.76-13c5.63-1.55,10.2-2.76,13.38-3.53l3.66-.86A4.24,4.24,0,0,1,882.73,885.12Z"/><path class="cls-1" d="M6.81,669.78s-16.92,6.85,2.59,42.77,32.85,53.6,32.85,53.6,3.51,8.37-3.57,9.86-22.8-.59-25.75,8.2c-3,9.11,3.73,17.45,17.22,24.58s42.46,23.82,45.08,25.34,5.2,5.36.54,7.15S36,847.67,39.15,864.21s44,30.22,48.46,31.8,5.53,3.41,5.23,5.83-12.25,2.85-22.19,4.57-21.16,5.44-18.53,14.83,27.11,28.63,85.45,32.83l27.16.17,14.18-23.31c27.29-51.73,23.91-82.68,17.33-89.88s-15.68.35-22.39,7.88-13.4,17.45-15.61,16.42-3.18-2.93-2.18-7.53,11-46.5-1.36-57.94-34.84,16-38.82,19-5.88-1.27-5.79-4.24,1.25-36.45,2.34-51.67-2.42-25.38-11.76-27.61c-9-2.15-15.56,12.31-20.57,17.52s-10.26-2.18-10.26-2.18-8-20.67-28.12-56.23S6.47,669.94,6.47,669.94"/><path class="cls-2" d="M166.31,960.59c-14.71-26.17-40.07-73.13-62-113.33s-41.9-76.55-56.47-102.8L30.51,713.4c-2-3.65-3.6-6.49-4.7-8.45-.51-1-.91-1.68-1.2-2.21s-.38-.77-.38-.77.17.24.46.73.72,1.24,1.27,2.16l4.83,8.38C35,720.51,41,731.08,48.32,744.17,63,770.34,83,806.67,105,846.85s47.25,87.2,61.82,113.45"/><path class="cls-2" d="M34.82,788a8.68,8.68,0,0,1,1.9.48c1.21.35,3,.92,5.09,1.63,4.28,1.45,10.13,3.59,16.55,6.08l16.41,6.42,5,1.91a9.43,9.43,0,0,1,1.8.77,8.43,8.43,0,0,1-1.91-.46c-1.21-.36-3-.92-5.08-1.66-4.26-1.49-10.09-3.71-16.5-6.2L41.61,790.7l-5-1.89A9.29,9.29,0,0,1,34.82,788Z"/><path class="cls-2" d="M83.36,803.53c-.22-.07,3.67-12.34,8.69-27.39s9.27-27.2,9.49-27.13-3.67,12.34-8.69,27.4S83.58,803.6,83.36,803.53Z"/><path class="cls-2" d="M114.32,866.78a10.14,10.14,0,0,1,1.06-1.71l3.1-4.48c2.62-3.79,6.2-9,10-15s7-11.41,9.27-15.4l2.72-4.72a10.1,10.1,0,0,1,1.08-1.69,8.33,8.33,0,0,1-.79,1.84c-.56,1.16-1.41,2.83-2.49,4.86-2.17,4.07-5.31,9.61-9.08,15.56s-7.43,11.15-10.17,14.86c-1.38,1.85-2.51,3.33-3.32,4.33A9.49,9.49,0,0,1,114.32,866.78Z"/><path class="cls-2" d="M67.33,862.41a7.8,7.8,0,0,1,1.85,0l5,.27c4.25.27,10.11.69,16.58,1.21s12.33,1,16.56,1.44l5,.54a7.91,7.91,0,0,1,1.83.31,7.8,7.8,0,0,1-1.85,0l-5-.27c-4.25-.26-10.11-.69-16.59-1.2s-12.32-1-16.55-1.45l-5-.54A7.25,7.25,0,0,1,67.33,862.41Z"/><path class="cls-2" d="M87.57,921.72a12,12,0,0,1,2.37,0l6.45.32c5.44.31,13,.79,21.26,1.37s15.81,1.17,21.25,1.62l6.43.59a13.1,13.1,0,0,1,2.35.33,12.16,12.16,0,0,1-2.38,0l-6.45-.32c-5.44-.31-13-.79-21.26-1.37s-15.81-1.16-21.24-1.62l-6.43-.59A12.68,12.68,0,0,1,87.57,921.72Z"/><path class="cls-2" d="M146.27,925.45a13.47,13.47,0,0,1,1.29-2.2l3.72-5.82c3.14-4.92,7.46-11.74,12-19.39s8.51-14.69,11.33-19.8c1.36-2.45,2.48-4.49,3.35-6a14.79,14.79,0,0,1,1.31-2.18,15.22,15.22,0,0,1-1,2.33c-.71,1.48-1.77,3.59-3.11,6.18-2.69,5.19-6.56,12.29-11.13,20s-9,14.44-12.23,19.29c-1.64,2.41-3,4.36-3.95,5.68A15.31,15.31,0,0,1,146.27,925.45Z"/><path class="cls-3" d="M605,178.5c-4.14-15.36-1.77-18.32-10-24.82s-26.59-25.41-35.45-24.82-20.09,12.41-20.09,12.41-15.37-33.09-34.28-37.82-28.95,0-31.91,5.91c0,0-6.5-17.14-25.4-21.86S413,85.72,407.67,98.13c0,0-14.18-8.86-22.45-9.45A49.68,49.68,0,0,0,370.61,90a27.67,27.67,0,0,0-20.78,26.57l-.45,27s-23.84-1.13-28.57,7.15a50.24,50.24,0,0,0-6.5,24.81c0,7.69,0,56.14-4.14,70.91s4.73,37.23,4.73,37.23L384.63,370a149.5,149.5,0,0,1,9.94,18.7,90.26,90.26,0,0,1,7.83,42.59c-2.92,49-10.3,183.35-10.3,183.35H575.49L570.18,461s0-49,5.31-58.5,17.37-28.72,20.33-51.17a624.43,624.43,0,0,0,4.49-65.24C600.31,273.64,609.18,193.86,605,178.5Z"/><path class="cls-2" d="M350.8,143.26a2.14,2.14,0,0,1,.47-.12l1.4-.27c1.23-.21,3.05-.57,5.37-1.05,4.66-1,11.36-2.5,19.57-4.71s17.93-5,28.54-8.69l4-1.44a8.3,8.3,0,0,1,4.56-.44,8.5,8.5,0,0,1,6.65,6.19,19.19,19.19,0,0,1,.24,4.76c-.09,1.56-.14,3.15-.35,4.73A61.8,61.8,0,0,1,400,182.42a61.39,61.39,0,0,1-27,12.66,60.28,60.28,0,0,1-20.14.61,46.55,46.55,0,0,1-5.38-1.09l-1.38-.37a1.7,1.7,0,0,1-.46-.16,1.65,1.65,0,0,1,.49.05l1.4.27c1.21.29,3,.57,5.38.89a62.5,62.5,0,0,0,19.94-.94,61.34,61.34,0,0,0,26.49-12.68,60,60,0,0,0,19.05-30.21,59.21,59.21,0,0,0,1.78-9.35c.21-1.55.26-3.11.35-4.65a18.63,18.63,0,0,0-.2-4.46,7.47,7.47,0,0,0-5.82-5.44,7.34,7.34,0,0,0-4,.37l-4,1.43c-10.66,3.64-20.43,6.37-28.67,8.5s-15,3.54-19.68,4.38c-2.34.41-4.17.71-5.42.85l-1.41.17A1.41,1.41,0,0,1,350.8,143.26Z"/><path class="cls-2" d="M365.19,194.89a7.94,7.94,0,0,1,1.52,1.72,36.25,36.25,0,0,1,3.32,5.31,41.32,41.32,0,0,1-1,39.8,36,36,0,0,1-3.58,5.14,8.45,8.45,0,0,1-1.6,1.65c-.16-.13,2.05-2.56,4.51-7.16a43,43,0,0,0,1-39.1C367.11,197.54,365,195,365.19,194.89Z"/><path class="cls-2" d="M405.69,172.24a4,4,0,0,1,.18,1c.09.82.19,1.81.32,3,.25,2.79.58,6.56,1,11.14.77,9.41,1.82,22.41,2.81,36.8.1,3.61,0,7.29-1.48,10.56a9.72,9.72,0,0,1-3.29,4,9.56,9.56,0,0,1-4.71,1.65,20,20,0,0,1-8.86-1.55,32.45,32.45,0,0,1-14.88-11.53,23.11,23.11,0,0,1-1.61-2.6,4.09,4.09,0,0,1-.44-1c.09-.05.79,1.24,2.38,3.32a33.73,33.73,0,0,0,8.07,7.52A31.68,31.68,0,0,0,392,238.1a19.24,19.24,0,0,0,8.45,1.41,8.46,8.46,0,0,0,7.14-5.15c1.32-3,1.48-6.54,1.37-10.09-1-14.28-1.85-27.21-2.5-36.77-.26-4.59-.48-8.36-.64-11.16,0-1.22-.09-2.22-.12-3A3.62,3.62,0,0,1,405.69,172.24Z"/><path class="cls-2" d="M471.27,116.08a2.12,2.12,0,0,1,0,.58c-.05.44-.11,1-.19,1.69q-.32,2.36-.86,6.5c-.75,5.64-1.88,13.8-3,23.91a295.87,295.87,0,0,0-1.82,35.62,169.54,169.54,0,0,0,6.06,43.11A45.08,45.08,0,0,1,473,239a21.86,21.86,0,0,1-3,10.91,15,15,0,0,1-8.68,6.59,20.23,20.23,0,0,1-10.47.17c-6.73-1.66-12-5.74-16.55-9.63a75.73,75.73,0,0,1-11.18-12.41A73.17,73.17,0,0,1,412.48,213a59.2,59.2,0,0,1-1.56-6.38l-.28-1.68a2.1,2.1,0,0,1-.06-.58,3.5,3.5,0,0,1,.16.56c.11.43.24,1,.4,1.66.33,1.45.86,3.6,1.74,6.3a74.58,74.58,0,0,0,22,33.49c4.48,3.83,9.73,7.78,16.19,9.34a19.32,19.32,0,0,0,9.95-.19,14,14,0,0,0,8.08-6.16A20.91,20.91,0,0,0,471.92,239a44.91,44.91,0,0,0-1.49-11.23,167.82,167.82,0,0,1-6-43.34,284.72,284.72,0,0,1,2.06-35.72c1.18-10.12,2.42-18.27,3.3-23.89q.68-4.12,1.05-6.47c.13-.69.23-1.24.3-1.68A3.07,3.07,0,0,1,471.27,116.08Z"/><path class="cls-2" d="M526.35,133.71a1.59,1.59,0,0,1,0,.5c0,.39-.07.87-.12,1.46-.13,1.37-.32,3.23-.55,5.59-.53,5-1.29,12-2.22,20.56s-2.13,19-3.42,30.47c-1.13,11.48-3.51,24.06-2.17,37.31.25,3.32.54,6.6.68,9.86a38.91,38.91,0,0,1-.53,9.66,21.12,21.12,0,0,1-3.53,8.71,11.32,11.32,0,0,1-7.7,4.68,14.27,14.27,0,0,1-8.39-1.86,33.36,33.36,0,0,1-6.52-4.71,82.29,82.29,0,0,1-9.8-10.45,81,81,0,0,1-10.64-17.75c-1-2.25-1.63-4-2-5.25l-.45-1.4a2,2,0,0,1-.12-.48s.09.14.22.45l.55,1.35c.47,1.19,1.2,3,2.22,5.15A84.69,84.69,0,0,0,482.67,245a82.21,82.21,0,0,0,9.8,10.26,32.77,32.77,0,0,0,6.37,4.55,13.39,13.39,0,0,0,7.83,1.71,10.34,10.34,0,0,0,7-4.31,20.29,20.29,0,0,0,3.32-8.29,38.25,38.25,0,0,0,.5-9.42c-.15-3.23-.44-6.5-.69-9.83s-.43-6.63-.38-9.9.27-6.47.57-9.6c.63-6.27,1.41-12.26,2.07-18,1.37-11.44,2.61-21.75,3.65-30.45s1.94-15.58,2.56-20.51q.47-3.54.75-5.58c.08-.58.16-1,.22-1.44A1.5,1.5,0,0,1,526.35,133.71Z"/><path class="cls-2" d="M574.08,169.53a1.94,1.94,0,0,1-.05.53c-.07.41-.16.91-.26,1.54l-1.11,5.89-4.25,21.61c-1.85,9.15-4,20-6.46,32a40.86,40.86,0,0,1-2.91,9.09c-1.4,2.93-3.6,5.84-6.87,7.25a12.64,12.64,0,0,1-10.32-.34,25.46,25.46,0,0,1-8.53-6.38,48,48,0,0,1-10.34-18,64.66,64.66,0,0,1-3-19.15c-.12-12.43,3-23.33,6-32.1s6.34-15.62,8.53-20.33l2.59-5.4c.29-.57.52-1,.71-1.39s.25-.47.27-.46a1.8,1.8,0,0,1-.17.5c-.17.38-.37.85-.61,1.44q-.89,2-2.41,5.48c-2.07,4.77-5.17,11.64-8.19,20.41s-5.93,19.58-5.75,31.84a64,64,0,0,0,3,18.83A47.17,47.17,0,0,0,534.11,240a24.38,24.38,0,0,0,8.17,6.13,11.58,11.58,0,0,0,9.47.36,13.37,13.37,0,0,0,6.37-6.74,39.73,39.73,0,0,0,2.86-8.85c2.51-12,4.78-22.85,6.68-32s3.49-16.37,4.59-21.55c.56-2.47,1-4.43,1.31-5.85.14-.61.26-1.11.36-1.51A2.09,2.09,0,0,1,574.08,169.53Z"/><path class="cls-2" d="M592.92,182.47c.11.08-.68,1.42-2.29,3.36a41.62,41.62,0,0,1-15.74,11.54c-2.34.95-3.86,1.3-3.9,1.18-.13-.32,5.74-2.38,11.82-6.88S592.66,182.25,592.92,182.47Z"/><path class="cls-2" d="M499.25,361a2.2,2.2,0,0,1,0-.51V359c0-1.31.08-3.23-.06-5.7a100.16,100.16,0,0,0-3-20.66c-4.23-17.15-15-39.63-31.72-60.81a77.58,77.58,0,0,0-14.1-13.55,63.28,63.28,0,0,0-16.16-8.35,107.36,107.36,0,0,0-16-4.15c-5.11-1-9.91-1.65-14.3-2.27-8.78-1.22-15.88-2.34-20.73-3.41-2.43-.51-4.3-1-5.55-1.36l-1.43-.41a1.64,1.64,0,0,1-.48-.17,1.92,1.92,0,0,1,.51.07l1.45.3c1.27.29,3.15.71,5.58,1.16,4.86.94,12,1.95,20.75,3.07,4.4.57,9.22,1.23,14.36,2.15A105.26,105.26,0,0,1,434.45,249a63.31,63.31,0,0,1,16.44,8.43,77.5,77.5,0,0,1,14.32,13.72c16.81,21.33,27.55,44,31.62,61.3a94,94,0,0,1,2.74,20.84c.07,2.49-.06,4.41-.14,5.72,0,.6-.08,1.08-.1,1.48A1.56,1.56,0,0,1,499.25,361Z"/><path class="cls-2" d="M515.37,345.44a13.15,13.15,0,0,1-.62-2.69c-.3-1.75-.84-4.25-1.6-7.31a106.47,106.47,0,0,0-3.24-10.59,113.64,113.64,0,0,0-5.44-12.41,115.26,115.26,0,0,0-7-11.61,107.55,107.55,0,0,0-6.79-8.75c-2.06-2.39-3.8-4.27-5.05-5.52a14.18,14.18,0,0,1-1.84-2.05,12.86,12.86,0,0,1,2.13,1.75,66.94,66.94,0,0,1,5.33,5.32,94.4,94.4,0,0,1,7,8.68,96.76,96.76,0,0,1,12.56,24.25,93.61,93.61,0,0,1,3.05,10.75,69.47,69.47,0,0,1,1.27,7.42A14.51,14.51,0,0,1,515.37,345.44Z"/><path class="cls-2" d="M488.08,390.18s-.18.26-.59.68-1,1.06-1.85,1.79a57.94,57.94,0,0,1-7.52,5.77A64.36,64.36,0,0,1,418,403.9a57.48,57.48,0,0,1-8.44-4.31c-1-.57-1.66-1.1-2.15-1.43s-.72-.53-.7-.56a25.38,25.38,0,0,1,3.06,1.63,71.33,71.33,0,0,0,8.51,4,66.12,66.12,0,0,0,59.41-5.42,70.45,70.45,0,0,0,7.66-5.45A25.64,25.64,0,0,1,488.08,390.18Z"/><path class="cls-2" d="M568,406.53a10.21,10.21,0,0,1-1.68,2.15,33.11,33.11,0,0,1-5.61,4.88c-5.11,3.69-13.4,7.13-23,8.17a101.44,101.44,0,0,1-24.44-.81c-3.1-.43-5.6-.85-7.32-1.16a12.52,12.52,0,0,1-2.65-.59,14.06,14.06,0,0,1,2.71.18l7.35.81c6.18.64,14.81,1.51,24.23.5s17.55-4.27,22.67-7.73S567.79,406.36,568,406.53Z"/><path class="cls-2" d="M816.28,182.83c.08.28-41.9,12.71-93.75,27.76s-94,27-94.06,26.73,41.89-12.71,93.76-27.76S816.2,182.54,816.28,182.83Z"/><path class="cls-2" d="M709.53,129.44c.12.27-18.19,8.29-40.88,17.9s-41.18,17.19-41.3,16.92,18.19-8.29,40.89-17.91S709.42,129.17,709.53,129.44Z"/><path class="cls-2" d="M723,15a9.83,9.83,0,0,1-1.26,1L718,18.85,704.23,29.06c-11.68,8.61-27.79,20.52-45.49,33.81s-33.63,25.45-45.15,34.26l-13.66,10.42-3.74,2.81a8.11,8.11,0,0,1-1.35.91,10.75,10.75,0,0,1,1.22-1.08l3.61-3,13.45-10.7c11.4-9,27.27-21.22,45-34.52S692,36.9,703.78,28.45l14-9.94,3.85-2.64A9.42,9.42,0,0,1,723,15Z"/><path class="cls-2" d="M741.16,115.59c.12.27-1.95,1.44-4.62,2.61s-4.93,1.9-5,1.63,2-1.44,4.62-2.61S741,115.32,741.16,115.59Z"/><path class="cls-2" d="M574.08,9.68A12.39,12.39,0,0,1,572.87,12c-1,1.65-2.19,3.73-3.63,6.2-3.08,5.22-7.4,12.39-11.8,20.51s-8,15.67-10.73,21.1l-3.21,6.43a11.38,11.38,0,0,1-1.3,2.29,12.45,12.45,0,0,1,.93-2.47c.65-1.57,1.64-3.81,2.89-6.58,2.52-5.52,6.07-13.12,10.48-21.28s8.84-15.28,12.09-20.4c1.63-2.56,3-4.61,3.92-6A12.52,12.52,0,0,1,574.08,9.68Z"/><path class="cls-2" d="M102.7,161.19c.08-.29,42.19,11.68,94,26.73s93.84,27.47,93.76,27.76S248.32,204,196.45,189,102.62,161.47,102.7,161.19Z"/><path class="cls-2" d="M206.74,122c.12-.27,18.61,7.3,41.3,16.91s41,17.63,40.88,17.91-18.6-7.3-41.3-16.92S206.63,122.26,206.74,122Z"/><path class="cls-2" d="M175.63,15a9.11,9.11,0,0,1,1.38.87l3.85,2.64,14,9.94c11.8,8.45,28,20.27,45.69,33.56s33.57,25.55,45,34.52L299,107.23l3.62,3a9,9,0,0,1,1.21,1.08,9.27,9.27,0,0,1-1.35-.91l-3.73-2.81c-3.32-2.52-8-6.07-13.66-10.42-11.52-8.81-27.45-21-45.16-34.26s-33.8-25.2-45.48-33.81L180.62,18.85,176.89,16A9,9,0,0,1,175.63,15Z"/><path class="cls-2" d="M175.12,108.14c.11-.27,2.38.46,5,1.63s4.74,2.34,4.62,2.61-2.38-.46-5-1.63S175,108.41,175.12,108.14Z"/><path class="cls-2" d="M342.88,11.39a10,10,0,0,1,1.48,1.76c.9,1.17,2.17,2.89,3.7,5a165.54,165.54,0,0,1,11,17.52c3.77,7.15,6.89,13.74,9.27,18.45l2.75,5.61a9.19,9.19,0,0,1,.89,2.12A9.56,9.56,0,0,1,370.68,60c-.75-1.28-1.8-3.14-3.06-5.46-2.55-4.63-5.79-11.18-9.53-18.29s-7.78-13.18-10.66-17.6L344,13.39A9.81,9.81,0,0,1,342.88,11.39Z"/><path class="cls-2" d="M456.13,0c.15,0,.26,2.64.31,6.91s.05,10.17,0,16.68-.19,12.41-.33,16.67-.3,6.91-.45,6.9-.25-2.64-.31-6.91-.05-10.16,0-16.67.19-12.41.33-16.68S456,0,456.13,0Z"/><path class="cls-4" d="M379.9,684.47l3.71,273.12h75.05l1.88-188.16,22,188.16h81.9s-13.69-226.27-13.69-263Z"/><path class="cls-5" d="M539.32,717.89c-.3,0-.71-2.26-.93-5.09s-.15-5.15.14-5.18.71,2.26.93,5.09S539.61,717.86,539.32,717.89Z"/><path class="cls-5" d="M540.91,738.42c-.3,0-.72-2.26-.94-5.09s-.16-5.15.14-5.18.71,2.26.93,5.09S541.2,738.4,540.91,738.42Z"/><path class="cls-5" d="M542.5,759c-.3,0-.72-2.26-.94-5.09s-.15-5.15.14-5.18.72,2.26.93,5.1S542.79,758.93,542.5,759Z"/><path class="cls-5" d="M544.05,779.47c-.29,0-.71-2.25-.92-5.09s-.15-5.15.15-5.17.71,2.26.92,5.09S544.35,779.45,544.05,779.47Z"/><path class="cls-5" d="M545.55,800c-.29,0-.7-2.26-.9-5.1s-.14-5.15.16-5.17.7,2.26.91,5.1S545.85,800,545.55,800Z"/><path class="cls-5" d="M547,820.56c-.3,0-.69-2.27-.88-5.1s-.11-5.16.18-5.18.69,2.26.89,5.1S547.26,820.54,547,820.56Z"/><path class="cls-5" d="M548.28,841.11c-.29,0-.68-2.27-.85-5.1s-.09-5.16.21-5.18.68,2.27.86,5.11S548.58,841.09,548.28,841.11Z"/><path class="cls-5" d="M549.47,861.67c-.3,0-.67-2.27-.83-5.11s0-5.15.25-5.17.67,2.27.82,5.11S549.76,861.66,549.47,861.67Z"/><path class="cls-5" d="M550.5,882.24c-.3,0-.65-2.27-.79-5.11s0-5.16.29-5.17.65,2.27.78,5.12S550.79,882.23,550.5,882.24Z"/><path class="cls-5" d="M551.34,902.82c-.29,0-.62-2.28-.73-5.12s0-5.16.33-5.17.63,2.29.74,5.13S551.64,902.81,551.34,902.82Z"/><path class="cls-5" d="M552,923.41c-.29,0-.6-2.29-.68-5.13s.1-5.15.39-5.16.6,2.29.68,5.13S552.28,923.4,552,923.41Z"/><path class="cls-5" d="M552.38,944c-.3,0-.58-2.29-.62-5.13s.16-5.16.45-5.16.58,2.29.62,5.14S552.67,944,552.38,944Z"/><path class="cls-5" d="M552.49,958.42c-.29,0-.54-.92-.54-2.06s.23-2.06.52-2.06.54.92.55,2.06S552.79,958.42,552.49,958.42Z"/><path class="cls-5" d="M384.4,715.84c-.29,0-.52-2.31-.5-5.15s.26-5.15.56-5.15.52,2.31.51,5.15S384.7,715.84,384.4,715.84Z"/><path class="cls-5" d="M384.29,736.44c-.29,0-.52-2.31-.51-5.16s.27-5.14.57-5.14.52,2.31.51,5.15S384.59,736.44,384.29,736.44Z"/><path class="cls-5" d="M384.18,757c-.29,0-.52-2.31-.51-5.15s.27-5.15.57-5.15.52,2.31.51,5.16S384.48,757,384.18,757Z"/><path class="cls-5" d="M384.07,777.63c-.29,0-.52-2.31-.51-5.15s.27-5.15.57-5.15.52,2.31.51,5.15S384.37,777.63,384.07,777.63Z"/><path class="cls-5" d="M384,798.23c-.29,0-.52-2.31-.51-5.16s.27-5.14.57-5.14.52,2.31.51,5.15S384.26,798.23,384,798.23Z"/><path class="cls-5" d="M383.85,818.82c-.29,0-.52-2.31-.51-5.15s.27-5.15.57-5.15.52,2.31.51,5.16S384.15,818.82,383.85,818.82Z"/><path class="cls-5" d="M383.74,839.42c-.29,0-.52-2.31-.51-5.15s.27-5.15.57-5.15.52,2.31.51,5.15S384,839.42,383.74,839.42Z"/><path class="cls-5" d="M383.63,860c-.3,0-.52-2.31-.51-5.16s.27-5.14.57-5.14.52,2.31.51,5.15S383.93,860,383.63,860Z"/><path class="cls-5" d="M383.52,880.61c-.3,0-.52-2.31-.51-5.15s.27-5.15.57-5.15.52,2.31.5,5.16S383.82,880.61,383.52,880.61Z"/><path class="cls-5" d="M383.41,901.21c-.3,0-.52-2.31-.51-5.15s.27-5.15.57-5.15.52,2.31.5,5.15S383.71,901.21,383.41,901.21Z"/><path class="cls-5" d="M383.3,921.81c-.3,0-.52-2.31-.51-5.16s.27-5.14.57-5.14.52,2.3.5,5.15S383.6,921.81,383.3,921.81Z"/><path class="cls-5" d="M383.19,942.4c-.3,0-.52-2.31-.51-5.15s.27-5.15.56-5.15.53,2.31.51,5.16S383.49,942.4,383.19,942.4Z"/><path class="cls-5" d="M383.12,956c-.3,0-.54-.74-.53-1.66s.25-1.65.54-1.65.54.74.53,1.66S383.41,956,383.12,956Z"/><path class="cls-5" d="M543,726c0,.12-1.85.47-4.91.51a44.69,44.69,0,0,1-22.84-6.16c-2.62-1.58-4.06-2.82-4-2.92.18-.31,6.36,4.15,15.28,6.5S543,725.65,543,726Z"/><path class="cls-5" d="M453.86,761.48c-.3,0-.54-8.62-.54-19.24s.24-19.24.54-19.24.53,8.61.53,19.24S454.15,761.48,453.86,761.48Z"/><path class="cls-4" d="M419.49,244.51c6.27-1.3,11-6.37,16.51-9.55a29.88,29.88,0,0,1,27.57-.84c8.58,4.24,14.88,9.65,16.14,19.14L470,265.79"/><path class="cls-6" d="M492,298.63l-8.89,104.62c-1.52,17.79-7.37,43.62-35.39,39.94h0c-24.07-5-28.28-28.68-26.85-45.28.68-7.87,1.23-14.44,1.24-15.26,0,0-26.42-4.77-26.1-31.29.15-12.82,2.62-39.19,5.13-63a49.4,49.4,0,0,1,50.35-44.19l2.56.06C481.6,246.48,495.05,271.16,492,298.63Z"/><path class="cls-7" d="M422.08,382.27s16.72,1.77,34.8-9c0,0-8.63,18.88-35,15.85Z"/><path class="cls-4" d="M404.91,300.85c.39.6,4.2.18,8.77,2s7.36,4.7,8,4.5c.3-.08,0-1-1.19-2.31a16.71,16.71,0,0,0-6.23-4.09,15.37,15.37,0,0,0-7.15-1.07C405.43,300.06,404.71,300.58,404.91,300.85Z"/><path class="cls-4" d="M445.62,307.28c.65.28,3.61-2.11,8.4-3.09s8.7-.08,9.12-.58c.21-.23-.52-.83-2.24-1.27a17,17,0,0,0-7.42,0,15.47,15.47,0,0,0-6.56,2.95C445.63,306.34,445.31,307.16,445.62,307.28Z"/><path class="cls-4" d="M451.43,309a2.92,2.92,0,0,0,2.75,3,2.8,2.8,0,0,0,3.08-2.56,2.93,2.93,0,0,0-2.75-3A2.79,2.79,0,0,0,451.43,309Z"/><path class="cls-4" d="M411.75,308.6a2.92,2.92,0,0,0,2.75,3,2.8,2.8,0,0,0,3.08-2.56,2.93,2.93,0,0,0-2.75-3A2.79,2.79,0,0,0,411.75,308.6Z"/><path class="cls-4" d="M431,333.08c0-.23-2.5-.73-6.59-1.36-1-.13-2-.36-2.18-1.07s.24-1.87.77-3.07l3.27-7.85c4.55-11.18,7.87-20.38,7.42-20.56s-4.51,8.74-9.05,19.92L421.52,327c-.42,1.18-1.13,2.5-.64,4.08a2.66,2.66,0,0,0,1.68,1.56,7.39,7.39,0,0,0,1.76.29C428.44,333.23,431,333.31,431,333.08Z"/><path class="cls-4" d="M447.16,288.11c.48,1,4.33.14,8.95.24s8.43.94,8.95,0c.23-.46-.5-1.35-2.08-2.19a15.53,15.53,0,0,0-6.78-1.58,15.72,15.72,0,0,0-6.85,1.41C447.73,286.78,447,287.65,447.16,288.11Z"/><path class="cls-4" d="M405.9,292.58c.38.85,3.91.3,8.09.57s7.58,1.15,8.1.36c.24-.37-.38-1.16-1.77-1.93a14.76,14.76,0,0,0-6.07-1.62,15.05,15.05,0,0,0-6.27.91C406.47,291.48,405.73,292.18,405.9,292.58Z"/><path class="cls-6" d="M489.36,318.21c.46-.18,18.35-4.94,17.33,13.17s-19,13.35-19,12.83S489.36,318.21,489.36,318.21Z"/><path class="cls-7" d="M493.61,337.66c.08-.05.3.24.82.51a3.15,3.15,0,0,0,2.36.19c1.95-.6,3.73-3.55,4-6.81a10.41,10.41,0,0,0-.63-4.56,3.67,3.67,0,0,0-2.24-2.56,1.6,1.6,0,0,0-1.91.76c-.27.49-.18.86-.28.89s-.37-.33-.18-1.07a2,2,0,0,1,.78-1.09,2.37,2.37,0,0,1,1.77-.37,4.45,4.45,0,0,1,3.14,3,10.77,10.77,0,0,1,.81,5.11c-.33,3.64-2.39,6.95-5.05,7.56a3.39,3.39,0,0,1-2.86-.64C493.62,338.1,493.55,337.69,493.61,337.66Z"/><path class="cls-4" d="M395.66,282.69a38.31,38.31,0,0,0,34.2-6.83c6.59-5.32,11.76-13.06,19.9-15.35,5.48-1.54,11.5-.22,16.41,2.66S475,270.34,478.38,275c-5.45,13.35-2.38,28.47.77,42.54.35,1.56.77,3.24,2,4.24,2.11,1.7,5.35.49,7.26-1.42,3.07-3.06,4.34-7.46,5.21-11.7a74.5,74.5,0,0,0,.54-29.41,50.84,50.84,0,0,0-13.33-26c-8.7-8.73-21.09-13.46-33.42-13.57s-24.54,4.23-34.56,11.42c-4.65,3.33-8.95,7.4-11.44,12.55"/><path class="cls-4" d="M508.19,288.23c-1.57,10.48-9,29.78-8.76,29.94-1.28-.9-5.46-.24-7.41,1.2-2.65,2-5.21,4.73-9.11,2.76a7.48,7.48,0,0,1-3.83-5.11,103.26,103.26,0,0,1-.21-43.89,33.2,33.2,0,0,0-9.47-8.35l.28.31c-7.1-3.27-15.17-6.59-22.48-3.82-5.67,2.15-9.4,7.45-13.88,11.54-8.5,7.74-20.37,11.3-31.84,10.68-1.11,7.37-1.16,16.55-2.27,23.92l-5.56-14.05c-3.71,7.94-13.67,7-13.67,7l-2.5-9.41c6.5-.36,12.89-7.83,12.89-7.83s-11.76,5.89-17.92.76l-1.86-11.06c11.06,2.05,21.54-8.64,26.71-15.05A87.17,87.17,0,0,1,408.85,246c8.78-7.45,15.89-12.4,22.94-14.47,9.12-2.68,23.94-2.68,32.86.61s16.41,11.52,16.77,21c5.66-3.91,13.54-3,19.59.23,0,0,17.69,9.25,6.95,35"/><path class="cls-5" d="M478.38,275c-.1.06-1-1.35-2.94-3.55a33.32,33.32,0,0,0-9.7-7.62,34.15,34.15,0,0,0-8.18-2.42c-3-.48-6.36-.78-9.49.54-6.42,2.51-10.7,9.57-17.41,14.37a41,41,0,0,1-21.41,8.29,51.17,51.17,0,0,1-5.2.18,4.91,4.91,0,0,0-2.16.29,21.77,21.77,0,0,0-2,1.18c-2.46,1.56-3.58,4.41-5,6.65a15.79,15.79,0,0,1-10.26,7.25,16.5,16.5,0,0,1-3.44.36,3.33,3.33,0,0,1-1.2-.11c0-.14,1.67-.06,4.51-.8a15.58,15.58,0,0,0,9.52-7.23c1.38-2.17,2.39-5.18,5.28-7.13a21.43,21.43,0,0,1,2.1-1.3,6.21,6.21,0,0,1,2.67-.43,48.76,48.76,0,0,0,5.07-.23,40.23,40.23,0,0,0,20.66-8.12,75.47,75.47,0,0,0,8.69-7.89c2.72-2.69,5.65-5.24,9.11-6.56s7.11-1,10.17-.48a33.88,33.88,0,0,1,8.41,2.67,31.59,31.59,0,0,1,9.7,8.18,24.12,24.12,0,0,1,2,2.82A3.41,3.41,0,0,1,478.38,275Z"/><path class="cls-4" d="M434.07,346c-.16-.48,3.48-1.19,6.29-4.27a20.74,20.74,0,0,0,3-4.46c.65-1.26,1.13-2.05,1.32-2s0,1-.39,2.36a13.34,13.34,0,0,1-2.83,5.05,10.92,10.92,0,0,1-4.95,3.08C435,346.2,434.1,346.15,434.07,346Z"/><path class="cls-5" d="M438.3,298.38c-.13.29-2.63-.64-5.84-.6s-5.7,1-5.82.67,2.34-1.74,5.82-1.74S438.45,298.14,438.3,298.38Z"/><path class="cls-5" d="M393.56,297.69a17.33,17.33,0,0,1,2.38-.06l6.9,0c5.94.05,14.42.16,24.4.38h.49v.49a57.19,57.19,0,0,1-.82,9.66,28.46,28.46,0,0,1-3.34,9.9,15.6,15.6,0,0,1-8.36,7.06,18,18,0,0,1-10.22.29,15.46,15.46,0,0,1-8-4.72,17.23,17.23,0,0,1-3.33-7.34,42,42,0,0,1-.7-11.52,20.79,20.79,0,0,1,.56-4.19c.06.09-.06,1.48-.14,4.21a45.83,45.83,0,0,0,1,11.33,16.84,16.84,0,0,0,3.26,6.93,14.65,14.65,0,0,0,7.53,4.34,17,17,0,0,0,9.62-.33,14.58,14.58,0,0,0,7.79-6.61,27.89,27.89,0,0,0,3.23-9.53,58.41,58.41,0,0,0,.86-9.49l.48.5-24.07-.84-7-.32A20,20,0,0,1,393.56,297.69Z"/><path class="cls-5" d="M438.26,298.12a17.33,17.33,0,0,1,2.38-.06l6.9,0c5.94,0,14.42.16,24.4.38h.49V299a57.19,57.19,0,0,1-.82,9.66,28.27,28.27,0,0,1-3.35,9.9,15.54,15.54,0,0,1-8.35,7.06,18,18,0,0,1-10.22.29,15.42,15.42,0,0,1-7.95-4.72,17.23,17.23,0,0,1-3.33-7.34,42,42,0,0,1-.7-11.52,20.79,20.79,0,0,1,.56-4.19c.06.09-.06,1.48-.15,4.21a46.43,46.43,0,0,0,1,11.33,16.84,16.84,0,0,0,3.26,6.93,14.65,14.65,0,0,0,7.53,4.34,17,17,0,0,0,9.62-.33,14.52,14.52,0,0,0,7.78-6.61,27.7,27.7,0,0,0,3.24-9.53,59.55,59.55,0,0,0,.86-9.49l.48.5-24.07-.84-7-.32A20,20,0,0,1,438.26,298.12Z"/><path class="cls-5" d="M492.91,319.07c-.2.21-5-4.17-10.79-9.79s-10.25-10.34-10.05-10.55,5,4.17,10.8,9.79S493.12,318.86,492.91,319.07Z"/><path class="cls-8" d="M378,706.13s54.43-6.73,55.86,11.31c3.45,43.27,121.92-4.09,123.07-6L564.42,616,542.08,445.9l-37.81-41.25s-6.88-1.28-25.62,4.49-55.34.06-65.15-2.85S390,439.41,390,439.41Z"/><path class="cls-9" d="M484.22,375.32l25.28,14.13,4.75,14.22a125.67,125.67,0,0,1,33.18,5.11c17.1,5.21,89.23,35,89.23,35s-50.57,23.06-58,29-14.23,44.87-13.86,75.36,13.11,116.49,2.7,135.08S550.4,704,550.4,704l-72.87,18.59s4.46-9.66,0-58-11.16-116.74-9.67-151-5.95-32.72,5.95-55.77,10.41-33.46,10.41-33.46Z"/><path class="cls-4" d="M561.48,489.45a23,23,0,0,1-3.5.37c-2.25.18-5.51.37-9.55.58-8.07.41-19.22.79-31.55.92s-23.5,0-31.57-.29c-4-.12-7.31-.25-9.56-.38a21,21,0,0,1-3.5-.31,22.46,22.46,0,0,1,3.51-.11l9.56,0c8.07.06,19.23.1,31.55,0s23.46-.4,31.53-.61l9.56-.24A21,21,0,0,1,561.48,489.45Z"/><path class="cls-4" d="M554.58,492.37s.16.27.35.82a16,16,0,0,1,.61,2.47,18.8,18.8,0,0,1-.79,9.29,16.4,16.4,0,0,1-17.66,11,49.34,49.34,0,0,1-8.6-1.85l-16.2-4.61c-2.49-.73-4.84-1.35-7.07-2.08a9.52,9.52,0,0,1-5.29-3.83,11.8,11.8,0,0,1-1.68-5.12,22.38,22.38,0,0,1-.08-4c.06-1.1.17-1.94.25-2.52a2.81,2.81,0,0,1,.18-.86,33.83,33.83,0,0,1,0,3.39,27,27,0,0,0,.26,3.94,11.56,11.56,0,0,0,1.72,4.78c2,3.4,7.13,3.88,12,5.38L528.79,513a50.11,50.11,0,0,0,8.41,1.85A15.65,15.65,0,0,0,554,504.68a19.3,19.3,0,0,0,1.08-9C554.88,493.56,554.49,492.4,554.58,492.37Z"/><path class="cls-4" d="M498,706.18c-.3,0-2.28-48.27-4.44-107.83s-3.67-107.88-3.37-107.89,2.28,48.27,4.44,107.85S498.31,706.17,498,706.18Z"/><path class="cls-4" d="M490.88,651.15c0,.29-2.74.44-6.08.32s-6.06-.46-6.05-.76,2.73-.44,6.08-.32S490.89,650.85,490.88,651.15Z"/><path class="cls-4" d="M486.55,595c0,.29-2.31.6-5.18.69s-5.21-.08-5.21-.37,2.31-.61,5.18-.7S486.54,594.74,486.55,595Z"/><path class="cls-4" d="M485.25,539.42c0,.3-2.81.54-6.28.54s-6.28-.24-6.28-.54,2.81-.54,6.28-.54S485.25,539.12,485.25,539.42Z"/><path class="cls-4" d="M570,444.73a9.9,9.9,0,0,1-.31,2.33q-.45,2.58-1.1,6.3c-.92,5.31-2,12.67-2.82,20.85s-1.09,15.63-1.2,21c-.05,2.51-.08,4.65-.11,6.39a10.45,10.45,0,0,1-.15,2.34,9.21,9.21,0,0,1-.27-2.33c-.11-1.51-.19-3.7-.23-6.4a193.9,193.9,0,0,1,.89-21.12,196.57,196.57,0,0,1,3.14-20.9c.55-2.64,1-4.77,1.45-6.23A9.38,9.38,0,0,1,570,444.73Z"/><path class="cls-4" d="M561.15,693.3a20.56,20.56,0,0,1-3.1,1.23c-2,.73-4.95,1.72-8.59,2.88-7.3,2.32-17.48,5.23-28.9,7.76s-21.88,4.15-29.48,5.12c-3.79.48-6.87.82-9,1a20.51,20.51,0,0,1-3.32.19,18.18,18.18,0,0,1,3.27-.6l9-1.34c7.55-1.16,18-2.91,29.35-5.42s21.57-5.31,28.91-7.44l8.68-2.55A19.91,19.91,0,0,1,561.15,693.3Z"/><path class="cls-4" d="M565.93,648.32a9.3,9.3,0,0,1-2.23-.05,46.49,46.49,0,0,1-6-.82,66.92,66.92,0,0,1-34.85-18.73,49.7,49.7,0,0,1-4-4.56,8.48,8.48,0,0,1-1.26-1.84c.15-.12,2.12,2.35,5.8,5.86a73.91,73.91,0,0,0,34.47,18.53C562.8,647.84,566,648.12,565.93,648.32Z"/><g class="cls-10"><path d="M480,441.51c6-2.34,12.79-.92,19,.89s12.55,4.05,19,3.23,12.85-5.87,12.63-12.32-6.23-10.66-11.61-14l-23.47-14.46c-1.69-1-3.87-2.08-5.53-1-1.17.76-1.55,2.26-1.84,3.62l-7,33.36"/></g><path class="cls-11" d="M529.45,423.22c.43-4.16-3.33-6.11-6.19-8.34-6.57-5.12-9.32-13.32-10.9-21.71a20,20,0,0,0-10.64-14.33,35.1,35.1,0,0,0-17.5-3.52L482.7,435.8c1.91-5.21,7.58-8,13.13-7.79s10.85,2.31,16.34,3.17c5.91.92,12.77,0,16.18-5.09A6.51,6.51,0,0,0,529.45,423.22Z"/><path class="cls-4" d="M511,388.77a3.71,3.71,0,0,1,.37.89c.21.6.5,1.48.84,2.63.7,2.28,1.5,5.66,2.85,9.68a25.21,25.21,0,0,0,8,12.12c1,.9,2.28,1.67,3.46,2.61a9.36,9.36,0,0,1,3,3.64,6.19,6.19,0,0,1-.21,5,10.05,10.05,0,0,1-3.22,3.87,16,16,0,0,1-9.26,2.83,33,33,0,0,1-8.89-1.18c-5.47-1.37-10.41-2.81-14.59-2.34a13.46,13.46,0,0,0-8.68,4.26,18.21,18.21,0,0,0-2,3.05,7.64,7.64,0,0,1,1.7-3.32,13.58,13.58,0,0,1,8.91-4.74c4.4-.59,9.47.83,14.91,2.13a32.51,32.51,0,0,0,8.63,1.09,15.16,15.16,0,0,0,8.65-2.64,9,9,0,0,0,2.89-3.45,5.15,5.15,0,0,0,.21-4.13c-1.12-2.64-4-4-6.13-5.88a25.6,25.6,0,0,1-8.11-12.65c-1.27-4.11-2-7.5-2.54-9.81A29.05,29.05,0,0,1,511,388.77Z"/><circle class="cls-1" cx="533.25" cy="502.37" r="4.78"/><path class="cls-4" d="M538,502.37c-.09,0-.12-.43-.36-1.12a4.8,4.8,0,0,0-1.76-2.38,4.45,4.45,0,0,0-4.12-.53,4.32,4.32,0,1,0,4.12,7.52,4.76,4.76,0,0,0,1.76-2.38c.24-.69.27-1.11.36-1.11s.17.43.05,1.22a4.78,4.78,0,0,1-1.71,2.88,5.13,5.13,0,0,1-4.92.85,5.24,5.24,0,0,1,0-9.9,5.13,5.13,0,0,1,4.92.85,4.78,4.78,0,0,1,1.71,2.88C538.2,501.94,538.08,502.37,538,502.37Z"/><path class="cls-9" d="M421.59,384.83s-16.36,8.92-19.33,14.87c0,0-35.93,8.1-42.39,10.41-13.41,4.8-36.95,28.6-36.95,28.6l28.95,30.64s13.21,202.51,20.64,223.33l9,5.91,19.69,7.54s-7.86-176.3,6.27-217.2l9.26-29.36,4.87-70.28Z"/><g class="cls-10"><path d="M411.59,444.45a12.76,12.76,0,0,0-10.25-6.21A15.15,15.15,0,0,0,390,442.62l-2.75,1.27a6.38,6.38,0,0,0,5.34,7.59c2.09.19,4.11-.68,6.16-1.1s4.56-.17,5.7,1.59a9.18,9.18,0,0,1,.93,3.24,3.52,3.52,0,0,0,1.79,2.72c1.39.56,2.9-.5,3.79-1.69A11,11,0,0,0,411.59,444.45Z"/></g><path class="cls-11" d="M403.48,397.89c-3.81,5.56-5.14,11.72-7.61,18a44.07,44.07,0,0,1-10.18,16.05c-1.79,1.77-3.94,4.86-4.1,7.38-.22,3.44,3.54,4.57,7,4.45a35.85,35.85,0,0,0,10-1.63c3.28-1.07,8.84-1.41,11.26,1.05a22.16,22.16,0,0,1,3.34,3.91c.9,1.47.22,3.45,1.94,3.3,2.81-.25,3.63-3.93,3.7-6.75.46-18.93,2.29-39.88,2.75-58.81C414.89,385.55,407.28,392.33,403.48,397.89Z"/><path class="cls-4" d="M421.59,384.83a28.38,28.38,0,0,0-4.11,1.16,26.72,26.72,0,0,0-9.23,6.89,46.81,46.81,0,0,0-4.89,6.35,41,41,0,0,0-3.82,8.36c-2.33,6.11-4.94,12.94-9.25,19.28a51.73,51.73,0,0,1-3.43,4.5c-1.17,1.44-2.54,2.72-3.6,4a4.38,4.38,0,0,0-1,4.4,5,5,0,0,0,3.25,3,19.12,19.12,0,0,0,9-.1,57.75,57.75,0,0,1,8-1.36,13.31,13.31,0,0,1,6.69,1.15,8.88,8.88,0,0,1,3.7,3.54,6.26,6.26,0,0,1,.81,3.14,2.87,2.87,0,0,1-.2,1.11,7.12,7.12,0,0,0-1-4A8.6,8.6,0,0,0,409,443a12.73,12.73,0,0,0-6.37-.93,57.41,57.41,0,0,0-7.91,1.47,19.73,19.73,0,0,1-9.45.18,6,6,0,0,1-3.91-3.58,4.69,4.69,0,0,1-.19-2.85,6.79,6.79,0,0,1,1.29-2.54c1.18-1.46,2.47-2.67,3.63-4.09a53.19,53.19,0,0,0,3.35-4.41c4.22-6.21,6.85-12.95,9.22-19a40.44,40.44,0,0,1,4-8.48,45,45,0,0,1,5.09-6.4,26.06,26.06,0,0,1,9.63-6.76,14.62,14.62,0,0,1,3.14-.74A4,4,0,0,1,421.59,384.83Z"/><path class="cls-4" d="M383.47,699.34a3.26,3.26,0,0,1-.14-.65l-.31-1.93c-.25-1.7-.68-4.21-1.06-7.45-.86-6.48-1.82-15.89-2.56-27.56-1.55-23.32-1.58-55.67.67-91.25,1.1-17.8,2.51-34.75,4.73-50a280.39,280.39,0,0,1,8.51-40.16,189.07,189.07,0,0,1,9.64-26c1.3-3,2.57-5.2,3.32-6.75l.91-1.73a2.39,2.39,0,0,1,.35-.57,4.23,4.23,0,0,1-.25.62c-.21.45-.48,1-.81,1.78-.69,1.57-1.9,3.8-3.14,6.83a203.92,203.92,0,0,0-9.29,26,288,288,0,0,0-8.26,40.09c-2.16,15.27-3.54,32.19-4.64,50-2.24,35.55-2.34,67.85-1,91.15.65,11.65,1.49,21.06,2.23,27.55.31,3.25.68,5.76.85,7.47.09.81.16,1.45.21,1.94A2.83,2.83,0,0,1,383.47,699.34Z"/><path class="cls-4" d="M388,505.45a5.67,5.67,0,0,1-1.75-.45,43,43,0,0,1-4.57-1.78,67.28,67.28,0,0,1-25.35-19.73,44.65,44.65,0,0,1-2.85-4,6,6,0,0,1-.86-1.58c.14-.1,1.62,2,4.29,5.09A79.46,79.46,0,0,0,382,502.54C385.64,504.36,388,505.28,388,505.45Z"/><path class="cls-1" d="M397.62,527.05a4.78,4.78,0,1,1-4.78-4.78A4.78,4.78,0,0,1,397.62,527.05Z"/><path class="cls-4" d="M397.62,527.05c-.09,0-.12-.43-.36-1.12a4.8,4.8,0,0,0-1.76-2.38,4.45,4.45,0,0,0-4.12-.53,4.3,4.3,0,0,0,0,8.05,4.42,4.42,0,0,0,4.12-.53,4.76,4.76,0,0,0,1.76-2.38c.24-.69.27-1.12.36-1.11s.17.43.05,1.21a4.77,4.77,0,0,1-1.71,2.89A5.13,5.13,0,0,1,391,532a5.25,5.25,0,0,1,0-9.91A5.15,5.15,0,0,1,396,523a4.78,4.78,0,0,1,1.71,2.88C397.79,526.62,397.67,527.05,397.62,527.05Z"/><circle class="cls-1" cx="402.85" cy="477.91" r="4.78"/><path class="cls-4" d="M407.62,477.91c-.08,0-.11-.43-.35-1.12a4.8,4.8,0,0,0-1.76-2.38,4.45,4.45,0,0,0-4.12-.53,4.32,4.32,0,1,0,4.12,7.52,4.76,4.76,0,0,0,1.76-2.38c.24-.69.27-1.11.35-1.11s.18.43.06,1.22A4.78,4.78,0,0,1,406,482a5.13,5.13,0,0,1-4.92.85,5.24,5.24,0,0,1,0-9.9,5.13,5.13,0,0,1,4.92.85,4.78,4.78,0,0,1,1.71,2.88C407.8,477.48,407.68,477.91,407.62,477.91Z"/><circle class="cls-1" cx="388.06" cy="585.51" r="4.78"/><path class="cls-4" d="M392.84,585.51c-.09,0-.12-.42-.36-1.11a4.7,4.7,0,0,0-1.76-2.38,4.42,4.42,0,0,0-4.12-.53,4.3,4.3,0,0,0,0,8,4.45,4.45,0,0,0,4.12-.53,4.74,4.74,0,0,0,1.76-2.38c.24-.69.27-1.12.36-1.12s.17.43.05,1.22a4.78,4.78,0,0,1-1.71,2.88,5.15,5.15,0,0,1-4.92.86,5.25,5.25,0,0,1,0-9.91,5.13,5.13,0,0,1,4.92.85,4.77,4.77,0,0,1,1.71,2.89C393,585.08,392.89,585.52,392.84,585.51Z"/><circle class="cls-1" cx="388.06" cy="643.55" r="4.78"/><path class="cls-4" d="M392.84,643.55c-.09,0-.12-.42-.36-1.11a4.7,4.7,0,0,0-1.76-2.38,4.4,4.4,0,0,0-4.12-.53,4.3,4.3,0,0,0,0,8,4.42,4.42,0,0,0,4.12-.52,4.74,4.74,0,0,0,1.76-2.38c.24-.69.27-1.12.36-1.12s.17.43.05,1.22a4.78,4.78,0,0,1-1.71,2.88,5.13,5.13,0,0,1-4.92.85,5.24,5.24,0,0,1,0-9.9,5.13,5.13,0,0,1,4.92.85,4.78,4.78,0,0,1,1.71,2.88C393,643.12,392.89,643.55,392.84,643.55Z"/><g class="cls-10"><path d="M556.68,504.26c-2.62,4.35-7.74,6.74-12.8,7.19s-10.11-.76-15-2.2c-5.63-1.66-14.63-3.35-20.05-5.61-5.23-2.19-6.35-6.42-6.69-12.59l0,.31c-1.38,7.5,2.24,14.44,8.54,18.72s14,5.91,21.52,7.2c5.46.94,11.23,1.73,16.43-.19S558.11,509.62,556.68,504.26Z"/></g><g class="cls-10"><path d="M524.69,662.54c-6.18-7.38-6.91-13.25-8.12-22-1.48,7-.66,11.61,1,18.58s5.9,13.53,12.2,16.95,14.75,3.16,20.15-1.56A33.86,33.86,0,0,1,524.69,662.54Z"/></g><path class="cls-4" d="M428.58,623c.3,0,1.63,21.31,3,47.62s2.2,47.67,1.9,47.68-1.63-21.3-3-47.62S428.29,623.06,428.58,623Z"/><polygon class="cls-12" points="286.36 418.34 266.68 412.57 202.31 418.34 190.35 442.21 206.31 462.23 264.03 464.84 290.88 447.37 286.36 418.34"/><path class="cls-4" d="M300.3,303.62a17.49,17.49,0,0,0-.76-30.46l-20.92-4.41q.21,39.48-.13,78.94c5.37-.91,10.86-2.47,14.94-6.08s6.35-9.75,4.08-14.71a13.84,13.84,0,0,0,2.79-23.28Z"/><path class="cls-13" d="M199.85,299.94l-.32-9.34,55.93-11.5c17.27-2.08,36.22,15,37.57,32.31,1.51,19.27,2.58,42.85.51,57.27-4.17,29-26.29,33-26.29,33l1.32,28.58c.44,16.69-13.56,20.58-30.25,21h0a30.26,30.26,0,0,1-31-28.42Z"/><path class="cls-4" d="M281.31,331.49a3.71,3.71,0,0,1-3.52,3.79,3.54,3.54,0,0,1-3.87-3.29,3.7,3.7,0,0,1,3.51-3.79A3.54,3.54,0,0,1,281.31,331.49Z"/><path class="cls-4" d="M243.49,333.5a3.7,3.7,0,0,1-3.52,3.79A3.54,3.54,0,0,1,236.1,334a3.71,3.71,0,0,1,3.51-3.8A3.54,3.54,0,0,1,243.49,333.5Z"/><path class="cls-4" d="M287.1,323.79c-.45.49-3.3-1.55-7.29-1.48s-6.89,2.11-7.33,1.63c-.21-.21.24-1.09,1.5-2a10.28,10.28,0,0,1,5.86-1.9,9.78,9.78,0,0,1,5.81,1.78C286.89,322.7,287.32,323.57,287.1,323.79Z"/><path class="cls-4" d="M246.81,325.8c-.45.49-3.3-1.55-7.29-1.48s-6.88,2.11-7.33,1.63c-.21-.21.24-1.1,1.51-2a10.07,10.07,0,0,1,5.85-1.9,9.71,9.71,0,0,1,5.81,1.78C246.6,324.71,247,325.58,246.81,325.8Z"/><path class="cls-4" d="M262.79,354.51c0-.22,2.46-.69,6.47-1.26,1-.12,2-.34,2.14-1s-.21-1.83-.72-3q-1.5-3.68-3.13-7.72c-4.35-11-7.52-20-7.08-20.2s4.34,8.59,8.69,19.59c1,2.71,2,5.29,3,7.76.4,1.15,1.09,2.46.59,4a2.53,2.53,0,0,1-1.66,1.51,7,7,0,0,1-1.72.27C265.32,354.68,262.81,354.74,262.79,354.51Z"/><path class="cls-14" d="M267.24,401.76s-20.43,1.5-39.89-9.8c0,0,10.35,20.43,40.25,17.34Z"/><path class="cls-15" d="M250.24,362.79a8.07,8.07,0,0,1,5.52-3.07c3.05-.37,6.18-.34,7.86,2.41a4.22,4.22,0,0,1-.06,3.7c-.32.59-.08.31-.6.74a19.55,19.55,0,0,1-6.58,3.58c-2.33.7-5.09.31-6.44-1.53A5.09,5.09,0,0,1,250.24,362.79Z"/><path class="cls-4" d="M251.08,357.45c.65-.05.73,4.29,4.48,7.31s8.36,2.47,8.4,3.08c.07.27-1,.86-3,.94a10.81,10.81,0,0,1-7-2.33,9.44,9.44,0,0,1-3.48-6.13C250.32,358.51,250.79,357.43,251.08,357.45Z"/><path class="cls-4" d="M248.59,313.83c-.37,1.09-4.37.64-9,1.27s-8.45,2-9.09,1c-.28-.46.36-1.49,1.87-2.56a15,15,0,0,1,6.71-2.46,15.32,15.32,0,0,1,7.11.72C247.88,312.47,248.75,313.31,248.59,313.83Z"/><path class="cls-4" d="M286.78,310.1c-.69.92-3.46,0-6.77,0s-6.09.7-6.75-.24c-.29-.45.13-1.37,1.35-2.25a9.81,9.81,0,0,1,10.89.18C286.68,308.72,287.08,309.65,286.78,310.1Z"/><path class="cls-4" d="M302.81,285.36c5.75-4,8.4-11.84,6.72-18.66a20.52,20.52,0,0,0-14.16-14.31,21.33,21.33,0,0,0-4.2-.72,18.6,18.6,0,0,0-9-2.44c-.5-3.72-3.87-6.56-7.51-7.49s-7.48-.29-11.13.6a18.87,18.87,0,0,0-30.37,1.78A15.45,15.45,0,0,0,210.41,254,15.09,15.09,0,0,0,197,263.33a14.73,14.73,0,0,0-2.66,5.76A17.39,17.39,0,0,0,187,300.87a15.9,15.9,0,0,0,3.84,25.18,20.31,20.31,0,0,0,1.8,15.9,9.89,9.89,0,0,0,5.16,4.67,3.89,3.89,0,0,0,.46,1.07c1.77,2.69,6,1.45,8.5-.59,6-5,9.21-12.63,10.83-20.27s1.93-15.51,3.48-23.16c0-.17.07-.35.11-.54a21.31,21.31,0,0,1,4-8.72,55.76,55.76,0,0,0,7,4.34A23,23,0,0,0,258.89,293a33.83,33.83,0,0,0,21.61,7.53c7.78-.11,15.47-1.67,21.37-6.75a10.86,10.86,0,0,0,3.31-4.92C305.61,287.49,304.22,285.76,302.81,285.36Z"/><path class="cls-13" d="M205.08,338.12c-.39-.19-15.62-5.72-16.12,10.15s15.54,13.11,15.58,12.65S205.08,338.12,205.08,338.12Z"/><path class="cls-14" d="M199.88,354.75c-.07-.05-.28.19-.76.39a2.82,2.82,0,0,1-2.07,0c-1.65-.67-3-3.38-3-6.24a9.21,9.21,0,0,1,.9-3.94,3.19,3.19,0,0,1,2.15-2.05,1.41,1.41,0,0,1,1.61.81c.19.45.08.76.17.79s.35-.26.24-.91a1.82,1.82,0,0,0-.59-1,2.1,2.1,0,0,0-1.52-.45,3.88,3.88,0,0,0-3,2.37,9.41,9.41,0,0,0-1.1,4.39c0,3.2,1.55,6.25,3.82,7a2.94,2.94,0,0,0,2.54-.34C199.84,355.14,199.93,354.78,199.88,354.75Z"/><path class="cls-5" d="M308.68,264.09s.07.12.15.38a8.88,8.88,0,0,1,.27,1.14,11.74,11.74,0,0,1-.09,4.48,11.88,11.88,0,0,1-3.35,6.17,12.56,12.56,0,0,1-8.47,3.52l.29-.25a27.28,27.28,0,0,1-6.58,13.79,21,21,0,0,1-7,5.26,17.43,17.43,0,0,1-9.13,1.35A30.91,30.91,0,0,1,266,297.7a23.9,23.9,0,0,1-7.32-4.42h.48a28.71,28.71,0,0,1-13.31,7.39,22.54,22.54,0,0,1-11.93-1,23.3,23.3,0,0,1-6.86-3.87,20.87,20.87,0,0,1-1.56-1.4,3.73,3.73,0,0,1-.49-.54s.75.66,2.19,1.76a24.57,24.57,0,0,0,6.86,3.65,22.41,22.41,0,0,0,11.67.85,28.37,28.37,0,0,0,12.95-7.31l.24-.22.24.22a23.42,23.42,0,0,0,7.11,4.25,30.42,30.42,0,0,0,8.61,2.17,16.83,16.83,0,0,0,8.77-1.28,20.54,20.54,0,0,0,6.77-5.06,26.93,26.93,0,0,0,6.52-13.43l0-.24h.24a12,12,0,0,0,8.15-3.28,11.67,11.67,0,0,0,3.35-5.9,12.38,12.38,0,0,0,.24-4.39C308.8,264.62,308.64,264.1,308.68,264.09Z"/><path class="cls-5" d="M196.61,268.22a32.72,32.72,0,0,0-1.45,5.44,22.71,22.71,0,0,0,2.42,14.15l.12.23-.2.17a14.72,14.72,0,0,0-4.28,6.4,14,14,0,0,0-.18,8.45,14.69,14.69,0,0,0,6.68,8.5l.29.16-.15.3a18.1,18.1,0,0,0-1.94,9.88,19.67,19.67,0,0,0,2.21,7.72,22.3,22.3,0,0,0,4.45,5.67s-.15-.08-.41-.28a13.68,13.68,0,0,1-1.11-.92,17.44,17.44,0,0,1-3.31-4.27,19.8,19.8,0,0,1-2.42-7.87,18.61,18.61,0,0,1,1.92-10.25l.13.46a15.27,15.27,0,0,1-7-8.9,14.63,14.63,0,0,1,.22-8.87,15,15,0,0,1,4.53-6.67l-.08.4a22.6,22.6,0,0,1-2.23-14.53,20.28,20.28,0,0,1,1.17-4c.18-.45.35-.78.46-1A1.07,1.07,0,0,1,196.61,268.22Z"/><path class="cls-5" d="M330.17,624.89s30.76,91.72,32.88,124.66-19.41,208-19.41,208h-83.9L257,777.2l-9.7,180.39h-84.1S137.53,835.77,132.8,791.24c-2.21-20.76,10.06-74.21,18.11-113,6.5-31.32,32.41-42.51,32.41-42.51Z"/><path class="cls-4" d="M263.41,638.42a24.52,24.52,0,0,1,.51,3.63c.26,2.35.58,5.75.85,10,.59,8.42,1,20.08.65,33a350.35,350.35,0,0,1-2.86,36.59l0,.26-.25,0-7.26.87a14.9,14.9,0,0,1-2.61.19,14.09,14.09,0,0,1,2.56-.54l7.22-1.18-.28.29c.86-8.32,2.07-21.58,2.44-36.53.33-12.85.06-24.49-.33-32.9-.21-4.07-.38-7.44-.51-10A23.57,23.57,0,0,1,263.41,638.42Z"/><path class="cls-4" d="M248.54,645.94c0,.1-.48.2-1.23.64a6.27,6.27,0,0,0-2.38,2.66,6,6,0,0,0-.16,5.07,5.66,5.66,0,0,0,10.06-.75,6.05,6.05,0,0,0-.91-5,6.21,6.21,0,0,0-2.75-2.28c-.81-.33-1.32-.35-1.31-.45a2.4,2.4,0,0,1,1.44,0,6.08,6.08,0,0,1,3.23,2.23,6.65,6.65,0,0,1,1.24,5.72,6.57,6.57,0,0,1-11.9.89,6.66,6.66,0,0,1,.39-5.84,6,6,0,0,1,2.87-2.69A2.39,2.39,0,0,1,248.54,645.94Z"/><path class="cls-4" d="M288.15,751.74c.18.23-9.76,8.32-22.2,18.06S243.27,787.25,243.08,787s9.76-8.32,22.2-18.06S288,751.51,288.15,751.74Z"/><path class="cls-16" d="M319.66,431.48l-50.47-18.17c5.68,18.17-1.53,33.43-17.55,36.48a53.37,53.37,0,0,1-45.33-12.93c5.31,74.2,3.07,133.58,3.95,208,38.17-11.91,82.21-3.64,121.81-4C322,566.86,319.46,506.17,319.66,431.48Z"/><path class="cls-13" d="M72.05,263.05l14.56-68s7-16.65,12.2-22.5c0,0,5-13.24,10.17-8.38,0,0,5.86-5.67,7.89,2.33,0,0,7.83-6.74,10.58.4,0,0,8.4-2.94,9.59,4.05,0,0,4.88-2,6.77,1s2.18,13,2.18,13l-13.94,15a14.85,14.85,0,0,1-9.77,4.58c-3.5.28-7.61,1.53-8.59,5.72-1.78,7.63-4.1,54.43-4.1,54.43Z"/><path class="cls-14" d="M105.57,189.38s.06-.17.22-.45a10.53,10.53,0,0,1,.81-1.2,15.49,15.49,0,0,1,3.92-3.57,15.8,15.8,0,0,1,7.47-2.47,16.36,16.36,0,0,1,9.34,2.3,15.09,15.09,0,0,1,2.58,1.93l-.5.06a12.65,12.65,0,0,1,9.14-5.59l-.23.35a13.79,13.79,0,0,1,.44-7.73,12.09,12.09,0,0,1,.91-2c.26-.43.41-.64.44-.62s-.5.93-1.05,2.68a14.12,14.12,0,0,0-.21,7.49l.08.31-.32,0a12.2,12.2,0,0,0-8.64,5.41l-.22.33-.29-.27a15.34,15.34,0,0,0-2.48-1.84,16,16,0,0,0-9-2.26,15.6,15.6,0,0,0-7.26,2.26,16.54,16.54,0,0,0-4,3.33C106,188.83,105.62,189.41,105.57,189.38Z"/><path class="cls-14" d="M117.12,166.09a7.18,7.18,0,0,1-.64,1.68A28,28,0,0,1,114,172a30.39,30.39,0,0,1-2.12,2.66,5,5,0,0,1-3.44,2,2.49,2.49,0,0,1-2.1-1,3.36,3.36,0,0,1-.46-2.32,27.24,27.24,0,0,1,1.12-4.53,36.79,36.79,0,0,1,2-4.9l.59.28a39.27,39.27,0,0,1-3.47,6.14,16.23,16.23,0,0,1-2,2.28,4.7,4.7,0,0,1-2.34,1.28,2.62,2.62,0,0,1-2.13-.55A1.79,1.79,0,0,1,99,171.9c.15-1,.8-1.13.77-1.09a1.56,1.56,0,0,0,0,2.38,2.23,2.23,0,0,0,1.83.39c1.46-.3,2.76-1.83,4-3.48A40.51,40.51,0,0,0,109,164l.59.28a38.24,38.24,0,0,0-1.91,4.83,29.13,29.13,0,0,0-1.11,4.39,2.79,2.79,0,0,0,.34,1.88,1.8,1.8,0,0,0,1.56.72,4.51,4.51,0,0,0,3-1.8,32.25,32.25,0,0,0,2.14-2.56,33.93,33.93,0,0,0,2.62-4.1A11.7,11.7,0,0,1,117.12,166.09Z"/><path class="cls-14" d="M127,167.29a5,5,0,0,1-.71,1.13l-2.1,3c-.9,1.25-2,2.74-3.29,4.31-.65.79-1.37,1.59-2.15,2.39a7.19,7.19,0,0,1-2.93,2,2.76,2.76,0,0,1-1.92-.12,2.6,2.6,0,0,1-1.33-1.34,4.91,4.91,0,0,1,0-3.34,20.35,20.35,0,0,1,1.1-2.71l1.07-2.29c.65-1.39,1.19-2.51,1.58-3.28a5.07,5.07,0,0,1,.66-1.17,5.24,5.24,0,0,1-.43,1.28c-.31.8-.78,1.95-1.38,3.37l-1,2.31a21.92,21.92,0,0,0-1,2.66,4.31,4.31,0,0,0,0,2.9,2,2,0,0,0,2.47,1.09,6.86,6.86,0,0,0,2.64-1.85c.77-.78,1.49-1.56,2.15-2.32,1.33-1.53,2.44-3,3.38-4.19s1.72-2.19,2.27-2.85S127,167.26,127,167.29Z"/><path class="cls-14" d="M137,170.93a5.62,5.62,0,0,1-.93,1.11c-.75.77-1.66,1.72-2.73,2.84s-2.6,2.62-4.11,4.16a20,20,0,0,1-2.6,2.35,4.89,4.89,0,0,1-3.75.93,3.12,3.12,0,0,1-1.78-1.06,3.7,3.7,0,0,1-.77-1.83,6.1,6.1,0,0,1,.72-3.51,44.8,44.8,0,0,1,3-5c1-1.37,1.81-2.43,2.41-3.14a5.43,5.43,0,0,1,1-1c.08.07-1.22,1.66-3,4.45a52.4,52.4,0,0,0-2.89,5,5.53,5.53,0,0,0-.63,3.15,2.62,2.62,0,0,0,2,2.32,4.29,4.29,0,0,0,3.24-.81,21.84,21.84,0,0,0,2.53-2.25l4.21-4.06c1.14-1,2.1-1.95,2.88-2.69A6.51,6.51,0,0,1,137,170.93Z"/><path class="cls-14" d="M104,208.25c-.12.14-1.81-1.14-3.77-2.85s-3.44-3.22-3.32-3.36,1.81,1.14,3.77,2.85S104.1,208.11,104,208.25Z"/><path class="cls-17" d="M206.48,411.18l.85,25.68,10.15,332.57-77.11-46.85V709.43s-12-11.95-15.54-23.31,10-123.47,11.87-155.15c1.6-26.36,5.77-75.68,33.45-101.84C170.15,429.13,200.06,413.59,206.48,411.18Z"/><path class="cls-17" d="M77.44,240.86c-2,7.41-19.41,30.59-20.92,36.64-7.4,29.74-7,69.2-6.7,87.47.41,24.51,87.11,180,87.11,180l31.23-113.07s-48.7-88.68-49.62-100.5S121.17,261,121.17,261l-5.28-6.69-1.71-13.44Z"/><path class="cls-5" d="M216.37,760.71c-.16.25-17.62-10.79-39-24.65s-38.59-25.32-38.43-25.56,17.62,10.79,39,24.66S216.53,760.47,216.37,760.71Z"/><path class="cls-5" d="M173.36,621.42a9.23,9.23,0,0,1-.2,2.25,20.55,20.55,0,0,1-.49,2.61,32.71,32.71,0,0,1-.89,3.4,49.38,49.38,0,0,1-3.49,8.47A52.13,52.13,0,0,1,154,655.24a49.84,49.84,0,0,1-7.74,4.91,30.72,30.72,0,0,1-3.19,1.47,20.94,20.94,0,0,1-2.48.94,9.74,9.74,0,0,1-2.18.59c-.07-.21,3-1.18,7.5-3.67a54.41,54.41,0,0,0,7.47-5,54.9,54.9,0,0,0,14.08-16.79,53.9,53.9,0,0,0,3.64-8.24C172.72,624.58,173.15,621.38,173.36,621.42Z"/><path class="cls-5" d="M137.15,462.23a11,11,0,0,1,1.14,2.12c.68,1.39,1.62,3.43,2.72,6a106,106,0,0,1,6.83,20.56,52.71,52.71,0,0,1,.18,21.65,34.41,34.41,0,0,1-2,6.29,9,9,0,0,1-1.11,2.14c-.2-.07,1.35-3.17,2.35-8.58a56.17,56.17,0,0,0-.48-21.28,124.74,124.74,0,0,0-6.48-20.49l-2.4-6.09A10.63,10.63,0,0,1,137.15,462.23Z"/><path class="cls-17" d="M267.6,409.3,292,420.08s42.22,7.44,49.13,13.79,6.9,13.79,9.56,27.08c1.53,7.63,8.08,69.89,13,125.27,3.61,40.94,6.32,78.13,5.42,86.71-2.13,20.19-6.1,32.4-6.1,32.4l-1.07,20.72-54.27,37.21a181.89,181.89,0,0,1-4.78-23.91c-6.29-48.08-.88-90.11-1.71-135.5-.82-44.28-16.64-121.58-16.64-121.58Z"/><path class="cls-5" d="M363,705.33a15,15,0,0,1-2,1.94c-1.3,1.2-3.22,2.9-5.63,5a220.85,220.85,0,0,1-19.66,15,175.18,175.18,0,0,1-21.49,12.27c-2.86,1.36-5.2,2.41-6.84,3.08a14.74,14.74,0,0,1-2.58.95,13.24,13.24,0,0,1,2.41-1.33l6.67-3.38a219,219,0,0,0,21.23-12.48c8-5.37,14.85-10.76,19.78-14.7l5.83-4.69A13,13,0,0,1,363,705.33Z"/><path class="cls-5" d="M357.94,559.57a3.27,3.27,0,0,1-.16-1c-.07-.75-.15-1.65-.25-2.73-.18-2.38-.51-5.81-1-10a256,256,0,0,0-6-32.67,242,242,0,0,0-10.27-31.57c-1.57-3.95-2.95-7.11-3.93-9.28l-1.09-2.51a3.62,3.62,0,0,1-.32-.91,3.11,3.11,0,0,1,.51.81l1.28,2.43c1.09,2.12,2.58,5.24,4.26,9.17a211.94,211.94,0,0,1,10.6,31.6,218.49,218.49,0,0,1,5.67,32.85c.38,4.25.6,7.7.65,10.08,0,1.09,0,2,.05,2.75A3,3,0,0,1,357.94,559.57Z"/><path class="cls-4" d="M268.42,502.84a14.6,14.6,0,0,1,.05,2.94c-.05,1.88-.21,4.61-.62,8-.83,6.66-2.75,16.06-8.07,25s-13.23,14.92-19.53,17.42a30.77,30.77,0,0,1-7.74,2.12,18.56,18.56,0,0,1-2.17.18c-.5,0-.76,0-.76,0-.06-.26,4.25-.25,10.37-3s13.7-8.49,18.91-17.27,7.23-18,8.24-24.61c.5-3.31.78-6,1-7.89A15.81,15.81,0,0,1,268.42,502.84Z"/><g class="cls-10"><path d="M268.12,512.25c-4.79,18.34-8,32.73-27,42.65h0l-12,5.34a33,33,0,0,0,39-48Z"/></g><path class="cls-6" d="M206.48,404.91c-.94-.36-22.4-3.83-22.4-3.83s-21.87,7.09-22.82,10.33a28.41,28.41,0,0,0-1.07,6.24s-2.6,0-4.92,3l-5.52.66-5.25,11.93,5.58,8.37s3,.31,2.78-3.13l5.81,8,12.5,11.36s4.26-1.48,1.62-8.34a29.79,29.79,0,0,0-7.16-10.85l15.94,11.14s4-1.12,2.84-4.92-8.23-11.64-8.23-11.64L189.32,422s4.93,1.64,9.32-.61,7.84-10.24,7.84-10.24Z"/><path class="cls-7" d="M182.31,426.64c0,.06-.44.49-1.41,1.15a16,16,0,0,1-4.49,2.22,8.42,8.42,0,0,1-7.39-1,6.1,6.1,0,0,1-2.34-4,5.85,5.85,0,0,1,1.73-4.62,25.46,25.46,0,0,1,3.63-3l3.47-2.58,5.91-4.32c3.38-2.43,5.52-3.88,5.61-3.76s-1.89,1.78-5.15,4.37l-5.78,4.5-3.43,2.63a26.88,26.88,0,0,0-3.47,2.91,4.82,4.82,0,0,0-1.47,3.78,5.14,5.14,0,0,0,1.9,3.31,7.73,7.73,0,0,0,6.58,1.08,18.88,18.88,0,0,0,4.47-1.83A6.85,6.85,0,0,1,182.31,426.64Z"/><path class="cls-7" d="M152.86,438.45c-.29,0,0-4.07.68-9s1.44-8.89,1.73-8.85,0,4.07-.67,9S153.16,438.49,152.86,438.45Z"/><path class="cls-7" d="M166.54,439.28c-.07.14-1.3-.56-2.49-2.36a10.08,10.08,0,0,1-.85-1.55,13,13,0,0,1-.57-1.93c-.33-1.34-.67-2.81-1-4.37-1.38-6.21-1.78-11.4-1.43-11.43s1.11,5,2.48,11.21c.32,1.51.62,3,.92,4.37a13.78,13.78,0,0,0,.43,1.83,10.14,10.14,0,0,0,.67,1.48C165.66,438.33,166.62,439.16,166.54,439.28Z"/><path class="cls-4" d="M713.57,635.67l1,8.5,21.84,36.73s6,55.62,7,93.31c1,43-6.21,165.14-6,184.21l-71.06-.83c.06-22.52-6.84-177.54-6.84-177.54l-5.73-128.77,63.42-17.85"/><path class="cls-4" d="M655.13,958.42l3.94-187.6L665.23,650,593,633l-2.15,15s-24.4,65.32-23,84.25c4,53,19.84,225.35,19.84,225.35"/><path class="cls-11" d="M695.64,470.68c-.4-3.49-1-7.34-3.73-9.56S684.54,436.62,681,437c-26.35,2.48-47,7.38-73.31,9.86-9.07,68.12-21.63,171.55-31.18,239.6,22,17.44,49.8,17.67,85.92,18.92,7.4.25,19.08-4.14,25.06-8.5,7.73-5.64,9.39-16.31,10.27-25.84A974.63,974.63,0,0,0,695.64,470.68Z"/><path class="cls-4" d="M682,470.7c0,.3-17.64,1.51-39.43,2.7s-39.48,1.92-39.49,1.62,17.63-1.5,39.43-2.69S682,470.41,682,470.7Z"/><path class="cls-4" d="M683.86,489.66c0,.29-17.64,1.5-39.43,2.69S605,494.27,604.94,494s17.64-1.51,39.43-2.7S683.84,489.36,683.86,489.66Z"/><path class="cls-4" d="M685.7,508.61c0,.29-17.63,1.5-39.42,2.69s-39.48,1.92-39.5,1.63,17.64-1.5,39.44-2.7S685.69,508.31,685.7,508.61Z"/><path class="cls-4" d="M687.55,527.56c0,.3-17.64,1.5-39.43,2.7s-39.48,1.92-39.49,1.62,17.63-1.5,39.43-2.7S687.53,527.26,687.55,527.56Z"/><path class="cls-4" d="M689.39,546.51c0,.3-17.64,1.51-39.43,2.7s-39.47,1.92-39.49,1.62,17.64-1.5,39.43-2.69S689.38,546.22,689.39,546.51Z"/><path class="cls-4" d="M691.24,565.46c0,.3-17.64,1.51-39.43,2.7s-39.48,1.92-39.49,1.62,17.63-1.5,39.43-2.69S691.22,565.17,691.24,565.46Z"/><path class="cls-4" d="M692.7,584.42c0,.29-21.32,1.5-47.64,2.69s-47.69,1.92-47.7,1.63,21.32-1.51,47.65-2.7S692.68,584.12,692.7,584.42Z"/><path class="cls-4" d="M694.92,603.37c0,.3-21.32,1.5-47.64,2.69s-47.68,1.93-47.69,1.63,21.31-1.5,47.64-2.7S694.91,603.07,694.92,603.37Z"/><path class="cls-4" d="M690.6,623.05c0,.3-21.32,1.5-47.64,2.7s-47.68,1.92-47.7,1.62,21.32-1.5,47.65-2.7S690.58,622.75,690.6,623.05Z"/><path class="cls-4" d="M686.27,642.73c0,.3-21.32,1.5-47.64,2.7s-47.68,1.92-47.69,1.62,21.31-1.5,47.64-2.7S686.26,642.43,686.27,642.73Z"/><path class="cls-4" d="M682,662.41c0,.3-21.32,1.5-47.64,2.7s-47.69,1.92-47.7,1.62,21.32-1.5,47.65-2.69S681.93,662.12,682,662.41Z"/><path class="cls-4" d="M677.62,682.09c0,.3-21.32,1.5-47.64,2.7s-47.68,1.92-47.7,1.62,21.32-1.5,47.65-2.69S677.61,681.8,677.62,682.09Z"/><path class="cls-18" d="M611.69,424.26s5.39,54.28,2,110.45-10.42,151.74-17.86,194.73c-3.5,20.16-6.87,43-9.42,61.18A27.65,27.65,0,0,1,550,812.91h0l11.18-95.47L568.2,595,565.93,521s-2.2-37.07,1.55-57.4,32.63-25.15,32.63-25.15Z"/><path class="cls-4" d="M600.11,637.43a2.15,2.15,0,0,1,0-.56l.15-1.63c.17-1.51.41-3.59.7-6.24.09-2.75.21-6.08.33-9.92-.07-3.87-.14-8.28-.37-13.15-.57-9.74-1.6-21.31-3.29-34.1s-3.86-26.8-6.48-41.46c-3.17-17.59-6.5-34.12-9.71-48.52l-.07-.29.23-.18,18.24-14.92.1.67-11.74-4.88-.36-.15.21-.32c3.74-5.84,6.72-10.47,8.8-13.73,1-1.52,1.79-2.73,2.37-3.61a9.28,9.28,0,0,1,.87-1.21,9.45,9.45,0,0,1-.71,1.3l-2.23,3.71-8.55,13.88-.16-.47,11.8,4.75.61.25-.51.42c-5.39,4.48-11.49,9.53-18.14,15l.17-.47c3.29,14.41,6.67,30.94,9.84,48.54,2.62,14.67,4.77,28.71,6.4,41.53s2.59,24.42,3.07,34.18c.18,4.89.2,9.31.21,13.19-.19,3.89-.32,7.23-.51,10-.38,2.64-.69,4.73-.9,6.23-.11.66-.2,1.19-.26,1.62A2.21,2.21,0,0,1,600.11,637.43Z"/><path class="cls-18" d="M666.28,420.54S684.79,531,683.7,570.23,675,722.11,675,722.11s-9.28,82.19,2.7,97.43,56.06,3.27,56.06,3.27l34.4-18.21s-12.87-157.9-12.32-192.19-14.46-105.87-11.73-122.2-8.09-36.53-13-46.16l-24.57-7.73Z"/><path class="cls-4" d="M683.87,629.68a2.31,2.31,0,0,1,.09-.61c.11-.45.23-1,.39-1.74.35-1.52.92-3.76,1.52-6.67,1.28-5.81,2.91-14.26,4.59-24.76s3.42-23,5.18-37,3.58-29.31,5.54-45.42c1-7.92,1.59-15.84-.3-23.1s-6.31-13.6-12.5-16.46l-1.21-.56,1.29-.36a40.89,40.89,0,0,0,13.34-6.63l-.09.65-25.51-32.7-7.07-9.2c-.78-1-1.38-1.83-1.84-2.44a5.31,5.31,0,0,1-.59-.87,5.81,5.81,0,0,1,.7.78l2,2.36c1.72,2.15,4.18,5.19,7.27,9l25.82,32.47.29.36-.38.29A41.53,41.53,0,0,1,688.73,474l.07-.93c6.54,3,11.17,9.7,13.09,17.09s1.37,15.56.36,23.51c-2,16.1-3.9,31.44-5.63,45.41s-3.63,26.49-5.42,37-3.52,18.93-4.92,24.72c-.67,2.9-1.3,5.13-1.72,6.64-.2.7-.36,1.27-.49,1.71A2.93,2.93,0,0,1,683.87,629.68Z"/><g class="cls-10"><path d="M733.58,652.45c-6.37,5.13-11.89,11.57-14.72,19.24s-2.69,16.67,1.54,23.66l.68,1.11c3.2-8.42,10.24-14.67,16-21.61a83.36,83.36,0,0,0,17.26-35.39C747.16,643.37,739.94,647.31,733.58,652.45Z"/></g><path class="cls-18" d="M772.65,606.88c1.34-12.81-4.4-102.57-8.13-120.68-7-34-33.38-42.15-33.38-42.15l-3.67,81.61,4.23,68.73-29.8,62.45L724,679.6S771.17,621.1,772.65,606.88Z"/><path class="cls-4" d="M736.41,459.38c.15.06-.62,2.32-1.75,6s-2.55,8.78-3.74,14.51-1.91,11-2.33,14.8-.61,6.19-.77,6.18-.21-2.39,0-6.25a108.12,108.12,0,0,1,6.1-29.47C735.26,461.49,736.28,459.33,736.41,459.38Z"/><path class="cls-13" d="M702.66,660.22s-4.26,8.31-10.49,25l-2,14.15L721,700.9V680.56l1.06-2.64Z"/><path class="cls-4" d="M755.86,637.43a5.41,5.41,0,0,1-.53.81c-.41.57-1,1.33-1.64,2.29-1.52,2-3.66,4.94-6.36,8.6l-23,30.74-.3.39-.36-.33c-7.59-6.87-16-14.53-25-22.71l-.29-.27.18-.35L712.4,630c6.66-12.66,13-24.8,18.85-35.87l-.06.27c-1.48-22.18-2.74-41.16-3.65-54.68-.4-6.66-.73-12-1-15.71-.09-1.76-.16-3.16-.21-4.18,0-.43,0-.78,0-1.07a1.28,1.28,0,0,1,0-.37s0,.12.07.37.07.64.12,1.07c.09,1,.21,2.41.37,4.18.3,3.73.72,9,1.25,15.7,1,13.5,2.4,32.46,4,54.61v.15l-.07.12-18.79,35.91-13.94,26.55-.11-.62,25,22.81-.66.06,23.32-30.51,6.56-8.46,1.75-2.2A4.75,4.75,0,0,1,755.86,637.43Z"/><path class="cls-4" d="M725.8,700.9c0,.15-2.36.29-6.17.34s-9.08,0-14.9-.29-11.07-.73-14.85-1.26-6.09-1.08-6.07-1.21,2.36.13,6.15.46,9,.67,14.83.94l14.85.6C723.45,700.63,725.8,700.75,725.8,700.9Z"/><g class="cls-10"><path d="M686.37,623.22c-.36,2.25-.73,4.5-1.09,6.74A295,295,0,0,0,704,497Z"/></g><g class="cls-10"><path d="M583.87,493c.73,44,7.48,90.54,17.52,133.37C601.65,581.54,593.81,537.75,583.87,493Z"/></g><g class="cls-10"><path d="M685.29,728.06a101.09,101.09,0,0,0,3.5,29.47c1.22,4.5,2.89,9.13,6.36,12.26,3.92,3.54,9.6,4.59,14.85,4s10.2-2.69,15.07-4.75c-.32,3.55-2.79,6.63-5.81,8.52a29.62,29.62,0,0,1-10,3.49c-5.82,1.19-12.35,1.87-17.3-1.42-3.58-2.37-5.66-6.41-7.14-10.44a58.37,58.37,0,0,1,.71-41.7"/></g><path class="cls-4" d="M675.15,575.29a6.35,6.35,0,0,1-2,.07,32.34,32.34,0,0,1-5.44-.74A37.19,37.19,0,0,1,641.09,552a32.29,32.29,0,0,1-1.6-5.24,6.49,6.49,0,0,1-.25-2c.19,0,.71,2.78,2.55,6.95a39,39,0,0,0,26.09,22.22C672.3,575,675.16,575.1,675.15,575.29Z"/><g class="cls-10"><path d="M658.53,570.71c-7.56-4-14-10.62-17-18.66l-.81-1.22c1,9.51,6.59,19.65,14.67,24.76s19.63,4.63,28.66,1.47C675.59,575.77,666.1,574.72,658.53,570.71Z"/></g><path class="cls-19" d="M670.37,428.36c-7.43,16.91-3.73,36.36-.37,54.52s6,38.06-3.06,54.15a13.79,13.79,0,0,0,10.86-8.17q0,5-.07,10c10.87-3.18,16.13-15.64,17.21-26.91s-.46-23,3.26-33.67c2.26-6.46,6.41-12.45,6.66-19.28.19-5.37-2.08-10.56-2.23-15.93-.22-7.82,4-15,6.51-22.4s2.71-16.94-3.54-21.66"/><path class="cls-20" d="M658.56,377.51c-.46-11.53-2.3-23.09-6.53-33.82S641.08,323.07,631.94,316c-8.72-6.71-19.09-8.52-29.28-4.43-.15.06-.46-.06-.36.07-9.72,5.07-10.85,19.47-11.3,28.8-.53,11.19-.56,22.39-.18,33.59.45,13.54.73,27.2,3.52,40.47,2.1,10.05,5.77,20,12.49,27.78s16.86,13,27.08,12c6.4-.62,12.69-3.87,16.17-9.27,2.85-4.43,3.64-9.82,4.36-15C656.85,412.6,659.27,395.07,658.56,377.51Z"/><g class="cls-10"><path d="M658.56,377.51c-.46-11.53-2.3-23.09-6.53-33.82S641.08,323.07,631.94,316c-8.72-6.71-19.09-8.52-29.28-4.43-.15.06-.46-.06-.36.07-9.72,5.07-10.85,19.47-11.3,28.8-.53,11.19-.56,22.39-.18,33.59.45,13.54.73,27.2,3.52,40.47,2.1,10.05,5.77,20,12.49,27.78s16.86,13,27.08,12c6.4-.62,12.69-3.87,16.17-9.27,2.85-4.43,3.64-9.82,4.36-15C656.85,412.6,659.27,395.07,658.56,377.51Z"/></g><path class="cls-13" d="M645.56,448.5c-17.3-4.08-21.52-4.37-21.73-19.59l-.26-19.36s-19.15-1-23.62-29.52c-2.22-14.19-4.15-37.12-2.91-56.12,1.12-17.11,18.89-47.27,35.93-45.43l46.81,22.77a10,10,0,0,1,9,10.19h0L685.1,422"/><path class="cls-4" d="M608,343.69a3.66,3.66,0,0,0,3.52,3.7,3.51,3.51,0,0,0,3.78-3.29,3.67,3.67,0,0,0-3.52-3.7A3.5,3.5,0,0,0,608,343.69Z"/><path class="cls-4" d="M602.09,337c.33.61,3.55-1,7.39-.19s6.18,3.6,6.71,3.17c.26-.19,0-1.23-1-2.49a9.23,9.23,0,0,0-5.23-3.18,9,9,0,0,0-6,.8C602.54,335.82,601.93,336.68,602.09,337Z"/><path class="cls-4" d="M645.78,343.28a3.66,3.66,0,0,0,3.52,3.7,3.49,3.49,0,0,0,3.77-3.29,3.65,3.65,0,0,0-3.51-3.7A3.49,3.49,0,0,0,645.78,343.28Z"/><path class="cls-4" d="M641.08,341c.62.38,2.88-2.7,7-3.88s7.74.09,8-.57c.15-.3-.59-1.09-2.2-1.71a10.58,10.58,0,0,0-6.61-.19,10.23,10.23,0,0,0-5.38,3.74C640.94,339.78,640.78,340.85,641.08,341Z"/><path class="cls-4" d="M626.39,366c0-.23-2.42-.65-6.39-1.17-1-.11-2-.31-2.12-1s.19-1.81.68-3c1-2.43,1.94-5,3-7.65,4.15-10.88,7.16-19.83,6.72-20s-4.17,8.53-8.32,19.42c-1,2.68-2,5.24-2.86,7.69-.38,1.14-1,2.43-.53,3.94a2.52,2.52,0,0,0,1.65,1.47,6.67,6.67,0,0,0,1.71.24C623.9,366.19,626.38,366.21,626.39,366Z"/><path class="cls-21" d="M623.57,409.83a72.58,72.58,0,0,0,38.22-10.1s-9.58,20.36-38.11,17.62Z"/><path class="cls-21" d="M627,375.56c2-2.93,4.9-4.88,7.56-5A4.49,4.49,0,0,1,639,373a7.1,7.1,0,0,1-.63,6.54,6,6,0,0,1-6,2.89c-2-.38-3.48-1.79-4.92-3.21a3.62,3.62,0,0,1-1-1.41,2.46,2.46,0,0,1,.31-2.07"/><path class="cls-4" d="M638,368.74c-.64,0-.66,4.23-4.32,7.25s-8.21,2.55-8.24,3.14c-.06.27,1,.84,2.93.89a10.63,10.63,0,0,0,6.88-2.38,9.27,9.27,0,0,0,3.35-6.08C638.74,369.77,638.26,368.71,638,368.74Z"/><path class="cls-4" d="M637.64,322.85c.49,1,4.35.14,9,.24s8.49,1,9,0c.23-.49-.52-1.42-2.12-2.31a15.07,15.07,0,0,0-6.84-1.66,14.92,14.92,0,0,0-6.88,1.51C638.19,321.44,637.43,322.36,637.64,322.85Z"/><path class="cls-4" d="M600.88,328.32c.87.9,4.23,0,8.28-.09s7.48.59,8.27-.35c.35-.45-.2-1.35-1.7-2.19a13.59,13.59,0,0,0-6.73-1.45,13.24,13.24,0,0,0-6.6,1.81C601,327,600.5,327.89,600.88,328.32Z"/><path class="cls-19" d="M711.45,432.34c-6.22-10.06,8,1.86.9-14.73-5.07-11.84-5-88.47-15.82-109.85s-23.55-30-36-33.41-21.87,1.2-27.52,6.25-7.57,19.74-7.57,19.74,30.15,6.7,40.3,23.89c11.66,19.75,14.49,29.68,14.49,29.68l3.77,10.8s-3.53,20.91-4.83,31.24.78,19.94,9.28,24.13l17.11,12.09"/><path class="cls-19" d="M626,300.47s-18.64-1.81-25,17.65c-2.88,8.81-5.08,34.24-5.08,34.24s-2.52-20.19-1.59-31.72,6.68-26.1,15.51-34.17c8.59-7.85,15.84-11.53,31.2-10.6a27.11,27.11,0,0,0-10,8.6C629,287.39,628.49,289.52,626,300.47Z"/><path class="cls-13" d="M680,355.41c.32-6.31,7.19-10.52,12.66-7.36,3,1.74,5.3,5.23,5,11.93-.74,17.87-18.53,13.44-18.54,12.93C679.13,372.59,679.61,362.8,680,355.41Z"/><path class="cls-21" d="M684.87,366.36c.08-.05.3.24.82.5A3.14,3.14,0,0,0,688,367c1.92-.61,3.63-3.54,3.85-6.76a10,10,0,0,0-.69-4.49,3.59,3.59,0,0,0-2.24-2.49,1.58,1.58,0,0,0-1.87.78c-.26.49-.16.85-.26.88s-.37-.32-.19-1.05a1.93,1.93,0,0,1,.74-1.09,2.42,2.42,0,0,1,1.74-.39,4.37,4.37,0,0,1,3.14,2.91,10.65,10.65,0,0,1,.88,5c-.27,3.6-2.25,6.89-4.86,7.53a3.31,3.31,0,0,1-2.83-.59C684.89,366.8,684.81,366.39,684.87,366.36Z"/><path class="cls-19" d="M694.66,377.77c.22.27,1.86-.49,4-2.88a22.52,22.52,0,0,0,5.17-12.53,22.93,22.93,0,0,0-1.17-9.62,31.42,31.42,0,0,0-5.5-9.47A74.06,74.06,0,0,0,689,335c-3-2.64-6.17-5.23-9.58-7.71A125.05,125.05,0,0,0,659,315.18c-6.66-3.13-12.74-5.14-17.46-7.42a39.85,39.85,0,0,1-10.29-6.6c-2.13-2-3.15-3.32-3.54-3.11s0,1.92,1.85,4.57a31.33,31.33,0,0,0,10.07,8.72c4.8,2.9,10.85,5.35,17,8.57a153.46,153.46,0,0,1,19.37,12c3.26,2.38,6.36,4.84,9.26,7.31a78.19,78.19,0,0,1,7.82,7.46,28.4,28.4,0,0,1,5.1,7.75,20.28,20.28,0,0,1,1.56,7.73,24.25,24.25,0,0,1-2.95,11.44C695.44,376.14,694.37,377.45,694.66,377.77Z"/><path class="cls-5" d="M687.4,378.57a3.52,3.52,0,0,0,.89-.41,17.41,17.41,0,0,0,2.34-1.52,21.94,21.94,0,0,0,6.29-8.08,22.38,22.38,0,0,0,1.53-15.05c-1.44-5.72-5.62-10.94-10.7-15.12a157,157,0,0,0-15.23-10.63c-4.83-3-9.28-5.58-13.07-7.63s-6.91-3.6-9.09-4.62c-1.08-.52-1.94-.9-2.52-1.14a3.45,3.45,0,0,0-.92-.33,24.28,24.28,0,0,0,3.24,1.87c2.12,1.14,5.17,2.8,8.9,4.93s8.12,4.75,12.89,7.82A171.49,171.49,0,0,1,687,339.26c5,4.12,9,9.12,10.42,14.52a21.88,21.88,0,0,1-1.25,14.45,22.8,22.8,0,0,1-5.84,8.06C688.53,377.84,687.34,378.46,687.4,378.57Z"/><path class="cls-5" d="M651.94,273.2c0-.11-2.29-.52-5.87.39a31.3,31.3,0,0,0-12.55,6.62,23.47,23.47,0,0,0-7.29,12.14,19.59,19.59,0,0,0-.53,4.29,3.74,3.74,0,0,0,.15,1.58c.21,0,.18-2.25,1.17-5.66a24.58,24.58,0,0,1,7.26-11.49,34.32,34.32,0,0,1,12-6.7C649.68,273.3,651.94,273.4,651.94,273.2Z"/><path class="cls-2" d="M697.19,370.63c-.07.07.83.83,2.07,2.51a18,18,0,0,1,3.3,8,17.27,17.27,0,0,1-2.94,12.23c-2.68,3.92-7.79,7.17-13.35,6.49a11.83,11.83,0,0,1-7.08-3.39,13.64,13.64,0,0,1-3.37-6.6,20.16,20.16,0,0,1,1.1-12.64,11.76,11.76,0,0,1,6.08-5.92,19.15,19.15,0,0,1,3.12-.8,2.18,2.18,0,0,0-.85-.07,8.65,8.65,0,0,0-2.43.45,11.85,11.85,0,0,0-6.64,6,20.66,20.66,0,0,0-1.42,13.23,14.75,14.75,0,0,0,3.6,7.15,12.82,12.82,0,0,0,7.75,3.75,14.31,14.31,0,0,0,8.43-1.67,16.92,16.92,0,0,0,5.93-5.36,17.83,17.83,0,0,0,2.87-13,17.38,17.38,0,0,0-3.75-8.17,15.18,15.18,0,0,0-1.71-1.75C697.46,370.76,697.22,370.6,697.19,370.63Z"/><path class="cls-22" d="M721.29,422.79c-1.75-9.56-4-19-5.92-28.52-4.19-20.86-1-42.68-5.23-63.55-4.64-23-19.2-44.61-40.48-54.58s-49-6.46-65,10.75c-8.21,8.82-12.95,20.41-15.35,32.21s-2.61,23.93-2.77,36c-.2,14.54.14,28.88,4.05,42.89,1.62,5.84,3.51,12.19,2.68,18.2-.52,3.71-2.23,7.19-2.59,10.92-.47,5,.59,9.86,4.48,13s4.46,3.93,10.12,4.95h0c7.37,8.88,20.43,10.54,31.88,9.1s22.67-5.28,34.2-4.85c6.7.25,13.25,1.94,19.92,2.62s14,.58,19.42-3.42C718.85,442.43,721.87,425.93,721.29,422.79Zm-31.11-52.6c-1.56,25.43-13.22,49.82-30.86,68.2-3.87,4-8.36,8-13.88,8.85-5.28.85-10.57-1.24-15.35-3.64-8.8-4.42-17.2-10.22-22.66-18.42-7.51-11.28-8.53-25.52-9.32-39.05l-3.24-55.24c-.5-8.55-.94-17.48,2.49-25.34,2.87-6.6,8.29-11.86,14.44-15.61a79.61,79.61,0,0,1,18.32-7.69c13.19,1.61,25.25,8.85,34.64,18.26C682.75,318.55,691.73,344.76,690.18,370.19Z"/><path class="cls-4" d="M704.41,336.81a6.69,6.69,0,0,1,.16,1.38c.06,1,.14,2.34.24,4,.17,3.45.37,8.44.39,14.62a169.14,169.14,0,0,1-1.26,21.67,97.13,97.13,0,0,1-6.75,25.72,89.25,89.25,0,0,1-6.48,12.2A91.17,91.17,0,0,1,683,426.63,85.64,85.64,0,0,1,666.64,441a80.06,80.06,0,0,1-12.81,7.08c-1.58.72-2.86,1.13-3.7,1.47a6.39,6.39,0,0,1-1.32.42,6.4,6.4,0,0,1,1.24-.62c.82-.4,2.07-.88,3.61-1.65a89.05,89.05,0,0,0,12.55-7.32,87.84,87.84,0,0,0,16-14.38,85.12,85.12,0,0,0,14-22.23A98.73,98.73,0,0,0,703,378.32a180.56,180.56,0,0,0,1.48-21.55c.08-6.16,0-11.15-.05-14.6,0-1.63,0-2.95,0-4A7.84,7.84,0,0,1,704.41,336.81Z"/><path class="cls-4" d="M640.33,448.5a8.12,8.12,0,0,1-2.12.05,20.59,20.59,0,0,1-2.48-.18,31.66,31.66,0,0,1-3.26-.49,46.67,46.67,0,0,1-8.26-2.33,50.54,50.54,0,0,1-17.57-11.38,48,48,0,0,1-5.51-6.59c-.73-1-1.26-2-1.77-2.78a21.78,21.78,0,0,1-1.18-2.19,7.81,7.81,0,0,1-.82-2c.19-.09,1.51,2.62,4.39,6.48a54,54,0,0,0,5.58,6.33,58.63,58.63,0,0,0,8.08,6.42,57.8,57.8,0,0,0,9.16,4.75,52.68,52.68,0,0,0,8,2.51C637.33,448.19,640.34,448.29,640.33,448.5Z"/><path class="cls-4" d="M632.83,274.12a3.68,3.68,0,0,1,1,0c.64.06,1.6.1,2.8.29a61.77,61.77,0,0,1,10.11,2.23,69.46,69.46,0,0,1,46.51,46.59,63.57,63.57,0,0,1,2.2,10.12c.19,1.2.23,2.16.29,2.8a3.33,3.33,0,0,1,0,1,31.78,31.78,0,0,1-.71-3.72,75.38,75.38,0,0,0-2.52-9.95,71.07,71.07,0,0,0-46-46.1,76.45,76.45,0,0,0-10-2.54A32.81,32.81,0,0,1,632.83,274.12Z"/><g class="cls-10"><path d="M703.77,379.86a92,92,0,0,1-31.57,55.3L662.75,444a63.93,63.93,0,0,0,41-64.18Z"/></g><g class="cls-10"><path d="M647.66,275.43c23.49,8.18,41.47,28.92,49.34,52.52-4.48-24.87-10.79-47.1-49.34-52.52"/></g><path class="cls-4" d="M586.45,360.5a2.8,2.8,0,0,1,.11.94c0,.75.05,1.64.08,2.72.05,2.35,0,5.76.18,10a73.48,73.48,0,0,0,1.81,14.57c1.26,5.38,3.61,11.08,4.82,17.49a32,32,0,0,1,.38,9.49c-.42,3.09-1.29,5.89-1.87,8.59a18.76,18.76,0,0,0-.53,7.65,16.14,16.14,0,0,0,2.55,6.16,17.35,17.35,0,0,0,7.46,6.15c2.15.89,3.47,1,3.44,1.14a3.59,3.59,0,0,1-1-.07,12.05,12.05,0,0,1-2.65-.69,17,17,0,0,1-7.92-6.1,16.71,16.71,0,0,1-2.81-6.43,19.44,19.44,0,0,1,.45-8c.56-2.74,1.41-5.56,1.78-8.5a31.34,31.34,0,0,0-.38-9.18c-1.17-6.25-3.5-12-4.73-17.45a69,69,0,0,1-1.6-14.78c-.05-4.22.08-7.63.15-10A26.84,26.84,0,0,1,586.45,360.5Z"/><path class="cls-6" d="M722.42,425.13s12.71-3.55,15.26-1.33a28.74,28.74,0,0,1,4.25,4.69s2.16-1.43,5.74-.14l5-2.41,10.84,7.24-.21,10.07s-2.36,1.86-4-1.16l-.59,9.88-4.44,16.3s-4.39,1-5.85-6.17a29.86,29.86,0,0,1,.21-13l-7.45,18s-4,1.2-5-2.63.7-14.24.7-14.24l-24-3.32"/><path class="cls-7" d="M728.1,448a5,5,0,0,1,1.61-.2,22.13,22.13,0,0,0,4.27-.66,8.81,8.81,0,0,0,5-3.4c1.25-1.81,1.34-5-.77-6.5s-5-1.35-7.42-1.65l-6.5-.63c-3.7-.39-6-.71-6-.86s2.32-.1,6,.1l6.52.41c1.23.09,2.5.14,3.87.31a8.74,8.74,0,0,1,4.12,1.46,5.21,5.21,0,0,1,2.05,4,6.39,6.39,0,0,1-1.11,4,9.29,9.29,0,0,1-5.66,3.58,17,17,0,0,1-4.45.35A4.6,4.6,0,0,1,728.1,448Z"/><path class="cls-7" d="M759.28,442.1c-.22.19-3-2.74-6.21-6.53s-5.63-7-5.4-7.22,3,2.73,6.22,6.53S759.51,441.9,759.28,442.1Z"/><path class="cls-7" d="M748.19,450.14c-.13-.05.23-1.27.08-3.3a11.26,11.26,0,0,0-.23-1.62,14.08,14.08,0,0,0-.62-1.77c-.51-1.35-1-2.73-1.57-4.18-2.17-5.95-4.15-10.66-3.93-10.78s2.76,4.43,4.93,10.41c.56,1.48,1.06,2.91,1.5,4.22a12.12,12.12,0,0,1,.56,1.93,9.29,9.29,0,0,1,.12,1.77C749,449,748.33,450.22,748.19,450.14Z"/><path class="cls-4" d="M865.3,957.59c0,.3-188.23.54-420.38.54s-420.43-.24-420.43-.54,188.2-.54,420.43-.54S865.3,957.29,865.3,957.59Z"/></g></g></svg>