<svg xmlns="http://www.w3.org/2000/svg" xmlns:xlink="http://www.w3.org/1999/xlink" viewBox="0 0 1920 1082.91"><defs><style>.cls-1{isolation:isolate;}.cls-2{fill:none;}.cls-11,.cls-3,.cls-38,.cls-70{fill:#b7d972;}.cls-3{opacity:0.61;}.cls-4,.cls-40,.cls-71,.cls-81,.cls-86{fill:#847d3d;}.cls-5{fill:#ffcb82;}.cls-6{fill:#e97f20;}.cls-7{fill:url(#未命名漸層_10);}.cls-10,.cls-8{opacity:0.44;}.cls-10,.cls-11,.cls-13,.cls-8,.cls-86{mix-blend-mode:screen;}.cls-10,.cls-9{fill:#cce7fe;}.cls-11{opacity:0.36;}.cls-12{fill:#edfdfc;}.cls-14{opacity:0.58;}.cls-14,.cls-21,.cls-28,.cls-29,.cls-32,.cls-33,.cls-34,.cls-35,.cls-36,.cls-40,.cls-41,.cls-47,.cls-58,.cls-64,.cls-81{mix-blend-mode:multiply;}.cls-15{fill:#f7c9cf;}.cls-16{fill:#f4a24f;}.cls-17{fill:#e6a748;}.cls-18,.cls-21{fill:#473b1e;}.cls-19{fill:#ffbf9f;}.cls-20{fill:#002a24;}.cls-21{opacity:0.65;}.cls-22{fill:#0762c8;}.cls-23{fill:#1d4289;}.cls-24{fill:#3f3f3f;}.cls-25{fill:#515151;}.cls-26{fill:#bfbebb;}.cls-27{fill:#f7f7f7;}.cls-28{fill:#c6c6c6;}.cls-29,.cls-58{fill:#ff4900;}.cls-29,.cls-47{opacity:0.68;}.cls-30{fill:url(#侹禖鍕譇谾蜸馯鳺艜9);}.cls-31{fill:url(#侹禖鍕譇谾蜸馯鳺艜11);}.cls-32{fill:url(#侹禖鍕譇谾蜸馯鳺艜10);}.cls-33{fill:url(#侹禖鍕譇谾蜸馯鳺艜10-2);}.cls-34{fill:url(#侹禖鍕譇谾蜸馯鳺艜10-3);}.cls-35{fill:url(#侹禖鍕譇谾蜸馯鳺艜10-4);}.cls-36{fill:url(#鍊踑臇_蜸馯鳺艜_3);}.cls-37{fill:url(#侹禖鍕譇谾蜸馯鳺艜10-5);}.cls-38,.cls-58{opacity:0.45;}.cls-39{fill:#de8335;}.cls-41{fill:#247894;opacity:0.39;}.cls-42{fill:#ffba94;}.cls-43{fill:#606060;}.cls-44{fill:#444;}.cls-45{fill:#c9c9c9;}.cls-46{fill:#e5e5e5;}.cls-47{fill:#ff682b;}.cls-48{fill:#71602d;}.cls-49{fill:url(#侹禖鍕譇谾蜸馯鳺艜7);}.cls-50{fill:url(#侹禖鍕譇谾蜸馯鳺艜11-2);}.cls-51{fill:url(#侹禖鍕譇谾蜸馯鳺艜11-3);}.cls-52{fill:#fff;}.cls-53{fill:url(#侹禖鍕譇谾蜸馯鳺艜7-2);}.cls-54{fill:#0863b5;}.cls-55{fill:#ace2f9;}.cls-56{fill:url(#侹禖鍕譇谾蜸馯鳺艜7-3);}.cls-57{fill:#ff916c;}.cls-59{fill:#383838;}.cls-60{fill:#0c5184;}.cls-61{fill:url(#未命名漸層_40);}.cls-62{fill:#032b3f;}.cls-63{fill:url(#未命名漸層_33);}.cls-64{opacity:0.14;fill:url(#侹禖鍕譇谾蜸馯鳺艜10-6);}.cls-65{fill:url(#未命名漸層_37);}.cls-66{fill:url(#未命名漸層_53);}.cls-67{fill:url(#未命名漸層_40-2);}.cls-68{fill:url(#未命名漸層_30);}.cls-69{fill:#3f19ff;}.cls-71{opacity:0.57;}.cls-72{fill:#9b0a3a;}.cls-73{fill:#44051d;}.cls-74{fill:#bf1657;}.cls-75{fill:#f4e4a2;}.cls-76{fill:#efba50;}.cls-77{fill:#f4c87a;}.cls-78{fill:url(#侹禖鍕譇谾蜸馯鳺艜7-4);}.cls-79{fill:#fc8a3d;}.cls-80{fill:#97f0ff;}.cls-81{opacity:0.49;}.cls-82{opacity:0.85;fill:url(#侹禖鍕譇谾蜸馯鳺艜11-4);}.cls-83{fill:url(#侹禖鍕譇谾蜸馯鳺艜7-5);}.cls-84{fill:url(#侹禖鍕譇谾蜸馯鳺艜11-5);}.cls-85{fill:#999;}.cls-86{opacity:0.22;}.cls-87{fill:#dbdbdb;}.cls-88{fill:url(#侹禖鍕譇谾蜸馯鳺艜7-6);}.cls-89{fill:url(#侹禖鍕譇谾蜸馯鳺艜7-7);}.cls-90{fill:url(#侹禖鍕譇谾蜸馯鳺艜7-8);}.cls-91{fill:url(#侹禖鍕譇谾蜸馯鳺艜8);}.cls-92{fill:url(#侹禖鍕譇谾蜸馯鳺艜9-2);}.cls-93{fill:url(#侹禖鍕譇谾蜸馯鳺艜8-2);}.cls-94{fill:url(#侹禖鍕譇谾蜸馯鳺艜9-3);}.cls-95{fill:url(#侹禖鍕譇谾蜸馯鳺艜9-4);}.cls-96{fill:url(#侹禖鍕譇谾蜸馯鳺艜11-6);}.cls-97{fill:url(#侹禖鍕譇谾蜸馯鳺艜9-5);}.cls-98{fill:url(#侹禖鍕譇谾蜸馯鳺艜8-3);}.cls-99{fill:url(#侹禖鍕譇谾蜸馯鳺艜9-6);}.cls-100{fill:url(#侹禖鍕譇谾蜸馯鳺艜8-4);}</style><linearGradient id="未命名漸層_10" x1="962.5" y1="952.85" x2="962.5" y2="799.13" gradientUnits="userSpaceOnUse"><stop offset="0" stop-color="#cce0f4"/><stop offset="0.13" stop-color="#c3dbf2"/><stop offset="0.35" stop-color="#a9ceee"/><stop offset="0.57" stop-color="#8bbee8"/><stop offset="0.87" stop-color="#009cde"/><stop offset="0.99" stop-color="#489fdf"/></linearGradient><linearGradient id="侹禖鍕譇谾蜸馯鳺艜9" x1="1832.15" y1="1043.14" x2="1920" y2="1043.14" gradientUnits="userSpaceOnUse"><stop offset="0" stop-color="#53cd9f"/><stop offset="1" stop-color="#0d7a5c"/></linearGradient><linearGradient id="侹禖鍕譇谾蜸馯鳺艜11" x1="1751.25" y1="1049.92" x2="1920" y2="1049.92" gradientUnits="userSpaceOnUse"><stop offset="0" stop-color="#00503e"/><stop offset="1" stop-color="#023222"/></linearGradient><linearGradient id="侹禖鍕譇谾蜸馯鳺艜10" x1="1766.55" y1="995.05" x2="1759.38" y2="1008.98" gradientUnits="userSpaceOnUse"><stop offset="0" stop-color="#c7a44f"/><stop offset="1" stop-color="#609a3f"/></linearGradient><linearGradient id="侹禖鍕譇谾蜸馯鳺艜10-2" x1="1763.09" y1="993.27" x2="1755.92" y2="1007.21" xlink:href="#侹禖鍕譇谾蜸馯鳺艜10"/><linearGradient id="侹禖鍕譇谾蜸馯鳺艜10-3" x1="1762.21" y1="992.82" x2="1755.05" y2="1006.76" xlink:href="#侹禖鍕譇谾蜸馯鳺艜10"/><linearGradient id="侹禖鍕譇谾蜸馯鳺艜10-4" x1="1765.67" y1="994.6" x2="1758.51" y2="1008.54" xlink:href="#侹禖鍕譇谾蜸馯鳺艜10"/><linearGradient id="鍊踑臇_蜸馯鳺艜_3" x1="1781.1" y1="669.38" x2="1783.03" y2="669.38" gradientTransform="translate(-115.43 713.55) rotate(-11.63)" gradientUnits="userSpaceOnUse"><stop offset="0" stop-color="#bce3f1"/><stop offset="1" stop-color="#d0f7ff"/></linearGradient><linearGradient id="侹禖鍕譇谾蜸馯鳺艜10-5" x1="1738.54" y1="1013.75" x2="1783.71" y2="1013.75" xlink:href="#侹禖鍕譇谾蜸馯鳺艜10"/><linearGradient id="侹禖鍕譇谾蜸馯鳺艜7" x1="966.75" y1="880.55" x2="1050.05" y2="880.55" gradientTransform="translate(390.6 -307.12) rotate(21.39)" gradientUnits="userSpaceOnUse"><stop offset="0" stop-color="#fb9a2b"/><stop offset="1" stop-color="#e65925"/></linearGradient><linearGradient id="侹禖鍕譇谾蜸馯鳺艜11-2" x1="981.8" y1="876.43" x2="1032.86" y2="876.43" xlink:href="#侹禖鍕譇谾蜸馯鳺艜11"/><linearGradient id="侹禖鍕譇谾蜸馯鳺艜11-3" x1="990.88" y1="899.32" x2="1014.46" y2="899.32" xlink:href="#侹禖鍕譇谾蜸馯鳺艜11"/><linearGradient id="侹禖鍕譇谾蜸馯鳺艜7-2" x1="977.74" y1="879.2" x2="1041.05" y2="879.2" gradientTransform="translate(1032.05 -459.22) rotate(49.91)" xlink:href="#侹禖鍕譇谾蜸馯鳺艜7"/><linearGradient id="侹禖鍕譇谾蜸馯鳺艜7-3" x1="1253.03" y1="825.93" x2="1302.8" y2="825.93" gradientTransform="matrix(1, 0, 0, 1, 0, 0)" xlink:href="#侹禖鍕譇谾蜸馯鳺艜7"/><linearGradient id="未命名漸層_40" x1="1429.31" y1="784.54" x2="1574.05" y2="784.54" gradientUnits="userSpaceOnUse"><stop offset="0" stop-color="#0762c8"/><stop offset="1" stop-color="#1d4289"/></linearGradient><linearGradient id="未命名漸層_33" x1="1486" y1="795.17" x2="1711.16" y2="795.17" xlink:href="#未命名漸層_40"/><linearGradient id="侹禖鍕譇谾蜸馯鳺艜10-6" x1="1629.42" y1="814.59" x2="1695.79" y2="814.59" xlink:href="#侹禖鍕譇谾蜸馯鳺艜10"/><linearGradient id="未命名漸層_37" x1="1507.38" y1="785.6" x2="1717.61" y2="785.6" gradientUnits="userSpaceOnUse"><stop offset="0" stop-color="#0762c8"/><stop offset="1" stop-color="#1d4289"/></linearGradient><linearGradient id="未命名漸層_53" x1="1532.55" y1="789.09" x2="1670.24" y2="789.09" gradientUnits="userSpaceOnUse"><stop offset="0" stop-color="#fff"/><stop offset="1" stop-color="#e1e1d9"/></linearGradient><linearGradient id="未命名漸層_40-2" x1="1617.25" y1="795.46" x2="1719.63" y2="795.46" xlink:href="#未命名漸層_40"/><linearGradient id="未命名漸層_30" x1="1574.05" y1="808.7" x2="1690.67" y2="808.7" xlink:href="#未命名漸層_40"/><linearGradient id="侹禖鍕譇谾蜸馯鳺艜7-4" x1="1403.06" y1="967.42" x2="1443.85" y2="967.42" gradientTransform="matrix(1, 0, 0, 1, 0, 0)" xlink:href="#侹禖鍕譇谾蜸馯鳺艜7"/><linearGradient id="侹禖鍕譇谾蜸馯鳺艜11-4" x1="1455.27" y1="959.26" x2="1547.49" y2="959.26" xlink:href="#侹禖鍕譇谾蜸馯鳺艜11"/><linearGradient id="侹禖鍕譇谾蜸馯鳺艜7-5" x1="1453.09" y1="919.53" x2="1468.14" y2="919.53" gradientTransform="matrix(1, 0, 0, 1, 0, 0)" xlink:href="#侹禖鍕譇谾蜸馯鳺艜7"/><linearGradient id="侹禖鍕譇谾蜸馯鳺艜11-5" x1="1475.96" y1="959.29" x2="1547.49" y2="959.29" xlink:href="#侹禖鍕譇谾蜸馯鳺艜11"/><linearGradient id="侹禖鍕譇谾蜸馯鳺艜7-6" x1="1145.76" y1="1055.75" x2="1171.81" y2="1055.75" gradientTransform="matrix(1, 0, 0, 1, 0, 0)" xlink:href="#侹禖鍕譇谾蜸馯鳺艜7"/><linearGradient id="侹禖鍕譇谾蜸馯鳺艜7-7" x1="1153.67" y1="1056.57" x2="1172" y2="1056.57" gradientTransform="matrix(1, 0, 0, 1, 0, 0)" xlink:href="#侹禖鍕譇谾蜸馯鳺艜7"/><linearGradient id="侹禖鍕譇谾蜸馯鳺艜7-8" x1="1160.39" y1="1057.45" x2="1172" y2="1057.45" gradientTransform="matrix(1, 0, 0, 1, 0, 0)" xlink:href="#侹禖鍕譇谾蜸馯鳺艜7"/><linearGradient id="侹禖鍕譇谾蜸馯鳺艜8" x1="1225.74" y1="1057.81" x2="1239.32" y2="1057.81" gradientUnits="userSpaceOnUse"><stop offset="0" stop-color="#c9cd55"/><stop offset="0.51" stop-color="#659c52"/><stop offset="1" stop-color="#287f50"/></linearGradient><linearGradient id="侹禖鍕譇谾蜸馯鳺艜9-2" x1="1254.15" y1="1047.58" x2="1239.94" y2="1056.98" xlink:href="#侹禖鍕譇谾蜸馯鳺艜9"/><linearGradient id="侹禖鍕譇谾蜸馯鳺艜8-2" x1="1230.64" y1="1067.8" x2="1246.28" y2="1067.8" xlink:href="#侹禖鍕譇谾蜸馯鳺艜8"/><linearGradient id="侹禖鍕譇谾蜸馯鳺艜9-3" x1="1251.07" y1="1061.93" x2="1227.23" y2="1079.37" xlink:href="#侹禖鍕譇谾蜸馯鳺艜9"/><linearGradient id="侹禖鍕譇谾蜸馯鳺艜9-4" x1="1240.72" y1="1047.78" x2="1216.88" y2="1065.22" xlink:href="#侹禖鍕譇谾蜸馯鳺艜9"/><linearGradient id="侹禖鍕譇谾蜸馯鳺艜11-6" x1="1201.64" y1="1064.17" x2="1239.21" y2="1064.17" xlink:href="#侹禖鍕譇谾蜸馯鳺艜11"/><linearGradient id="侹禖鍕譇谾蜸馯鳺艜9-5" x1="1247.27" y1="1056.73" x2="1223.43" y2="1074.18" xlink:href="#侹禖鍕譇谾蜸馯鳺艜9"/><linearGradient id="侹禖鍕譇谾蜸馯鳺艜8-3" x1="1204.34" y1="1062.83" x2="1235.07" y2="1062.83" xlink:href="#侹禖鍕譇谾蜸馯鳺艜8"/><linearGradient id="侹禖鍕譇谾蜸馯鳺艜9-6" x1="1242.44" y1="1050.13" x2="1218.6" y2="1067.57" xlink:href="#侹禖鍕譇谾蜸馯鳺艜9"/><linearGradient id="侹禖鍕譇谾蜸馯鳺艜8-4" x1="1234.38" y1="1075.23" x2="1253.65" y2="1075.23" xlink:href="#侹禖鍕譇谾蜸馯鳺艜8"/></defs><title>layer-2</title><g class="cls-1"><g id="圖層_2" data-name="圖層 2"><g id="圖層_1-2" data-name="圖層 1"><rect class="cls-2" width="1920" height="1082.89"/><polygon class="cls-3" points="469.39 1082.89 5 752.55 5 1082.89 469.39 1082.89"/><path class="cls-3" d="M904.08,817.71c207.15,0,407.4-50.65,531.7-107.63C1538.55,663,1785.14,590.89,1920,635.9v447H898.74V817.71Z"/><path class="cls-4" d="M1507.62,719.76a24.72,24.72,0,0,1,3.43-11.91h0a31,31,0,0,1,3.55-5.09h0c.28.58,7.37,7.47,6.94,18.6-.18,4.82-1.77,14.42-6.37,15.34v7.16h-1.87v-7.4C1510.07,735,1507.62,728.06,1507.62,719.76Z"/><path class="cls-4" d="M1530.59,714.51a31.32,31.32,0,0,1,4.33-15.06h0a38.73,38.73,0,0,1,4.5-6.44h0c.35.73,9.33,9.45,8.78,23.52-.23,6.1-2.24,18.25-8.06,19.41v9h-2.36v-9.35C1533.69,733.76,1530.59,725,1530.59,714.51Z"/><path class="cls-4" d="M898.74,817.71h5.34a1386.62,1386.62,0,0,0,200.63-15c50.58-7.42,101.89-12.5,153.52-15.25,43.12-2.29,85.71-5,124.89-8.21v-5.34c-4.86-2-8.53-11.63-8.53-23.14,0-6.42,2.56-12.24,5.14-16.49a43.34,43.34,0,0,1,5.34-7c.42.8,11.08,10.35,10.43,25.76-.27,6.68-2.66,20-9.57,21.25V779c66.58-5.51,123-12.46,155.13-21.19,43.92-12,107.67-16.24,172.43-16.72v-1.54c-2.43-1-4.27-5.82-4.27-11.57a16.21,16.21,0,0,1,2.57-8.25,21.83,21.83,0,0,1,2.67-3.53c.21.4,5.54,5.18,5.21,12.88-.13,3.35-1.32,10-4.78,10.63v1.37q6,0,12.06,0v-8.31c-4.13-1.75-7.26-9.9-7.26-19.69a27.48,27.48,0,0,1,4.38-14,35.77,35.77,0,0,1,4.54-6c.36.68,9.42,8.8,8.87,21.92-.23,5.69-2.26,17-8.14,18.09v8q10.42,0,20.82.15V736c-4.13-1.75-7.26-9.9-7.26-19.7a27.57,27.57,0,0,1,4.38-14,35.77,35.77,0,0,1,4.54-6c.36.68,9.43,8.8,8.88,21.92-.24,5.69-2.27,17-8.15,18.09v5c65.14.91,127.44,4.92,167.44,8V880.94L898.74,866.12Z"/><path class="cls-4" d="M1259.83,756.55a24.79,24.79,0,0,1,3.42-11.9h0a31.33,31.33,0,0,1,3.55-5.09h0c.29.58,7.38,7.47,7,18.59-.18,4.83-1.77,14.43-6.37,15.34v7.16h-1.87v-7.39C1262.27,771.77,1259.83,764.86,1259.83,756.55Z"/><rect class="cls-5" x="5" y="916.24" width="1915" height="166.65"/><path class="cls-6" d="M357.8,940.83c94.07,1.44,166.45,32.24,283,32.08,102.91-.13,211.1-24.67,319.66-25.7s217.69,21.47,320.67,19.88c116.31-1.79,217.43-37.33,311.69-39.4,178.11-3.92,310.28,24.57,327.17,22.08V876.16c-221.52-11.25-562.54-80.77-843.83-44C750.35,874.76,291.76,921.3,5,904.89v30.27C56.58,958.4,198.47,938.39,357.8,940.83Z"/><path class="cls-7" d="M5,925.34c9.42,9.09,134.56,4.48,316.25,6.72,94.07,1.17,203,20.91,319.55,20.79,102.91-.11,211.1-20,319.66-20.79s217.69,17.36,320.67,16.08c116.31-1.45,224.47-22.42,318.73-24.1,178.14-3.16,303.28,12.1,320.14,10.08v-135H5Z"/><g class="cls-8"><path class="cls-9" d="M1804.33,820.05c-2.46-.23-3.93,1.76-2.14,2.9,5.76,3.64,14.83,3.65,20.59,0,1.79-1.14.32-3.13-2.14-2.9A87.12,87.12,0,0,1,1804.33,820.05Z"/><path class="cls-9" d="M1853.5,819c-3.94-.37-6.29,2.82-3.42,4.64,9.21,5.83,23.73,5.84,32.94,0,2.88-1.82.52-5-3.41-4.64A138.87,138.87,0,0,1,1853.5,819Z"/><path class="cls-9" d="M1217.81,820.12c-3.73-.36-6,2.67-3.24,4.39,8.73,5.53,22.49,5.53,31.23,0,2.72-1.72.49-4.75-3.24-4.39A132.88,132.88,0,0,1,1217.81,820.12Z"/><path class="cls-9" d="M1137.43,808.76c-2.8-.27-4.47,2-2.43,3.31,6.56,4.15,16.9,4.15,23.46,0,2-1.3.37-3.58-2.43-3.31A99.63,99.63,0,0,1,1137.43,808.76Z"/><path class="cls-9" d="M1168.27,827.23c-2.12-.2-3.38,1.52-1.84,2.49a17.83,17.83,0,0,0,17.7,0c1.55-1,.28-2.69-1.83-2.49A74.73,74.73,0,0,1,1168.27,827.23Z"/><path class="cls-9" d="M1100.05,834.57c-1.56-.14-2.48,1.12-1.35,1.84a13.15,13.15,0,0,0,13,0c1.14-.72.21-2-1.35-1.84A53.91,53.91,0,0,1,1100.05,834.57Z"/><path class="cls-9" d="M1170.06,807c-1.5-.1-2.4.74-1.3,1.22a17.81,17.81,0,0,0,12.58,0c1.1-.48.2-1.32-1.31-1.22A79,79,0,0,1,1170.06,807Z"/><path class="cls-9" d="M1187.78,810.78c-1.51-.1-2.41.74-1.31,1.22a17.81,17.81,0,0,0,12.58,0c1.1-.48.2-1.32-1.3-1.22A79,79,0,0,1,1187.78,810.78Z"/><path class="cls-9" d="M1187.78,807c-1.51-.1-2.41.74-1.31,1.22a17.81,17.81,0,0,0,12.58,0c1.1-.48.2-1.32-1.3-1.22A79,79,0,0,1,1187.78,807Z"/><path class="cls-9" d="M1204.42,808.15c-1.51-.1-2.41.74-1.31,1.22a17.81,17.81,0,0,0,12.58,0c1.1-.48.2-1.32-1.3-1.22A79,79,0,0,1,1204.42,808.15Z"/><path class="cls-9" d="M1222.37,805.77c-1.5-.1-2.4.74-1.3,1.22a17.81,17.81,0,0,0,12.58,0c1.1-.48.2-1.32-1.31-1.22A79,79,0,0,1,1222.37,805.77Z"/></g><path class="cls-10" d="M1815.42,809c-2.46-.23-3.93,1.76-2.14,2.9,5.75,3.64,14.83,3.65,20.59,0,1.79-1.14.32-3.13-2.14-2.9A87.12,87.12,0,0,1,1815.42,809Z"/><path class="cls-10" d="M1771.58,819c-2.91-.28-4.65,2.08-2.52,3.42,6.79,4.31,17.51,4.31,24.31,0,2.12-1.34.38-3.7-2.52-3.42A103.37,103.37,0,0,1,1771.58,819Z"/><path class="cls-10" d="M1403.77,836.24c-1.57-.15-2.5,1.12-1.36,1.84a13.2,13.2,0,0,0,13.1,0c1.14-.72.2-2-1.36-1.84A56.24,56.24,0,0,1,1403.77,836.24Z"/><path class="cls-10" d="M1429.64,828.76c-2-.2-3.2,1.43-1.74,2.35a16.85,16.85,0,0,0,16.72,0c1.46-.92.26-2.55-1.74-2.35A71.41,71.41,0,0,1,1429.64,828.76Z"/><path class="cls-10" d="M1455.61,814.68c-2-.2-3.19,1.43-1.73,2.35a16.83,16.83,0,0,0,16.71,0c1.46-.92.27-2.55-1.73-2.35A71.52,71.52,0,0,1,1455.61,814.68Z"/><path class="cls-10" d="M1413.13,817c-2.16-.21-3.45,1.55-1.87,2.54,5,3.2,13,3.2,18.06,0,1.58-1,.29-2.75-1.87-2.54A76.12,76.12,0,0,1,1413.13,817Z"/><path class="cls-10" d="M933.2,819c-2.64-.25-4.21,1.89-2.29,3.11,6.17,3.91,15.91,3.91,22.08,0,1.93-1.22.35-3.36-2.29-3.11A93,93,0,0,1,933.2,819Z"/><path class="cls-10" d="M776.85,816.88c-2.41-.23-3.85,1.72-2.09,2.84,5.64,3.57,14.54,3.57,20.18,0,1.76-1.12.32-3.07-2.09-2.84A85.52,85.52,0,0,1,776.85,816.88Z"/><path class="cls-10" d="M802.55,811.71c-2.49-.24-4,1.78-2.16,2.94,5.83,3.68,15,3.69,20.85,0,1.82-1.16.33-3.18-2.16-2.94A87.77,87.77,0,0,1,802.55,811.71Z"/><path class="cls-10" d="M924.42,843.37c-2-.19-3.2,1.44-1.74,2.36a16.93,16.93,0,0,0,16.8,0c1.46-.92.26-2.55-1.75-2.36A72.17,72.17,0,0,1,924.42,843.37Z"/><path class="cls-10" d="M762.29,809.4c-2-.19-3.2,1.44-1.74,2.37a17,17,0,0,0,16.8,0c1.46-.93.26-2.56-1.74-2.37A70.56,70.56,0,0,1,762.29,809.4Z"/><path class="cls-10" d="M738.21,818.4c-2.41-.23-3.85,1.73-2.09,2.84,5.64,3.57,14.54,3.58,20.18,0,1.76-1.11.32-3.07-2.09-2.84A85.52,85.52,0,0,1,738.21,818.4Z"/><path class="cls-10" d="M723.65,810.92c-2-.19-3.2,1.44-1.74,2.37a17,17,0,0,0,16.8,0c1.46-.93.26-2.56-1.74-2.37A70.56,70.56,0,0,1,723.65,810.92Z"/><path class="cls-10" d="M694.36,813.63c-2-.19-3.16,1.41-1.71,2.32a16.64,16.64,0,0,0,16.53,0c1.45-.91.26-2.51-1.71-2.32A70,70,0,0,1,694.36,813.63Z"/><path class="cls-10" d="M682.43,807.5c-1.64-.15-2.62,1.18-1.42,1.94a13.87,13.87,0,0,0,13.76,0c1.2-.76.21-2.09-1.43-1.94A58.47,58.47,0,0,1,682.43,807.5Z"/><path class="cls-10" d="M950.55,809.92c-2-.19-3.2,1.44-1.74,2.37a17,17,0,0,0,16.8,0c1.46-.93.26-2.56-1.75-2.37A70.46,70.46,0,0,1,950.55,809.92Z"/><path class="cls-10" d="M902.73,815.23c-2.56-.24-4.09,1.83-2.22,3,6,3.78,15.42,3.79,21.42,0,1.86-1.19.33-3.26-2.23-3A90.76,90.76,0,0,1,902.73,815.23Z"/><path class="cls-11" d="M1098.54,891C773.66,925.34,292.16,911.4,5,897.94v28.34c22.07,7.12,145.51,3.67,316.25,5.78,94.07,1.17,203,20.91,319.55,20.79,102.91-.11,211.1-20,319.66-20.79s217.69,17.36,320.67,16.08c116.31-1.45,224.47-22.42,318.73-24.1,178.14-3.16,303.28,12.1,320.14,10.08V874.58C1698.48,865.47,1379.84,861.23,1098.54,891Z"/><path class="cls-12" d="M1920,933.39c-11.46-1.22-55.26-16.45-126.29-12-8.1.48-14.66.89-23.86.71-15.66-.09-26.68-2.68-39.72-3.55-19.61-1.19-45.12,1.65-63.29,8.25L1667,928c12.59,1.31,50,1.64,59.29,1,19.54-1,32.56-6.3,67.15-1,32.87,4.84,85.6,11,118.53,8a39.34,39.34,0,0,0,8-1.37Z"/><g class="cls-13"><path class="cls-12" d="M1497.59,947.53c8.27-3.11,22.85-5.59,31.53-6.49,9.19-.86,9.78-.81,21.3,0,20.55,1.61,29.55-4.7,52.29-9.8,14.68-3.32,23.81-5.27,42.36-5.7a125,125,0,0,1,21.77,1.27L1667,928c-10.54,4.74-28.78,9.68-41.27,12-9.08,1.71-27.43,3.29-31.89,3.42-7.3.29-13.43-.26-21.58.28-19.92,1.35-25.21,7.48-42.24,8.18-10.66.42-22.24,0-32.39-3.16Z"/></g><path class="cls-12" d="M1497.59,947.53c-4.43-.55-8.84-1-13.25-1.4-76.4-9.16-90.89-14.26-145-17.54-50.34-2.57-56.65,1.18-106.84,5-37.13,3.32-37.73.81-92.64,9.19-18.31,2.87-34.3,5.13-46,6.75a126.67,126.67,0,0,1-37.09-.38c-27.38-4.32-75.18-10.51-101.82-11.61-44.61-2.11-38.49-3.28-68-9-.63-.09-4.37-.72-8.07-1.12-14.8-1.72-44.49,0-60.58,3.47v1.22c16.15,3.88,44.65,5.79,59.93,6,19.58.52,32.34-3.32,67.7,5.78,39.66,9.91,85.06,17.14,125.75,10.07a19,19,0,0,1,5.21-.18c25.24,2.69,52.55,1.06,77.53-2.13,36.57-4.57,52.28-10.68,78.51-14.1,35.09-4.27,53.75-1.84,66-1.22,80.62,7.25,137.87,20,198.69,12.45Z"/><path class="cls-12" d="M474.44,926.42c-13.51,1.05-28.25,3.75-46.55,2.88-21.15-.87-20.45-4.82-61.53-4-15.72.26-26.35,1-30.15-.12v1.68c6.57,6,34.38,8.75,44.74,9.23,26,1.37,32.32-4.07,62.43-2.68,11.68.53,50.83,6.32,93.14,3.92,14.08-.73,33-2.47,46.58-5.2l0-1.22c-17.55-3.72-43.84-5.75-62.1-6.08C507.73,924.54,480.93,925.88,474.44,926.42Z"/><g class="cls-14"><path class="cls-15" d="M1544.61,995.92h0Z"/><path class="cls-15" d="M1544.55,995.93h0Z"/><path class="cls-15" d="M1544.9,995.91h0Z"/><path class="cls-15" d="M1544.44,995.93Z"/><path class="cls-15" d="M932,1031h0Z"/><path class="cls-15" d="M1544.84,995.91h0Z"/><path class="cls-15" d="M932,1031h0Z"/><polygon class="cls-15" points="1544.94 995.9 1544.93 995.9 1544.94 995.9 1544.94 995.9"/><path class="cls-16" d="M1920,964.15c-31.18,2.15-68.08,5.23-111.74,10.06-144,16-132.6,14.52-263.31,21.69h-.53l-50.11,2.86c-47.1,2.83-116.94,9-184.39,9.79-53.73,1.06-115.07-1.89-167.91-2.9-117.53-2.13-159.73,3.91-268.78.82-44.7-1.34-89.35-3.9-134.19-5.2-96.81-2.91-153.27,2.87-268.75-2.38-118.94-5.59-90.23-7.57-268.53-8.9C138.48,989.49,60,985.66,5,981.27v2.51c48.33,3.86,108,7.06,129.34,8.05,84.51,4,128.1-.32,268.08,9.53l33.43,2.34c14,.87,57.87,4.26,101.17,5.49,62.36,1.88,88.79,0,151.39,3.92,49.27,3.4-126.5-10.23,243.62,17.87h0l8.65-.11c70.59-1.15,119.45-6.18,200.49-8.85,47-1.42,111.82-2,152-3.43,111.4-4,145.35-9.79,251.84-11.37,127.49-.48,167.76-1.57,268.57-11.42,29.65-2.86,68.15-6.06,106.43-10.17Zm-375.47,31.78h0Zm-.11,0Zm.37,0h0Zm.16,0Zm0,0h0Z"/><path class="cls-15" d="M1544.9,995.91h0Z"/><path class="cls-15" d="M1545,995.9Z"/><path class="cls-15" d="M1544.7,995.92h0Z"/><path class="cls-15" d="M1544.91,995.91h0Z"/></g><path class="cls-17" d="M960.49,1041.85c0-31.82-257.52-57.62-575.18-57.62-145.8,0-278.93,5.44-380.31,14.39v84.27H789C894.87,1072.44,960.49,1057.91,960.49,1041.85Z"/><path class="cls-18" d="M1755.59,860.65s-5.73-2.28-8.89,8.53,3.82,30.86-8.18,35.19,4.72,21.34,16,22.56S1778,904.84,1778.06,893,1765,862.4,1755.59,860.65Z"/><path class="cls-19" d="M1829.67,980.64a4.89,4.89,0,0,1-2.72,4.81c-3.15,1.64-6,3.28-6,5.16s19.55,1.17,19.55,0-3.7-11.14-3.7-11.14Z"/><path class="cls-20" d="M1840.25,986.84s.25,1.63.88,4.4a12.78,12.78,0,0,1,0,5.31s-26.29-.36-27.3-1.33-.29-4.19,0-4.46,3.66-1,5.43-2,7.84-5,9.8-4.65,2.78,1.93,6.51,2.36S1839.36,986,1840.25,986.84Z"/><path class="cls-12" d="M1813.83,995.22c1,1,27.3,1.33,27.3,1.33a12.63,12.63,0,0,0,.24-3.77c-13.84,1.85-27.54-2-27.54-2C1813.54,991,1812.82,994.26,1813.83,995.22Z"/><path class="cls-21" d="M1841.38,993h0c-.08-1.14-.07-.74-1.13-6.14-.6-.57-.82-.37-2-.31-2.46,1.16-5.16,2.77-6.27,3.38-1.88,1-5.47,1.78-5.77,2.05a6.07,6.07,0,0,0-.55,2.43,3.28,3.28,0,0,0,.35,1.8c7.87.27,14.72.35,15.17.36A12.12,12.12,0,0,0,1841.38,993Z"/><path class="cls-22" d="M1778.63,896.06s6.07,29.45,3.71,36.58-5.82,19.85-5.82,19.85l5.33,5.63s12.77-13.6,17.11-25.48-.74-33.56-.74-33.56Z"/><path class="cls-23" d="M1783.83,877.12c.13,0,14.13-8.73,38.14-11.24,12.89-1.34,24,9.58,24.08,23.56.06,15.62-.71,32.84-4.31,34.28-6.7,2.68-44-12.06-56.18-15.27S1781.11,881.91,1783.83,877.12Z"/><path class="cls-23" d="M1779.76,873.26c.56-5.83,8.1-14.24,13.18-8.75,1.23,1.32,1.84,3.56,2.1,6.29.82,8.63-1.81,22.19.45,27.47,3,7-2.24,10.18-9.93,10.18S1777,902.38,1779.76,873.26Z"/><path class="cls-24" d="M1838.41,870.1s-4.93,21.12-11.05,40.74c-2.58,8.28-7.64,16.77-7,20.24,3.06,16.31,4.51,47.92,6.62,50.2s10.66,0,10.66,0-2.23-45.79,1.74-50.07c1.92-2.08,8.76-12.66,16-20.72s2.45-33.81-.12-36.58C1851.06,869.35,1838.41,870.1,1838.41,870.1Z"/><path class="cls-19" d="M1843.72,978.59s.43,6.41-2.72,8-6,3.29-6,5.16,19.55,1.18,19.55,0-3.69-11.13-3.69-11.13Z"/><path class="cls-20" d="M1854.3,988s.25,1.62.88,4.4a12.58,12.58,0,0,1,0,5.31s-26.29-.36-27.3-1.33-.28-4.19,0-4.46,3.67-1,5.44-2.05,7.83-4.95,9.79-4.65,2.78,1.93,6.51,2.35S1853.41,987.19,1854.3,988Z"/><path class="cls-12" d="M1827.88,996.42c1,1,27.3,1.33,27.3,1.33a12.63,12.63,0,0,0,.24-3.77c-13.84,1.85-27.54-2-27.54-2C1827.6,992.23,1826.87,995.46,1827.88,996.42Z"/><path class="cls-25" d="M1849,866.59s-17.33,50.69-17.33,67.29,7.31,45.12,9.42,47.4,10.67,0,10.67,0-2.24-45.79,1.73-50.07c5-5.37,17.58-27.88,19.75-33a24.34,24.34,0,0,0,2-13.88c-1.39-7.52-7.13-12.19-14-14.38-3.81-1.2-7.76-2.72-11.72-3.34C1849.41,866.64,1849,866.52,1849,866.59Z"/><path class="cls-26" d="M1838,930.81s-3.39,2.14-2.1,8.3,6.07,18.07,10,30-5.07,34.27-3.22,38.29,24.18.8,32.61-4.55,15.53,1.64,21.23-9.87-3.12-27.88-23.09-49.44S1838,930.81,1838,930.81Z"/><path class="cls-24" d="M1858.61,996.27c4.46-10.44-.25-40.56-7.44-52.61-4.57-7.65-10.13-11-13.59-12.49-.87.83-2.66,3.19-1.66,7.94,1.29,6.16,6.07,18.07,10,30s-5.07,34.27-3.22,38.29a2,2,0,0,0,.94.89h0C1848.85,1008.28,1854.15,1006.71,1858.61,996.27Z"/><path class="cls-12" d="M1858.61,996.27c2-4.59,2.15-13,1.14-21.94-1.85.61-4.79,1.85-5.93,3.84-1.72,3,2.18,6.45,1.18,7.45s-2.79,1.46-4.29,3,2.46,5.52,0,8-2.72,11.21-2.72,11.21h0C1851.72,1006.73,1855.38,1003.82,1858.61,996.27Z"/><path class="cls-27" d="M1781.69,877.32s-7-.2-4,12.52,8.67,15.75,14.3,17.6c3,1,24.45,4.12,30.31,4.62,6.24.52,3.3,4.06,9.49,3,9.06-1.53,15.91-4.28,17.34-6.63,9-14.73,1.55-42.49-.12-42.49a15.42,15.42,0,0,0-6.29,1.83s4.9,25.27-.67,31.29-43.23,3.28-47.66-3S1786.89,874.93,1781.69,877.32Z"/><path class="cls-28" d="M1842.74,867.79s4.9,25.27-.67,31.29-43.23,3.28-47.66-3a48,48,0,0,1-4.12-8.19c.63,3.81,1.22,9.14,9,15,6,4.57,45.9,5.34,48.72-2,2.37-6.17.89-26.2-2.42-34.35C1843.19,867.06,1842.74,867.79,1842.74,867.79Z"/><path class="cls-22" d="M1845.34,863.73s-1-2.41-24.06,0a85.61,85.61,0,0,0-26.21,7.07c-.26,4.23-5.83,15.09-3.06,21a28.93,28.93,0,0,0,2.4,4.31c4.43,6.26,43,9.7,48.57,3.69S1845.34,863.73,1845.34,863.73Z"/><path class="cls-22" d="M1800.72,871c-.44.3-3.62,2.68-2,11.38s21.09,11.92,25.67,20.75,11.91,23.57,11.91,23.57l6.19-1.16s-.24-26.15-5.94-38.61S1809.66,864.81,1800.72,871Z"/><path class="cls-12" d="M1827.36,918.22s11.61-6.8,15.38-4.82c0,0,3.22,16.74,3.22,20.75s-9.3,8-9.3,8-5.21-3.34-4.22-6.42,4.1-6.16,2.61-9.1S1827.86,921.17,1827.36,918.22Z"/><path class="cls-19" d="M1766.6,879.84s13,16.43,17.69,13.54c3.26-2,1-12.89-1.19-16.13l-17-7.15Z"/><path class="cls-29" d="M1766.6,879.84a94.24,94.24,0,0,0,7.05,7.83c1.11-3.66.81-9.44-.73-14.69l-6.87-2.88Z"/><path class="cls-19" d="M1747.72,871.79a13.16,13.16,0,0,1-.65,1.54c-.71,1.39-1.49,4.9,5.34,9.28,8.86,5.68,16,7.19,18.56,2.43s.51-17.26-4.92-22.38C1761,857.87,1749.5,867,1747.72,871.79Z"/><path class="cls-18" d="M1769.38,854.9c-9.15-3.76-9.56-2.8-17.3.92-12.58,6.06-5.46,19.69-5.46,19.69,2.1-5,6.78-8.57,11.92-8.21,2.5.17,20.38,8.19,20.38,8.19C1778.92,869.67,1775.57,857.45,1769.38,854.9Z"/><path class="cls-12" d="M1777.71,941.05l-2.06,9.23s-1.77,5.83-3.26,6.33c-.33.11-.91.27-1.44.42-1.15,0-8.93,1.88-10.63,4.45,0,0-.8,1.94.8,1.94,1.37,0,3.49-1.87,4.49-2a9.72,9.72,0,0,1-.62.89l0,0a29.12,29.12,0,0,1-2.7,3.67c-1.13,1.13-6.6,3-6.6,4.51s6.06-1.56,7.3-2.15,3.63-3.7,3.86-3.47-3,3.71-3.38,4.06-7.46,3.76-6.06,5.15,7.06-3.27,7.55-3.27,3.29-3.38,3.62-3.32l0,0h0c0,.53-5.26,5.5-6.85,7.08s.89,2,1.51,1.4,5.58-5.53,5.79-4.78-3.54,4.14-3.11,5,6.47-5.37,8.1-7c2.3-2.22,2.07-3.65,3-5.14,2.77-4.56,14.23-12.53,14.23-12.53S1785.9,940.34,1777.71,941.05Z"/><path class="cls-30" d="M1920,1014.48s-8.12-16.42-26.23-7.86-10.65,27.14-10.65,27.14-10.83-8.39-19.18,0-7.81,22.49-7.81,22.49-11.36-7.86-18.46-3.93-5.33,29.81-5.33,29.81H1920Z"/><path class="cls-31" d="M1759.2,1082.91s-10.3-14.91-7.46-18.18,44.39,6.94,44.39,6.94-14.56-19.61-3.91-24.92,36.93,15.53,36.93,15.53-7.1-21.43,7.81-24,21.66,22.31,21.66,22.31-3.81-17.26,9.33-21.75,29.37,27.92,29.37,27.92-14.56-36-7.81-47.8,25.21,32,25.21,32-5.73-26.65,5.28-34v66H1759.2Z"/><polygon class="cls-12" points="1757.44 998 1753.94 1000.63 1754.74 1002.73 1752.55 1005.03 1753.12 1007.8 1755.8 1010.32 1759.81 1009.5 1759.6 1011.92 1764.54 1012.23 1766.13 1010.36 1768.08 1010.46 1771.37 1007.34 1770.71 1004.18 1769.14 1004.5 1770.34 1002.35 1767.09 998.81 1764.99 1000.62 1765.3 997.75 1761.96 998.36 1757.44 998"/><polygon class="cls-32" points="1763.1 1006.29 1764.99 1000.62 1765.3 997.75 1762.53 998.32 1763.1 1006.29"/><polygon class="cls-33" points="1754.74 1002.73 1761.92 1005.99 1753.94 1000.63 1754.74 1002.73"/><polygon class="cls-34" points="1757.44 998 1759.75 1001.7 1760.32 998.22 1757.44 998"/><polygon class="cls-35" points="1755.8 1010.32 1759.88 1005.5 1759.81 1009.5 1755.8 1010.32"/><polygon class="cls-36" points="1764.54 1012.23 1763.72 1008.03 1766.13 1010.36 1764.54 1012.23"/><path class="cls-37" d="M1750.78,1021.35l32.93-8.42s.09-10.31-13.91-6.46-22.87.44-27.49,2.49S1734.38,1024.73,1750.78,1021.35Z"/><path class="cls-12" d="M1342.59,1067.93l-27.89-30.82a6.51,6.51,0,0,0-8.21-1.22l-1.6-1.76a1.56,1.56,0,0,0-2.22-.1l-2.11,2a1.62,1.62,0,0,0-.1,2.26l1.61,1.77a6.78,6.78,0,0,0,.52,8.39l27.9,30.82a6.51,6.51,0,0,0,9.3.39l2.42-2.26A6.77,6.77,0,0,0,1342.59,1067.93Z"/><path class="cls-38" d="M1335.33,1080.66a5.82,5.82,0,0,1-4.3-1.92l-27.89-30.82a6,6,0,0,1-.47-7.45l.34-.49-2-2.22a.86.86,0,0,1,0-1.2l2.11-2a.79.79,0,0,1,.56-.23.8.8,0,0,1,.61.28l2,2.21.52-.31a5.72,5.72,0,0,1,3-.84,5.82,5.82,0,0,1,4.3,1.92l27.89,30.82a6,6,0,0,1-.35,8.39l-2.42,2.26a5.77,5.77,0,0,1-4,1.57Z"/><path class="cls-12" d="M1302.42,1040.44a.44.44,0,0,1-.44-.43.45.45,0,0,1,.43-.46l.59,0a4.53,4.53,0,0,0,2.55-2,.44.44,0,0,1,.6-.15.46.46,0,0,1,.15.62,5.3,5.3,0,0,1-3.2,2.37l-.67,0Z"/><path class="cls-12" d="M1323.19,1068.22a.44.44,0,0,1-.32-.13c-.74-.78-18.14-19.12-19.68-21.43-1.65-2.47-.88-4.35-.84-4.43a.42.42,0,0,1,.57-.23.44.44,0,0,1,.23.58,4,4,0,0,0,.76,3.58c1.5,2.24,19.41,21.12,19.59,21.31a.44.44,0,0,1,0,.63A.42.42,0,0,1,1323.19,1068.22Z"/><path class="cls-4" d="M1305.79,1082.89h68.28l-14-15.33s-12.72-4.36-22.06-4.36-8.25.72-17.15,3.44-26.24,6.4-26.24,6.4Z"/><path class="cls-39" d="M1116.28,1051.48H825.75a6.76,6.76,0,0,1-6.76-6.75l.12-1.36a6.65,6.65,0,0,1,6.64-6.75h290.53a6.75,6.75,0,0,1,6.75,6.75v1.36A6.75,6.75,0,0,1,1116.28,1051.48Z"/><rect class="cls-40" x="1266.92" y="965.83" width="160.6" height="12.2" rx="5.33" ry="5.33"/><path class="cls-23" d="M899.61,812.21s28.83,44.78,45.28,38S972,830.1,972,830.1h20.28s-22.59,61-47.36,61-68.23-24.81-68.23-24.81Z"/><path class="cls-41" d="M951.11,889.89a28.3,28.3,0,0,0,7.28-4.34V842.62a71.11,71.11,0,0,1-7.28,4.62Z"/><path class="cls-42" d="M756.81,992.93c-4.69-3.51-8.71-6.22-10.07-6.34-4-.35-11.79,14-10,19.06a103,103,0,0,1,17.53,8.66C756.66,1007.51,757.19,1000.18,756.81,992.93Z"/><path class="cls-20" d="M744,1007.07a6.91,6.91,0,0,1,1.43,7.38,76.24,76.24,0,0,1-7.41,13.4c-8.32,12.46-17.65,18.72-18.54,11.68s2.54-63.79,9.27-62.71,20.34,8.16,20.95,10.94-9.95,4.15-10.8,9.48C738.35,1000.51,741.48,1004.49,744,1007.07Z"/><path class="cls-12" d="M719.45,1039.53c.43,3.4,2.82,3.7,6.12,1.7-4.66-20.08,4.28-50.34,8.52-62.88a29.62,29.62,0,0,0-5.37-1.53C722,975.74,718.57,1032.5,719.45,1039.53Z"/><path class="cls-43" d="M786,916.22s33.63,67.39,26.39,74.63-62.7-4.27-62.7-4.27-9.15,13.87-1.43,27.82c2.59,4.67,59.59,16.46,76.33,10.78s29.8-11.07,28.38-32.92-13.62-66.68-13.62-66.68Z"/><path class="cls-44" d="M824.54,1007.84c.64,2.33,5.53,8.42,9.28,10.76,11.58-5.74,19.09-16.88,18-36.76a70,70,0,0,0-1.45-8.67C838.46,988.89,823.39,1003.67,824.54,1007.84Z"/><path class="cls-44" d="M844.94,947.8c-3-12.55-5.59-22.22-5.59-22.22L786,916.22s4.45,8.91,9.76,20.6C810.82,945,824.29,944.2,844.94,947.8Z"/><path class="cls-42" d="M847,992.82s-19.87,28.38-19.87,32.35,15,10.5,19.87,8.23c0,0,6.24-23.27,16.17-29.8S847,992.82,847,992.82Z"/><path class="cls-25" d="M790.26,860.88s-11.07,12.49-13,37.17,22.31,35.29,40.47,38.12,50.61,4.73,50.61,15.52-42.84,49.37-40.86,55.61,25,15.61,31.5,9.08,64.35-73.64,64.35-89.24-83.93-39-83.93-39Z"/><path class="cls-45" d="M840.73,1016.68c14.59-17.48,62.12-76.25,53.15-85.36C883.74,921,804.62,918,794.73,901.62c-6.66-11-.57-26.89,4-35.94l-1-.6c-4.74,9.23-11,25.48-4,37.15,10.25,17,89.55,20,99.32,29.91,7.5,7.63-33.84,60.58-53.5,84.12C840,1016.41,840.34,1016.55,840.73,1016.68Z"/><path class="cls-20" d="M847.77,1026.12A6.92,6.92,0,0,1,855,1024a76.93,76.93,0,0,1,14,6.19c13.15,7.18,20.21,15.93,13.28,17.43s-63.77,3.13-63.29-3.67,6.32-21,9-21.84,5,9.54,10.4,9.92C841.74,1032.3,845.42,1028.83,847.77,1026.12Z"/><path class="cls-22" d="M874.54,754s24.14,10.85,33.57,25.81-2.69,33.94-8.31,39.56l-.6-23-27.71-16.55Z"/><path class="cls-46" d="M904.38,807.72A27.23,27.23,0,0,0,862.15,797a136.49,136.49,0,0,1-25.07,15.88c-31.78,15.9-56.75,41.43-56.75,41.43s7.83,41.72,61.4,35c0,0,60-47.54,63.1-64.28C906,818.79,907.7,815.68,904.38,807.72Z"/><path class="cls-22" d="M893.76,790.1l14.35,21.3s-70.15,49-88.69,76.46a13.06,13.06,0,0,1-15.26,5c-11-4-27.2-11.57-33.37-23.14-9.76-18.3,12.88-51,55.81-73.3S870.73,772.46,893.76,790.1Z"/><path class="cls-41" d="M888.39,798.78c12.29,1.32-2.15-10.52-16.2-20.54-6.74-.73-14.22,2.15-27.38,8.75C853.69,790.37,872.86,797.11,888.39,798.78Z"/><polygon class="cls-19" points="914.8 773.27 900.07 805.68 878.58 782.37 900.41 762.15 914.8 773.27"/><path class="cls-47" d="M895.43,766.87l5-4.72,14.39,11.12-8.11,17.84a19.75,19.75,0,0,1-4.75-4.16C898.52,782.59,896.17,774.75,895.43,766.87Z"/><path class="cls-19" d="M926.42,731.14s.92-.08,3.57,7.76c1.89,5.58,2.19,11.64,2.63,17.48.66,8.69.59,17.9-4.32,25.45-2.59,4-20.41-.32-26.27-6.27s-8.61-20-5.51-28.43S923.81,728.49,926.42,731.14Z"/><path class="cls-20" d="M901.89,769.18c-1.8,2-3.8,2-9.29.4-7.06-2.07-12.37-9.58-11.09-19.85,3.9-31.44,34.36-29.87,42.5-30.44a6,6,0,0,1,6,3.35,11.74,11.74,0,0,0,8.56,6.06c1.61.24,5.69,1.41,6.06,4.09,1.06,7.66-1,14.63-12.91,10.9C904.83,735.26,905.34,765.42,901.89,769.18Z"/><path class="cls-19" d="M909.74,755.31s1.83-7.69-2.53-7.65-8.42,7.64-5.32,10.48S909.74,755.31,909.74,755.31Z"/><path class="cls-23" d="M817.68,889.94c7.85-18,77.42-86,77.42-86,0-8.2-49.18-11.08-46-34.43,2.21-16.06,25.41-15.51,25.41-15.51s-2.49,11.81,8.67,23,29.17,28,26.51,34.41C903.68,825.86,817.68,889.94,817.68,889.94Z"/><path class="cls-41" d="M877,803.38c-.17.32-10.29-9.2-17.41,28.51-.75,4-1.49,8.15-2.12,12.11h0c-.36,2.26-.72,4.7-1,7h0a152.73,152.73,0,0,0-1.56,27.6c17.85-15,47.85-41.8,50-53.51C905.39,822.05,890.72,801.37,877,803.38Z"/><path class="cls-12" d="M882.28,1047.66c3.34-.72,3.43-3.13,1.15-6.24-19.6,6.42-50.53.2-63.39-2.92a18,18,0,0,0-1,5.49C818.51,1050.79,875.35,1049.17,882.28,1047.66Z"/><rect class="cls-18" x="997.65" y="821.98" width="12.11" height="229.5"/><rect class="cls-18" x="1009.76" y="821.98" width="4.69" height="229.5" transform="translate(2024.21 1873.46) rotate(180)"/><path class="cls-19" d="M1015.28,936.17c-.84-.83-4.38-1.11-6.27,0-1.69,1-9.75,3.16-7.2-1.87.91-1.79,8,1.76,8-1.08s-14.62-5.94-26-8.49-68-36.18-72.65-40.86-6.24-14.19-6.24-14.19l-30.36,12.2s4.54,18.44,7.09,21,87.59,31.87,94.21,36c6.1,3.84,9.2,7.26,11.83,8.32,4.09,1.67,14.15,3.72,19.68,1.32,3.36-1,7.1-5.34,7.93-7.68A8,8,0,0,0,1015.28,936.17Z"/><path class="cls-22" d="M872.07,797.63c-3.15.82-12.2,3.31-9.56,39.9s8.19,64.1,27.51,74.64,76.7,24,76.7,24,9.07-13.57,6.44-19.95c0,0-46.84-19-52.4-33.79S917.66,785.83,872.07,797.63Z"/><path class="cls-41" d="M973.16,916.22s-10.44-4.25-22-10.28v22.52a7.71,7.71,0,0,0,1.2,4.14c8.57,2.2,14.41,3.57,14.41,3.57S975.79,922.6,973.16,916.22Z"/><rect class="cls-48" x="954.97" y="831.46" width="109.57" height="100.9" rx="13.98" ry="13.98"/><rect class="cls-12" x="953.61" y="830.1" width="109.57" height="100.9" rx="13.98" ry="13.98"/><circle class="cls-49" cx="1008.4" cy="880.55" r="41.65" transform="translate(-251.69 428.42) rotate(-21.39)"/><circle class="cls-12" cx="1008.4" cy="880.55" r="35.45" transform="translate(-91.15 1644.24) rotate(-75.91)"/><path class="cls-50" d="M1020.47,854.64a1.75,1.75,0,0,0-1.82.94c-1.88,3.72-8.24,16-10.44,16.88-2.59,1.06-14.39,1.65-16.28,2.36s-11.09,4.6-9,5.66,10.62-3,10.62-1.77c0,0-5.72,2.07-6.78,3.13s-5.43,4.31-5,5.49,5.43-2.19,7.32-3.42,7.67-2.54,7.37-2.25-5.69,2.39-6.37,3.07-5.13,5.49-4.66,7.08,2.45.92,5.19-1.83,8.91-4.84,10.8-5.13,8.52,1.21,9.32,2,3.89,3.64,3.54,5.8,1.06,5.58,2.77,5.58,1-12.21,1-17c0-4,10.36-12.38,14.05-15.24a1.76,1.76,0,0,0,.37-2.4C1030.73,860.93,1026.31,855.5,1020.47,854.64Z"/><path class="cls-51" d="M1002.28,889.19c-.55.16-4.32,1.3-4.32,1.87-.08.38.43,2.42-1.23,2.65-2.05.28-2.81.2-3.28,1-.77,1.37-2.57,4.56-2.57,4.84a40.55,40.55,0,0,0,2,4,1.46,1.46,0,0,0,1.05.72l4.9.67a1.42,1.42,0,0,1,1.22,1.28,12,12,0,0,0,.57,3.26c.32.32,8.72-.11,11.1-.23a1.44,1.44,0,0,0,1-.52c.76-1.13,2.09-1.88,1.54-3.11-.8-1.81-2.66-6.05-2.47-6.24a17.46,17.46,0,0,0,1.24-3.8C1013.1,894.78,1006.25,888,1002.28,889.19Z"/><path class="cls-52" d="M1019.65,903.78H1018a1.27,1.27,0,0,0-1.26,1.08h0a1.25,1.25,0,0,0,.31,1l.58.66a1.21,1.21,0,0,1,.2.3c.1.21.4.63,1.29.63C1020.35,907.5,1021.86,903.78,1019.65,903.78Z"/><rect class="cls-53" x="1005.59" y="841.02" width="7.61" height="76.35" transform="translate(-313.25 1085.31) rotate(-49.91)"/><path class="cls-19" d="M994.13,831.48c-.55-2.7-1.83-7.52-4.11-9.07a7.75,7.75,0,0,0-3-1c-4.31-.76-13.06-1.07-17.08.6-2.33,1-6,5.7-6,8.12,0,0,7.28,5.38,9.72,5,1.93-.28,1.09-3.46.66-4.77.05.16,2.58.66,3,.81a8.8,8.8,0,0,1,2.91,2.42c3.17,3.29,7.13,6.54,11.77,3.79C994.57,835.81,994.64,834,994.13,831.48Z"/><path class="cls-19" d="M1268.3,963.58s0,.29,0,.76a10,10,0,0,0,2.48,6.81c2.94,3.06,3,6.87-.15,7.52s-10.52-.21-10.52-.21-1.67-2.91-.53-10.69,1.81-16.3,1.81-16.3l8.44-1.32Z"/><path class="cls-20" d="M1270,966.89a47.67,47.67,0,0,1,3.86,6c.73,1.77.58,6.18,0,6.64-5.06,4-14.67.4-14.67.4a57.19,57.19,0,0,1-1-6.54c-.34-3.6-.15-6.95,1-6.95s1.34,1.89,3.94,1.35S1267.29,966.36,1270,966.89Z"/><path class="cls-12" d="M1258.35,975.22a34,34,0,0,0,7.07,2c2.63.38,6.18-.79,8.85-2,.14,1.89-.06,4-.45,4.31-5.06,4-14.67.4-14.67.4S1258.7,978,1258.35,975.22Z"/><path class="cls-19" d="M1325.44,797c9-3.1,22.37-12.35,23.7-23.87.67-5.76,6.8-.58,6.25,2.13-1.87,9.28-7,31.9-25.45,35.37a40,40,0,0,1-23-2.07,54.13,54.13,0,0,1,5.28-13.89C1315.7,797.24,1321.15,798.52,1325.44,797Z"/><path class="cls-54" d="M1340.2,783.13s-11.16,15.24-18.67,13.31c-4-1-15.69-9.32-18.94-12.68a24.84,24.84,0,0,0-16-7.43l7.91,32.53a84.92,84.92,0,0,0,31.33,6.25c17.47,0,26.13-25.59,26.13-25.59Z"/><path class="cls-19" d="M1292.68,958.46a8.79,8.79,0,0,0,2.79,9.51,14.51,14.51,0,0,0,3.37,2.08c4.92,2.15,11.3,1.67,12.18,6.09s-31.19-1.24-31.19-1.24,2.22-10.75,2.37-12.55-.2-8.4-.2-8.4l12.39-.89Z"/><path class="cls-20" d="M1281.13,967.3s-.39,1.7-1.29,4.59a12.54,12.54,0,0,0-.34,5.62s30,1.43,31.27.47.59-4.41.28-4.72-4.12-1.34-6.07-2.54-8.64-5.78-10.9-5.59-3.29,1.85-7.58,2S1282.2,966.46,1281.13,967.3Z"/><path class="cls-12" d="M1310.77,978c-1.22.95-31.27-.47-31.27-.47a12.85,12.85,0,0,1,0-4c15.69,2.9,31.58-.25,31.58-.25C1311.36,973.57,1312,977,1310.77,978Z"/><path class="cls-55" d="M1279.47,973.51a82,82,0,0,0,31.58-.25,109.83,109.83,0,0,1-28.63.65Z"/><path class="cls-43" d="M1256.46,862.77l2.25,98.85,13.51-1.7s4.28-87.31,6.78-89.9,3.51.16,3.51.16,10.77,36.32,8.77,43.57-11,46.06-11,46.06l13,.52s14.79-29.76,14.79-50.46-9.14-55.12-9.14-55.12Z"/><path class="cls-25" d="M1301.89,867c-1.56,3.5-5.81,10.33-16.28,14.25-1.7-6.39-3.1-11.11-3.1-11.11s-1-2.75-3.51-.16c-.56.58-1.2,5.37-1.87,12.48-8.91-.6-16.75-6.54-20.45-9.88l-.22-9.85,42.47-8S1300.25,859.73,1301.89,867Z"/><rect class="cls-18" x="1279.81" y="957.06" width="15.6" height="3.2" transform="translate(2575.22 1917.33) rotate(180)"/><rect class="cls-18" x="1257.52" y="957.58" width="15.75" height="4.04" transform="translate(2530.78 1919.2) rotate(180)"/><path class="cls-45" d="M1282.53,959.17a.39.39,0,0,0,.37-.27c.61-1.71,14.84-41.89,14-47.44s-9.89-39.92-10.28-41.39a.39.39,0,0,0-.49-.29.42.42,0,0,0-.28.51c.1.36,9.47,35.87,10.26,41.29s-13.85,46.62-14,47a.42.42,0,0,0,.24.53A.35.35,0,0,0,1282.53,959.17Z"/><path class="cls-54" d="M1286.74,775a22.38,22.38,0,0,1,17.4,14.48c5.11,13.22,7.33,71.25,5.37,72.12-52.25,23.35-69-1.95-69-1.95Z"/><path class="cls-56" d="M1275.09,775.84s-12.87-.79-18.13,6.71-4.39,81.39-2.26,83.59,18,14.75,32.57,9.57,15.53-12.16,15.53-12.16-2-54.09-2-68.58S1289.05,771.94,1275.09,775.84Z"/><path class="cls-57" d="M1274,775.82c-2.79,2.57-3.12,1.74-.22,5.11s12.62,8.06,14,7.42c3.4-1.61,2-8.78-.21-12.63C1286.82,774.52,1276.77,773.25,1274,775.82Z"/><path class="cls-19" d="M1274.46,763.87s-.74,16.12,0,16.9,11.51-1.38,12.45-3.58S1283,743,1283,743Z"/><path class="cls-58" d="M1274.13,775.55c1.91-.34,3.54-.82,4-1.37,4.39-5,1.1-13,1.44-15.11.69-4.17,2.09-7.61,1.39-11.21l-6.53,16S1274.18,770.27,1274.13,775.55Z"/><path class="cls-19" d="M1267.38,740.45a50.7,50.7,0,0,0-1.88,11.77c0,5.31.13,14.49,3.88,14.49s9.15-1,10.4-8.54,0-15.78-3.76-17.72S1267.38,740.45,1267.38,740.45Z"/><path class="cls-18" d="M1268.53,745.67a1.5,1.5,0,0,1,2,1.72c-.34,1.91-.25,4,1.54,4.44,3.44.84,5.07,0,5.63.58s-1.63,3.69,0,4.27,2.51-5,4-5,1.75,8,0,9.84.25,4.27,2.57,4.27-.3,2.91,2.83,3.88,5.62,1,6.62-3,0-6.14,0-6.14,3.76-3.91,2.38-7.42-2.19-4-2.19-4-1.94-6.15-2.38-8.67-6.65-5-10.9-5.5-2.13-3-5.7-3-4.25,2.39-4.25,2.39a3.93,3.93,0,0,0-5.14-.58c-2.88,1.94-.5,5-.5,5s-2.44.26-3,3.43,1.57,5.11,4.83,4.08Q1267.8,746,1268.53,745.67Z"/><path class="cls-18" d="M1276,751.1s.92,10.65,0,11.6-4-.21-5.34-1.55-4.68-.76-4.68-.15-1.59,10.16.33,11.26,10.18.37,10.86-1.19a30,30,0,0,0,1.25-20.7Z"/><path class="cls-19" d="M1279.4,751.27s1.72-3.17,3.25-1.4.73,9.25-1.62,9.25S1278.56,753.27,1279.4,751.27Z"/><path class="cls-52" d="M1244.3,945.28h9.82s4.13,4.27,5.36,5.5,10.5,1.91,10.5,1.91l7.16,6.75s-13,1.5-20.23-.78C1249.29,956.26,1244.3,945.28,1244.3,945.28Z"/><path class="cls-12" d="M1244.3,945.28h9.82s4.13,4.27,5.36,5.5,10.5,1.91,10.5,1.91l7.16,6.75s-13,1.5-20.23-.78C1249.29,956.26,1244.3,945.28,1244.3,945.28Z"/><polygon class="cls-59" points="1262.45 944.92 1250.66 968.14 1264.13 945.79 1262.45 944.92"/><path class="cls-18" d="M1263,947.28a1.18,1.18,0,0,1-.58-.14,1.28,1.28,0,0,1-.57-1.73l98.69-195.87a1.29,1.29,0,0,1,2.3,1.15l-98.69,195.88A1.29,1.29,0,0,1,1263,947.28Z"/><path class="cls-12" d="M1258.56,955c-4.74-1.49-8.45-6.29-10.59-9.72h-3.67s5,11,12.61,13.38c7.22,2.28,20.23.78,20.23.78l-3.47-3.27C1269.23,956.37,1262.87,956.36,1258.56,955Z"/><path class="cls-12" d="M1221.06,986.71l-1-.38c-3.53-1.39-15.9-6-20.29-4.89-5.15,1.33-13.52,10.56-13.52,10.56a62,62,0,0,0,13.09-1.5,28.08,28.08,0,0,1,12,0Z"/><path class="cls-54" d="M1274,775s1.88,85.31-2.25,89.45-25.46,1.11-31.09-4.51c-2.58-2.58,3-54.36,9.88-70.46C1257,774.5,1274,775,1274,775Z"/><path class="cls-60" d="M1251.55,800.4c0,15.57,4.93,43.91,15.24,50.35a23,23,0,0,0,6.83,2.74c.88-13,.93-35,.79-52.38L1259,779.41S1251.55,784.83,1251.55,800.4Z"/><path class="cls-19" d="M1323.05,815c-2.11.59-9.76,5.37-9.76,5.37-6.58,3.35-21.19,4.14-29.06.75-4.21-1.81-5.2-5.09-5.61-9.47a30.33,30.33,0,0,0-17.21,6.79c4.58,8.27,11.44,16.15,19.7,18.81,12.25,4,36.1-10.21,37.93-10.68s5.43.19,6.91-.72c1.84-1.15,4.19-5.16,4.19-7.66S1325.87,814.19,1323.05,815Z"/><path class="cls-54" d="M1305.08,821.41c-3.69,0-17.59-.64-20.69-3.75s-8.45-19.32-10.62-24.86c-5.39-13.72-10.69-15.19-10.69-15.19-6.73,0-11.07,13.63-9.37,24.69.69,4.49,6,32.78,20.16,37.28,7.12,2.27,30.58-3.25,34.2-6.87C1308.07,832.71,1308.77,821.41,1305.08,821.41Z"/><path class="cls-19" d="M1347.42,771.8c-.12-1.12,0-3.84,1.28-4.32s4.07-1.27,4.07,0-2.55,3.23-2.55,3.23l-2.18,3.78S1347.5,772.49,1347.42,771.8Z"/><path class="cls-19" d="M1358.11,770.1s-1.7-7-3.55-7-1,3.66-1.36,4-1,.63-1,1.29.57,2.21-.28,3,2.57,6,3.27,5.09A60.47,60.47,0,0,0,1358.11,770.1Z"/><path class="cls-61" d="M1574.05,676.05s-58,125.26-87.24,154.33-57.5,52.81-57.5,52.81l21.77,9.83s82.38-33.87,95.54-56.45,10.23-59.73,10.23-59.73Z"/><path class="cls-62" d="M1534.83,871.9s-11,19.05-12.29,31.25c-4,38.27-10.73,118.65-11.48,179.74h65.31c-3.29-47.4-5.16-81.93-3.77-83.32,6.41-6.41,12.58,37.38,18.43,83.32h73.85c.86-53-.69-125.38-15.62-161C1625.75,865.86,1534.83,836.76,1534.83,871.9Z"/><path class="cls-63" d="M1548.71,864.62s-33.18,13.93-57,6.19,34.74-122.46,42.34-150,39.7-42.72,48-51,62.61,12.44,99.25,36.52,31.8,187.82,25.58,205-80.19,9-80.19,9,10.41-14.53,5.31-24.2C1624.17,881.35,1577.7,864.62,1548.71,864.62Z"/><path class="cls-64" d="M1645.41,719.11c-15.55,15.48-16.59,171-13.44,177,5.1,9.67-4.22,24.32-2.28,24.5,14-6.68,28.68-15.81,39.15-27.8,26.71-30.6,32.57-134.77,22-162.17S1661,703.63,1645.41,719.11Z"/><path class="cls-65" d="M1704.78,696.92c-9.65,2.74-33.21-4.45-40.9-1.69-13.48,4.81-13.22,16-19.25,30.07-8.65,20.13-4.31,174.92-18,195.05,0,0,11.93-17.81,4.38-29.09-.56-.82-59.23-26.64-82.32-26.64,0,0-18.6,7.8-38,8.46-3.74-9.31-5.46-22.87.62-41.49,13.07-40,54.86-146.58,70.64-161.73a10.27,10.27,0,0,1,1.43-1.16c14.52-9.45,49.26-23.9,90.22-15.13S1731.33,689.38,1704.78,696.92Z"/><path class="cls-66" d="M1609.12,676a32.25,32.25,0,0,0-37.47,18.69c-6.9,16.35-15.49,36.41-20,45.76-8.3,17.2-3.59,30.77-.82,37.31s2.85,30.38-11.63,58.33c-22.41,43.29,15.41,64,59.38,67.08,0,0,27.45.31,33.33-5.54,0,0,1.92-140.4,6.8-152.92s31-36.15,31-37.92C1669.7,705.18,1680.1,693.53,1609.12,676Z"/><path class="cls-67" d="M1717.62,681.44l-.35.17c.34-11.75-73.09-31-98.7,46.56-6.86,20.79,15.67,176.34,8.09,192.16v0s11.75-5.68,14.86-63.47-17.64-126.14-4.2-143.11c11.83-14.92,34.27-17,35.85-14.28,7.83,13.69,39.84,31.76,44.45,9.3C1717.62,708.79,1722.16,694.34,1717.62,681.44Z"/><path class="cls-68" d="M1685.68,717.38c10.61,27.4,4.76,131.57-22,162.17s-80.88,42.61-80.88,42.61l-8.79-7.28s37.34-59.37,44.65-90.33,6-103.26,21.6-118.74S1675.07,690,1685.68,717.38Z"/><path class="cls-69" d="M1582.82,1048.83c-1.33-14.11-11.33-45.93-15.35-54.61s10.4-56.28,10.4-56.28L1395.75,951.2s7,28,0,34.35c-23.55,21.16-6.06,16.39-9,31.34-1.55,7.91-13.93,18.15-14.54,26-.24,3,7.23,7.63,7.21,10.41-.05,8.36,6.85,25.71,9.61,29.58l191.92,0S1583.61,1057.31,1582.82,1048.83Z"/><path class="cls-70" d="M1515,871.87h15a0,0,0,0,1,0,0v2.88a6.55,6.55,0,0,1-6.55,6.55h-1.9a6.55,6.55,0,0,1-6.55-6.55v-2.88A0,0,0,0,1,1515,871.87Z" transform="translate(3045.07 1753.17) rotate(180)"/><path class="cls-19" d="M1569.77,666.29s8.63,5.91,12.25,11.2c7.54,11,12.75,19,9.17,31.82-2.77,10-6,24.56-6,38.52,0,24.44,48.2-65.16,48.2-65.16L1600.12,644Z"/><path class="cls-58" d="M1601.41,645.49l-1.29-1.51-30.35,22.31s8.63,5.91,12.25,11.2c1.29,1.89,2.52,3.69,3.65,5.44,6.49-9.33,12.19-20.18,15-28.07A22.23,22.23,0,0,0,1601.41,645.49Z"/><path class="cls-20" d="M1622.62,568.11s1-9.6,6.9-27.27,27.26-30.46,43.36-20.28,25.27,0,40.69-12.33,35.38-7,46.69,6.2,33.13,13,28.88,41.55-37.75,45.95-57.31,31.54-23-8.73-37.77,4.25-50.85-9.09-58.62-16S1622.62,568.11,1622.62,568.11Z"/><path class="cls-19" d="M1552.09,586.22s-10.8,5.94-13.07,34.2,3.41,57.38,15,59.92,40.34-14.41,49.71-28.26-5.68-59.07-21-65.86S1552.09,586.22,1552.09,586.22Z"/><path class="cls-20" d="M1632.46,564.18c3.55,3.53,10.23,19.78,10.23,38.44s-25,53.13-31.53,56-33.14-14.6-40-56c-1.63-9.76-21-14.73-21-14.73s-2.25-18.34,15.07-24.84,22.51-7.4,36.42-11.35S1625.79,557.53,1632.46,564.18Z"/><path class="cls-20" d="M1633.85,566c2.81,6.92,5.08,19.9,2.47,33.92-3.79,20.32-28,50.51-35.7,55.46,4.64,3.06,8.54,4.1,10.54,3.23,6.53-2.83,31.53-37.31,31.53-56C1642.69,586.19,1637.51,571.63,1633.85,566Z"/><path class="cls-19" d="M1578,628.87s-1.76-12.34,5-12.34,14.93,13.72,10.52,19.63-12.39,2-12.39,2Z"/><path class="cls-24" d="M1574.05,943.83s-108,41.52-149.13,30.6-37.88-44.8,4.39-67.2S1601.69,916.33,1574.05,943.83Z"/><path class="cls-18" d="M1517.05,915.73V881.31h11v34.42a12.63,12.63,0,0,0,5.62,10.2,15.34,15.34,0,0,1,6.74,12.47v67h-35.71v-67a15.34,15.34,0,0,1,6.74-12.47A12.65,12.65,0,0,0,1517.05,915.73Z"/><path class="cls-71" d="M1458,909.85a2.27,2.27,0,0,1-1.89-1.88l-.69-4.05-13.32,2.29.68,4a2.26,2.26,0,0,1-1.16,2.39,14.8,14.8,0,0,0-7.69,15.56l15.46,91.31a14.79,14.79,0,0,0,17,12.12l7.29-1.24a14.79,14.79,0,0,0,12.11-17L1470.38,922A14.79,14.79,0,0,0,1458,909.85Z"/><path class="cls-71" d="M1452.22,911.78a2.26,2.26,0,0,1-1.88-1.87l-.84-5-7.4,1.27.68,4a2.26,2.26,0,0,1-1.16,2.39,14.8,14.8,0,0,0-7.69,15.56l15.46,91.31a14.79,14.79,0,0,0,17,12.12l6.49-1.1a14.79,14.79,0,0,0,7.14-15.25l-15.46-91.32A14.81,14.81,0,0,0,1452.22,911.78Z"/><polygon class="cls-72" points="1443.85 949.2 1426.11 994.66 1403.06 989.25 1403.42 985.79 1408.17 940.18 1424.98 944.43 1443.85 949.2"/><path class="cls-73" d="M1443.4,949,1426,994.48l-23-5.22,23.15,5.59c1.85-4.65,16.22-40.78,18.08-45.47Z"/><path class="cls-74" d="M1403.42,985.79l4.75-45.61,16.81,4.25C1423,960,1417.44,986.34,1403.42,985.79Z"/><path class="cls-75" d="M1444.06,942.31l-.56,2.42L1410.56,937l.57-2.42a1.39,1.39,0,0,1,1.68-1l30.21,7.09A1.39,1.39,0,0,1,1444.06,942.31Z"/><path class="cls-76" d="M1444.06,942.31l-.56,2.42-16.5-3.87a5.53,5.53,0,0,0,.2-1.6c0-.73-1.92-2-4-3.29l19.86,4.66A1.39,1.39,0,0,1,1444.06,942.31Z"/><polygon class="cls-75" points="1445.35 950.13 1405.41 940.76 1408.92 937.66 1409.24 937.38 1444.12 945.57 1445.35 950.13"/><path class="cls-76" d="M1445.35,950.13l-10.78-2.53c-.53-3.12-21.53-8.84-25.65-9.94l.32-.28,34.88,8.19Z"/><rect class="cls-77" x="1404.72" y="945.43" width="41.03" height="1.24" transform="translate(253.78 -300.55) rotate(13.2)"/><path class="cls-75" d="M1409.56,935.65l35,8.23a.88.88,0,0,1,.66,1h0a.89.89,0,0,1-1.06.66l-35-8.22a.88.88,0,0,1-.66-1.06h0A.89.89,0,0,1,1409.56,935.65Z"/><polygon class="cls-78" points="1443.85 949.2 1426.11 994.66 1403.06 989.25 1403.42 985.79 1408.17 940.18 1424.98 944.43 1443.85 949.2"/><path class="cls-73" d="M1443.4,949,1426,994.48l-23-5.22,23.15,5.59c1.85-4.65,16.22-40.78,18.08-45.47Z"/><path class="cls-79" d="M1411.67,980.75l4.74-45.61,16.81,4.26C1431.19,955,1425.68,981.31,1411.67,980.75Z"/><path class="cls-12" d="M1444.06,942.31l-.56,2.42L1410.56,937l.57-2.42a1.39,1.39,0,0,1,1.68-1l30.21,7.09A1.39,1.39,0,0,1,1444.06,942.31Z"/><polygon class="cls-12" points="1445.35 950.13 1405.41 940.76 1408.92 937.66 1409.24 937.38 1444.12 945.57 1445.35 950.13"/><rect class="cls-70" x="1404.72" y="945.43" width="41.03" height="1.24" transform="translate(253.78 -300.55) rotate(13.2)"/><path class="cls-12" d="M1409.56,935.65l35,8.23a.88.88,0,0,1,.66,1h0a.89.89,0,0,1-1.06.66l-35-8.22a.88.88,0,0,1-.66-1.06h0A.89.89,0,0,1,1409.56,935.65Z"/><path class="cls-80" d="M1495.89,955.24c.75-1.29,1.69-2.63,2.55-3a17.13,17.13,0,0,0,2.93-1.23,22.81,22.81,0,0,0,7-6.71,14.11,14.11,0,0,0,1.64-11.77,9.32,9.32,0,0,1,1-7.46l5.49-8.93L1507,908.7l-7.36,7.46c-1.24,1.26-3.47,1.76-5.59,1.93a19.17,19.17,0,0,0-15.59,9.67,23.8,23.8,0,0,0-1.7,4,15.7,15.7,0,0,0-.49,3.13c-.11.91-1.18,2.15-2.26,3.19a4.21,4.21,0,0,1-4.1,1.06,5.39,5.39,0,0,0-5.77,1.84l-32.07,40.92a5.38,5.38,0,0,0,.91,7.56l22.84,17.9a5.39,5.39,0,0,0,7.56-.92l32.07-40.92a5.37,5.37,0,0,0,.41-6A4.21,4.21,0,0,1,1495.89,955.24Z"/><path class="cls-70" d="M1495.89,955.24c.75-1.29,1.69-2.63,2.55-3a17.13,17.13,0,0,0,2.93-1.23,22.81,22.81,0,0,0,7-6.71,14.11,14.11,0,0,0,1.64-11.77,9.32,9.32,0,0,1,1-7.46l5.49-8.93L1507,908.7l-7.36,7.46c-1.24,1.26-3.47,1.76-5.59,1.93a19.17,19.17,0,0,0-15.59,9.67,23.8,23.8,0,0,0-1.7,4,15.7,15.7,0,0,0-.49,3.13c-.11.91-1.18,2.15-2.26,3.19a4.21,4.21,0,0,1-4.1,1.06,5.39,5.39,0,0,0-5.77,1.84l-32.07,40.92a5.38,5.38,0,0,0,.91,7.56l22.84,17.9a5.39,5.39,0,0,0,7.56-.92l32.07-40.92a5.37,5.37,0,0,0,.41-6A4.21,4.21,0,0,1,1495.89,955.24Z"/><path class="cls-81" d="M1495.84,959.47a4.21,4.21,0,0,1,.05-4.23c.75-1.29,1.69-2.63,2.55-3a17.13,17.13,0,0,0,2.93-1.23,22.81,22.81,0,0,0,7-6.71,14.11,14.11,0,0,0,1.64-11.77,9.32,9.32,0,0,1,1-7.46l5.49-8.93-5.1-4-5.49,8.93a9.32,9.32,0,0,0-1,7.46,14.13,14.13,0,0,1-1.65,11.77,23,23,0,0,1-7,6.72,15.74,15.74,0,0,1-2.93,1.22c-.85.33-1.8,1.66-2.55,3a4.21,4.21,0,0,0,0,4.23,5.36,5.36,0,0,1-.41,6l-32.07,40.93a5.38,5.38,0,0,1-7.56.91l5.1,4a5.39,5.39,0,0,0,7.56-.92l32.07-40.92A5.37,5.37,0,0,0,1495.84,959.47Z"/><path class="cls-70" d="M1522.36,911.82l-4.33,5.54-12.82-10.05,4.34-5.53a.81.81,0,0,1,1.14-.14l11.53,9A.8.8,0,0,1,1522.36,911.82Z"/><path class="cls-81" d="M1513,907.76h6.85a1.53,1.53,0,0,1,1.53,1.53v6.31a0,0,0,0,1,0,0H1513a0,0,0,0,1,0,0v-7.85A0,0,0,0,1,1513,907.76Z" transform="translate(885.37 -741.72) rotate(38.09)"/><rect class="cls-4" x="1502.85" y="912.12" width="16.28" height="2.04" transform="translate(884.95 -737.61) rotate(38.09)"/><rect class="cls-4" x="1506.83" y="907" width="17.13" height="1.02" transform="translate(882.43 -741.54) rotate(38.09)"/><rect class="cls-4" x="1505.59" y="908.59" width="17.13" height="1.02" transform="translate(883.17 -740.44) rotate(38.09)"/><rect class="cls-4" x="1504.35" y="910.17" width="17.13" height="1.02" transform="translate(883.85 -739.33) rotate(38.09)"/><path class="cls-82" d="M1479.31,963.75l-19-17a15.08,15.08,0,0,1-1.16-21.35l4.16-4.61a15.23,15.23,0,0,1,21.44-1.15l19,17a2.08,2.08,0,0,1,.16,3h0a2.09,2.09,0,0,0,.17,3l8,7.17a2.11,2.11,0,0,0,3-.16h0a2.12,2.12,0,0,1,3-.16l28.73,25.66a2.09,2.09,0,0,1,.17,3l-21.64,24a2.11,2.11,0,0,1-3,.16l-28.74-25.66a2.1,2.1,0,0,1-.16-3h0a2.07,2.07,0,0,0-.16-2.95l-8-7.18a2.12,2.12,0,0,0-3,.16h0A2.11,2.11,0,0,1,1479.31,963.75Z"/><path class="cls-83" d="M1458.59,927.06l9.55-9.56-4.46-4.46a3.54,3.54,0,0,0-5,0l-4.55,4.56a3.52,3.52,0,0,0,0,5Z"/><path class="cls-84" d="M1546.79,975.07l-28.73-25.66a2.12,2.12,0,0,0-3,.16,2.11,2.11,0,0,1-3,.16l-8-7.17a2.09,2.09,0,0,1-.17-3h0a2.08,2.08,0,0,0-.16-3l-19-17a15.17,15.17,0,0,0-8.79-3.81c7,8.66,28,35.8,28,49.75a35.44,35.44,0,0,1-4.28,16.28l22.72,20.28a2.11,2.11,0,0,0,3-.16L1547,978A2.09,2.09,0,0,0,1546.79,975.07Z"/><path class="cls-26" d="M1593.43,1053.33c-1.32-14.11-21.94-50.43-26-59.11s10.4-56.28,10.4-56.28h-.23a12.27,12.27,0,0,1-3.59,5.84s-108,41.21-149.13,30.37c-17.18-4.53-26.62-13-28.72-23l-.45,0s7,28,0,34.35c-23.55,21.16-6.06,16.39-9,31.34-1.55,7.91-13.93,18.15-14.54,26-.24,3,7.23,7.63,7.21,10.41-.05,8.36,6.85,25.71,9.61,29.58l191.92,0S1594.23,1061.82,1593.43,1053.33Z"/><path class="cls-85" d="M1577.61,938.08a9.61,9.61,0,0,1-6.25,6.72c-16.94,6.25-109.13,39.19-146.44,29.36-17.18-4.53-26.62-13-28.72-23l-.45,0s-1.75,23.32,21.78,36.19c5.09,2.78,1.8.8,5.06,2.19,30.41,12.21,102.56-14.65,145.76-39.52a20.78,20.78,0,0,0,9.49-12h0Z"/><path class="cls-86" d="M1426.93,1002.24a93.9,93.9,0,0,0-40.06,8.93,14.66,14.66,0,0,1-.12,5.72c-1.55,7.91-13.93,18.15-14.54,26-.24,3,7.23,7.63,7.21,10.41-.05,8.36,6.85,25.71,9.61,29.58l132.1,0C1513.33,1037.07,1474.13,1002.24,1426.93,1002.24Z"/><path class="cls-87" d="M1571.68,944.73c-34.84,23.74-112.71,50.21-149.09,37.34-3.26-1.23.21.2-5.06-1.93-26.57-11.43-31.23-39.79-8.61-58.62-2.11,8.11-11.45,28-5.84,34.26,8.73,9.71,27.07,11.32,27,11.31l3.49.23C1466,968.28,1530.64,949.42,1571.68,944.73Z"/><path class="cls-12" d="M1584.39,889.47s24.43,2.19,24.43,27.59c0,0-16.19,4.37-18.66,11.48s-1.1,27.31-3,29.22-9.88,9.29-12.49,10-6.86-1.51-6.86-1.51a12.16,12.16,0,0,1-5.22,0c-2.06-.68-3.84-3.41-3.84-3.41s-8,.82-11-2.19-1.13-9.36,3.29-8.6c2.57.44,8.51.74,10-.76s4.94-4.16,4.94-7.85-1-11.06-1-11.06-1.23-5.05-6.45,6.69-5.76,12.43-9.88,10.79,5.15-26,10.16-31S1584.39,889.47,1584.39,889.47Z"/><path class="cls-12" d="M1467,889.49c-12.48,4.8-22.93,10.37-29.09,22.2-2.93,5.63-18.26,11.48-24.33,11.48-14.82,0,11.33-12.06,11.33-15s-5.19-1.91-12.08.75c-7.17,2.76-3.92,12.65-3.92,12.65s1,5.89-5.38,5.89-10.19-15.26-6.35-24,26.77-17.62,30.2-21,5.37-35.84,15.37-39.34c11-3.85,43.2,36.22,42.82,36.61C1482.16,883,1474.7,886.53,1467,889.49Z"/><g class="cls-13"><path class="cls-70" d="M1401.7,907.91c3.84-8.74,26.76-17.62,30.19-21s5.37-35.84,15.37-39.34c4.81-1.68,13.63,5,22,13.07-9.57-9.9-20.85-19.56-26.53-17.58-10,3.5-11.94,35.93-15.37,39.34s-26.35,12.29-30.2,21c-3.63,8.28-.39,22.4,5.36,23.88C1400,922.08,1399.19,913.61,1401.7,907.91Z"/></g><path class="cls-88" d="M1149.74,1042.18l.65,8.1a1,1,0,0,0,.35.67l.91.74a1,1,0,0,1-.62,1.72h-1a1,1,0,0,0-1,.8l-.06.34a1,1,0,0,0,.29.87h0a1,1,0,0,1-.13,1.52l-1.56,1a1,1,0,0,0-.38.49l-1.45,4.14a1,1,0,0,0,.49,1.19l13.44,6.49a1,1,0,0,0,1.13-.21l7.94-8.55a.93.93,0,0,0,.25-.64l.07-3a.86.86,0,0,1,0-.17l2.61-12.33a1,1,0,0,0-.8-1.16l-20.12-3A1,1,0,0,0,1149.74,1042.18Z"/><path class="cls-89" d="M1169.07,1061.24l-8.68,9.35-6.72-3.25c2.68-2,6.86-5.28,7.71-6.84,1-1.77-.37-12.7-1.08-17.94l11.7,1.76-2.85,13.43Z"/><path class="cls-90" d="M1172,1044.32c-3.76,14.07-3.2,14.41-3.24,16.8-2.35,2.59-6,6.56-8.37,9.47,2.66-2.55,6.45-6.55,9-9.23.21-6.26-.21-1.16,1.44-10.28C1171.23,1048.84,1171.64,1046.59,1172,1044.32Z"/><path class="cls-12" d="M1174.32,1044.76a1.08,1.08,0,0,0-.9-1.21l-25.24-3.82a1.07,1.07,0,0,0-1.21.9,1.06,1.06,0,0,0,.54,1.09,1.12,1.12,0,0,0,.35.12l25.24,3.82A1.07,1.07,0,0,0,1174.32,1044.76Z"/><path class="cls-91" d="M1225.87,1059.44c.24-.11,5-6.88,6.34-6.38s7.11,1.94,7.11,1.94-9.17,8.11-11.73,7.56S1225.87,1059.44,1225.87,1059.44Z"/><path class="cls-92" d="M1231.85,1053.07a3.06,3.06,0,0,1,2.28,1.7c.7,1.52-8.78,8.27-8.78,8.27l7.18,8.09s7.33-12.34,7.71-14v0a2.28,2.28,0,0,0-1.8-2.72Z"/><path class="cls-93" d="M1230.64,1068.87s9.09-3,11.49-1.62,2.56,5.91,2.56,5.91.9,1.28,1.43-1.15a10.61,10.61,0,0,0-2.17-8.41c-2-2.26-6.17-1.3-6.17-1.3l-4.49.81Z"/><path class="cls-94" d="M1233.16,1068.47c1.85-1.26,6.28-2.45,8.41-1.87,2.44.67,3.3,4,3.12,6.56C1243.3,1066.32,1239.83,1066.2,1233.16,1068.47Z"/><path class="cls-95" d="M1201.87,1055.6c-.09.25-1.7,3.68,6.47,8.37l.53.29s-1.54,2.41,1.41,5.51,15.94,2.91,18.92,2.62a81.8,81.8,0,0,0,10-2.36l-8.2-.79-.39-9.24s-13,.29-15.65-.2-4.57,2.3-4.57,2.3-4.19-4.29-5.25-7.52C1205.15,1054.58,1202.78,1053.14,1201.87,1055.6Z"/><path class="cls-96" d="M1221.6,1072.28c-5.11-.26-12.25-.81-12.92-5.87a3.32,3.32,0,0,1,.39-2.21l-.13-.07c-3.16-1.68-8.28-5.29-7.07-8.53-1.38,3.29,3.71,7,6.79,8.72-.87,1.73,0,3.94,1.16,5.2,3.23,3.8,17.44,3.46,20.73,2.81,1.47-.28,2.92-.64,4.36-1s2.87-.81,4.3-1.26C1231.58,1072.06,1229.36,1072.67,1221.6,1072.28Z"/><path class="cls-97" d="M1235.5,1068c-1-.59-3.18.16-4.72.81a23.85,23.85,0,0,0,4.24-2.8c.06-.26-2-5.1-2-5.1l-3.63,1.72a3.31,3.31,0,0,0-1,5.29l.06.06a6.66,6.66,0,0,0,4,2l5.66.78A8.74,8.74,0,0,0,1235.5,1068Z"/><path class="cls-98" d="M1204.73,1067.29a15.42,15.42,0,0,0,8.13.74c5.11-.7,6.86-2.94,10.1-3.43s8.16-.37,9.72.21A9.24,9.24,0,0,1,1235,1066a5.59,5.59,0,0,0-.59-3.28c-.88-1.92.51-2.53-1.78-4.2s-10.16-1.38-14.42,1-8.6,2.83-11.31,4.08S1203.94,1066.67,1204.73,1067.29Z"/><path class="cls-99" d="M1204.73,1067.29c3.37,1.27,8.24.92,11.48-.25,4-1.4,4.32-3,11.3-2.9,2.82,0,5.27.13,7.51,1.84-3.84-2.54-12.51-1.56-15.07-.16a20.19,20.19,0,0,1-7.48,2.41A15.69,15.69,0,0,1,1204.73,1067.29Z"/><path class="cls-100" d="M1248.73,1081.87c-4.37-1.13-5.66-4.94-5.7-8.19s-1.54-5.31-3.71-5.84a15.3,15.3,0,0,0-4.94-.12c2,.06,3.07,3,3.07,3s.38,8.31,4.06,12.17h12.14C1253.38,1082.55,1251.83,1082.67,1248.73,1081.87Z"/><path class="cls-70" d="M1233.29,1062.08c-3-.94-7.16-1.73-10.25-1.22-5.07.75-12,6.48-16.31,5.78,4.09.11,10.74-5.88,16.21-6.53A19.61,19.61,0,0,1,1233.29,1062.08Z"/></g></g></g></svg>