<svg xmlns="http://www.w3.org/2000/svg" xmlns:xlink="http://www.w3.org/1999/xlink" viewBox="0 0 473.512 160.149">
  <defs>
    <clipPath id="clip-path">
      <path d="M425.2,128.942a11.022,11.022,0,0,1-9.3-7.822,14.324,14.324,0,0,1-.54-3.428q-.109-2.02-.109-3.252,0-1.318.109-2.461a51.356,51.356,0,0,1,3.783-12.216q.864-1.934,1.514-3.516c.216-.527.359-.908.432-1.143a9.346,9.346,0,0,0,.6-1.142,9.791,9.791,0,0,0,.378-.967,4.889,4.889,0,0,0,.541-.967c.216-.469.432-.936.648-1.406s.414-.879.595-1.231a2.545,2.545,0,0,1,.378-.615,1.167,1.167,0,0,1,.216-.527,6.38,6.38,0,0,0,.433-.879c.143-.293.306-.659.486-1.1a8.1,8.1,0,0,1,.595-1.186c.144-.352.324-.761.54-1.231a11.975,11.975,0,0,1,.649-1.23c.143-.352.325-.761.54-1.231s.4-.908.541-1.318a8.23,8.23,0,0,0,.487-1.318,6.371,6.371,0,0,0,.162-1.582,8.62,8.62,0,0,0-.054-1.143,2.9,2.9,0,0,0-.162-.615.917.917,0,0,0-.433-.44,1.837,1.837,0,0,0-1.189-.615q-1.841,0-10.918,2.9c-.579.175-1.1.337-1.568.483a5.545,5.545,0,0,1-.811.22c-.073,0-.324.03-.757.088s-.9.146-1.4.263a20.706,20.706,0,0,1-3.784.484q-1.73.045-2.27.044a24.642,24.642,0,0,1-3.892-.264q-.757-.087-1.621-.176a12.551,12.551,0,0,1-2.379-.571,5.632,5.632,0,0,1-2.486-1.538,6.065,6.065,0,0,1-2.054-2.769,9.3,9.3,0,0,1-.649-3.3v-.879a15.031,15.031,0,0,1,.487-2.2q.38-1.319.756-2.593a11.3,11.3,0,0,1,.7-1.889q1.191-2.286,1.946-3.472a26.67,26.67,0,0,1,1.838-2.505A17.708,17.708,0,0,1,412.011,50.1c.649,0,1.26.031,1.838.088a14.959,14.959,0,0,1,2.757.615,8.225,8.225,0,0,1,2.108.967,5.509,5.509,0,0,1,1.135,1.626,4.722,4.722,0,0,1,.486,2.066q0,4.833-6.918,13.623-1.407,1.76-2.216,2.636a23.076,23.076,0,0,1-2.325,2.11,8.359,8.359,0,0,1-.756.791c-.146.118-.217.206-.217.263v.088c0,.059.109.088.324.088h.217a7.253,7.253,0,0,0,1.4-.176q1.19-.263,2.6-.7,1.728-.527,4.919-1.318t5.027-1.055a27.836,27.836,0,0,1,5.081-.527h.648a23.169,23.169,0,0,1,5.4.7q5.4,1.407,6.487,5.449a10.707,10.707,0,0,1,.324,2.725,16.23,16.23,0,0,1-.324,3.076,64.754,64.754,0,0,1-3.027,8.877q-.433.879-.757,1.714c-.216.558-.4.981-.541,1.274a5.7,5.7,0,0,1-.432,1.1q-.324.658-.649,1.362-.648,1.5-1.567,3.823t-1.568,4.175q-.432,1.318-1.189,3.648t-1.351,4.306q-.6,1.978-.7,2.505-.324,1.846-.378,2.637c-.038.527-.054.967-.054,1.318v.879a13.5,13.5,0,0,0,.108,1.67q.214.792.432,1.494a4.832,4.832,0,0,0,.325.879c.216.235.359.352.432.352h.216a2.171,2.171,0,0,0,.541-.176A25.744,25.744,0,0,0,432.5,123.1q1.89-1.536,4-3.471a49.281,49.281,0,0,0,3.514-3.516,39.466,39.466,0,0,0,2.757-3.164,32.908,32.908,0,0,0,2.107-2.9,16.472,16.472,0,0,0,1.027-1.45q.594-.924,1.136-1.714,1.512-2.373,3.729-6.021t4-6.723a32.168,32.168,0,0,0,1.784-3.252,1.627,1.627,0,0,1,.162-.44,6.617,6.617,0,0,1,.378-.7,26.413,26.413,0,0,0,1.514-2.9,9.882,9.882,0,0,0,.865-2.549,1.847,1.847,0,0,1,.27-.659.566.566,0,0,1,.486-.22,3.635,3.635,0,0,1,.649-.088,1.283,1.283,0,0,1,1.189.527,2.225,2.225,0,0,1,.108.791,6.327,6.327,0,0,1-.108,1.055,10.6,10.6,0,0,1-1.081,2.549c-.216.47-.415.893-.594,1.274a2.429,2.429,0,0,0-.271.747,1.437,1.437,0,0,1-.216.572q-.217.395-.432.835a6.9,6.9,0,0,0-.6.966q-.271.528-.486.967c-.146.294-.343.69-.6,1.187s-.667,1.245-1.243,2.241-1.406,2.432-2.487,4.307q-9.079,15.907-12.108,19.687a36.305,36.305,0,0,1-3.567,3.56,23.881,23.881,0,0,1-3.567,2.68,15.607,15.607,0,0,1-7.243,1.846A16.131,16.131,0,0,1,425.2,128.942ZM406.5,70.231a28.2,28.2,0,0,0,2.378-3.164,25.774,25.774,0,0,0,1.622-2.812c.144-.234.27-.453.378-.659a1.268,1.268,0,0,0,.163-.4,3.851,3.851,0,0,0,.486-.967q.269-.7.54-1.494a11.442,11.442,0,0,0,.379-1.318,20.805,20.805,0,0,0,.054-2.593,8.687,8.687,0,0,0-.271-2.065l-.324-.7-1.3.967a25.712,25.712,0,0,0-2.216,2.329,14.769,14.769,0,0,0-1.676,2.241c-.072.119-.2.338-.378.66s-.379.689-.6,1.1a22.08,22.08,0,0,0-1.513,3.867,25.091,25.091,0,0,0-.973,4.219v.791a8.047,8.047,0,0,0,.216,1.934l.216,1.142.757-.615a6.635,6.635,0,0,1,.865-1.011A10.547,10.547,0,0,0,406.5,70.231Z" style="fill: none"/>
    </clipPath>
    <clipPath id="clip-path-2">
      <path d="M365.958,102.4a16.014,16.014,0,0,1-6.594-6.24,12.312,12.312,0,0,1-1.135-2.593,19.033,19.033,0,0,1-.595-3.032,14.593,14.593,0,0,1-.108-1.758q0-7.733,5.081-15.644,5.19-7.647,10.162-10.02a16.777,16.777,0,0,1,6.378-1.23,20.275,20.275,0,0,1,3.244.263,10.19,10.19,0,0,1,4.648,1.934,5.591,5.591,0,0,1,2.378,4.57,8,8,0,0,1-.324,2.2,16.534,16.534,0,0,1-5.838,8.086,13.651,13.651,0,0,1-9.189,3.34h-1.838l-.107,1.143a12.529,12.529,0,0,0-.108,1.846q0,1.055.108,2.46a23.307,23.307,0,0,0,.54,4.571,13.98,13.98,0,0,0,4.108,7.558l1.081.967.973-.351a25.805,25.805,0,0,0,5.838-3.252,24.919,24.919,0,0,0,4.324-3.648,47.752,47.752,0,0,0,4.54-5.757q1.622-2.284,3.622-5.273t2.973-4.57a10.287,10.287,0,0,1,.594-.879,3.1,3.1,0,0,1,.379-.44,2.408,2.408,0,0,1,.54-.132,4.14,4.14,0,0,1,.433-.044l.432.088a1.867,1.867,0,0,1,.649.088.447.447,0,0,1,.108.352,8.83,8.83,0,0,1-1.081,2.988,1.75,1.75,0,0,0-.324.615q-2.271,4.4-5.514,9.58a48.115,48.115,0,0,1-7.567,9.317q-4.326,4.133-7.892,4.878a28.706,28.706,0,0,1-5.081.747A21.686,21.686,0,0,1,365.958,102.4Zm11.568-23.73a16.281,16.281,0,0,0,3.513-2.769,14.436,14.436,0,0,0,2.541-3.384,7.107,7.107,0,0,0,.486-2.021c.035-.585.054-1,.054-1.231a6.074,6.074,0,0,0-.216-1.757,5.149,5.149,0,0,0-1.243-1.538,7.335,7.335,0,0,0-1.892-1.275.693.693,0,0,0-.433-.176,1.2,1.2,0,0,0-.54.176,6.716,6.716,0,0,0-1.3,1.231,24.727,24.727,0,0,0-5.3,10.81q-.109.792-.217,1.362a2.643,2.643,0,0,1-.216.748v.175a.319.319,0,0,0,.108.264,1.251,1.251,0,0,0,.649.352,2.142,2.142,0,0,0,.865.263,2.926,2.926,0,0,0,.865-.176,6.264,6.264,0,0,0,.972-.395Q376.878,79.021,377.526,78.669Z" style="fill: none"/>
    </clipPath>
    <clipPath id="clip-path-3">
      <path d="M338.716,123.757a8.679,8.679,0,0,1-5.946-4.043,20.234,20.234,0,0,1-1.783-3.516,19.97,19.97,0,0,1-1.136-3.779,31.945,31.945,0,0,1-.54-6.592,143.939,143.939,0,0,1,1.3-16.963q.754-6.24.919-8.7t.162-3.692a15.614,15.614,0,0,0-.108-2.021,25.779,25.779,0,0,0-.541-2.856,5.265,5.265,0,0,0-.54-1.539h-.108a4.416,4.416,0,0,0-1.081.352q-.867.528-2.108,1.318a16.566,16.566,0,0,0-2.216,1.67q-5.084,4.044-10.594,12.393-5.407,8.262-6.379,13.183a6.128,6.128,0,0,1-.54,1.89,1.9,1.9,0,0,1-.974.835,11.222,11.222,0,0,1-3.783.615h-.541a6.867,6.867,0,0,1-3.567-1.054,2.645,2.645,0,0,1-.811-1.231,10.962,10.962,0,0,1-.378-2.593q-.107-1.8-.216-5.141v-2.9q0-2.723.107-4.834.11-3.075.757-7.91,3.677-29.795,12.541-43.418,6.269-10.458,15.135-10.459,7.024,0,9.189,5.274a16.655,16.655,0,0,1,.972,5.8q0,6.242-4,14.765Q324.338,63.9,313.419,72.78l-2.594,2.109-.325,3.78c-.145,1.054-.27,2.008-.378,2.856a16.855,16.855,0,0,0-.162,1.714v.44c.071,0,.216-.146.433-.44q.431-.526,1.405-1.758Q322.715,66.8,332.014,66.8a10.352,10.352,0,0,1,2.7.351,7.5,7.5,0,0,1,5.189,3.648q1.622,2.856,1.622,8.745,0,1.319-.162,3.471t-.379,4q-.865,8.262-1.135,12.393t-.27,9.228V114.7a14.656,14.656,0,0,0,.432,3.208,10.663,10.663,0,0,0,.973,2.241c.36.646.684.967.973.967h.108q.43,0,1.838-1.231,6.7-5.886,12.649-22.412.431-1.23,1.189-3.471t1.405-4.263q1.512-4.921,2.433-7.6t1.4-3.735q.486-1.055.919-1.142a1.437,1.437,0,0,1,.7-.176h.595a2.5,2.5,0,0,1,.649.088c.143,0,.232.118.27.351a4.021,4.021,0,0,1-.108,1.187,23.7,23.7,0,0,1-.7,2.505,167.3,167.3,0,0,1-10.594,29q-3.677,7.824-6.541,10.723a9.185,9.185,0,0,1-6.756,2.9h-1.514A6.308,6.308,0,0,1,338.716,123.757Zm-25.08-55.02a71.952,71.952,0,0,0,10.053-12.832q6.918-11.339,6.919-19.424a14.933,14.933,0,0,0-2.054-7.822q-.433-.613-.919-1.23a5.893,5.893,0,0,0-.81-.879l-.757-.616-.865.967q-8,7.734-12.108,32.256-.324,2.024-.7,4.482t-.649,4.439q-.272,1.977-.27,2.241v.4c0,.03.035.044.107.044l.109-.088a2.091,2.091,0,0,0,.594-.484q.378-.394,1.135-1.1Z" style="fill: none"/>
    </clipPath>
    <clipPath id="clip-path-4">
      <path d="M270.285,131.93q-1.622-.176-3.027-.4t-1.4-.4c0-.057-.038-.1-.108-.131a.565.565,0,0,0-.217-.044,3.856,3.856,0,0,1-1.135-.308q-.81-.308-1.783-.7a9.291,9.291,0,0,1-1.514-.747,23.929,23.929,0,0,1-3.676-2.857,23.02,23.02,0,0,1-2.81-3.032q-.65-1.141-1.405-2.417t-1.352-2.329q-.6-1.055-.811-1.406c-.072-.176-.18-.409-.324-.7a5.385,5.385,0,0,1-.325-.791,6.5,6.5,0,0,1-.486-1.055,15.218,15.218,0,0,1-.486-1.494c-.146-.469-.289-.908-.433-1.318a3.269,3.269,0,0,1-.216-.791,7.844,7.844,0,0,1-.649-2.242q-.324-1.713-.648-4.087c-.071-.76-.163-1.507-.27-2.241s-.2-1.3-.27-1.714a29.558,29.558,0,0,1-.109-3.208V92.336q0-2.769.054-4.878a11.652,11.652,0,0,1,.162-2.285.758.758,0,0,0,.27-.484,3.623,3.623,0,0,0,.055-.659,21.548,21.548,0,0,1,.216-2.285q.218-1.668.54-3.691t.649-3.516q.324-1.494.433-1.846a7.092,7.092,0,0,0,.378-1.142q.268-.967.595-2.286a21.2,21.2,0,0,1,.486-2.285,6.75,6.75,0,0,1,.378-1.142.576.576,0,0,1,.055-.22.623.623,0,0,0,.053-.22,1.207,1.207,0,0,1,.109-.351q.107-.264.216-.616t.378-1.186c.179-.557.341-1.156.487-1.8q.324-.966.54-1.626a3.832,3.832,0,0,0,.216-.835,2.042,2.042,0,0,0,.325-.615,12.1,12.1,0,0,0,.432-1.318q.216-.7.487-1.494c.178-.528.305-.937.378-1.231.143-.293.324-.688.54-1.186a13.86,13.86,0,0,0,.541-1.451,8.931,8.931,0,0,0,.487-1.274,1.679,1.679,0,0,1,.27-.659v-.088c0-.058-.038-.088-.108-.088a5.617,5.617,0,0,0-.757.088q-.649,0-2.486.132t-3.73.219q-1.89.089-2.649.088h-2.919c-.5,0-.972-.013-1.405-.044a1.958,1.958,0,0,1-.757-.131,1.8,1.8,0,0,0-.648-.176,7.5,7.5,0,0,0-1.189-.088q-.756-.087-1.46-.176t-1.135-.176a30.991,30.991,0,0,1-4.432-.879c0-.057-.144-.131-.433-.219s-.611-.19-.973-.308a19.066,19.066,0,0,1-5.351-2.373,9.929,9.929,0,0,1-3.513-3.252,3.986,3.986,0,0,0-.325-.747c-.143-.264-.251-.453-.324-.571a1.729,1.729,0,0,1-.27-.923q-.054-.66-.054-1.45a9.987,9.987,0,0,1,.108-1.758,3.272,3.272,0,0,1,.432-1.055,3.193,3.193,0,0,0,.324-.659,1.633,1.633,0,0,0,.109-.4c0-.057.091-.189.27-.395a5.908,5.908,0,0,1,.7-.659,12.245,12.245,0,0,1,3.838-2.637,10.441,10.441,0,0,1,4.27-1.055q.543,0,.973.044a1.257,1.257,0,0,1,.541.132,1.919,1.919,0,0,0,.432.22,4.256,4.256,0,0,0,.757.22q1.621.441,1.622,1.406a4.13,4.13,0,0,1-.379,1.274,12.112,12.112,0,0,1-1.135,2.066,4.113,4.113,0,0,0-.432.879,4.83,4.83,0,0,0-.162.878q-.054.528-.055,1.5a13,13,0,0,0,.055,1.362,4.777,4.777,0,0,0,.162.835,3.087,3.087,0,0,0,.324.7,13.137,13.137,0,0,0,1.838,1.758,9.154,9.154,0,0,0,2.27,1.406c.362.118.7.234,1.027.352a2.542,2.542,0,0,1,.7.351,11.393,11.393,0,0,0,2.756.572,34.353,34.353,0,0,0,3.947.219q1.513,0,3.783-.132t4.27-.307a23.153,23.153,0,0,0,2.757-.352,3.025,3.025,0,0,0,.811-.22,1.236,1.236,0,0,0,.486-.483,10.422,10.422,0,0,0,.54-1.055q.216-.44.757-1.362t1.081-1.8q.756-1.23,1.46-2.373t2.108-3.164q.214-.264.594-.747a10.7,10.7,0,0,0,.7-1.011,9.12,9.12,0,0,0,.7-.791,1.28,1.28,0,0,0,.27-.439l.324-.44a4.719,4.719,0,0,1,.649-.791c.287-.351.558-.672.811-.966a5.922,5.922,0,0,0,.486-.616,2.177,2.177,0,0,0,.379-.395.888.888,0,0,1,.378-.308,1.181,1.181,0,0,1,.271-.307c.108-.088.162-.161.162-.22,0-.117.341-.5,1.027-1.143s1.476-1.362,2.378-2.153,1.747-1.479,2.541-2.065a13.9,13.9,0,0,1,7.134-2.989c.72-.057,1.441-.088,2.162-.088a19.649,19.649,0,0,1,3.676.352,6.836,6.836,0,0,1,2.054,1.011,6.218,6.218,0,0,1,1.621,1.538,8.466,8.466,0,0,1,.757,3.955,27.6,27.6,0,0,1-.54,4.922q-.218,1.319-.487,2.329c-.18.674-.307,1.129-.378,1.362a.628.628,0,0,1-.054.22.59.59,0,0,0-.054.22V35.6a.672.672,0,0,1-.108.352,3.733,3.733,0,0,0-.487,1.1q-.27.836-.54,1.8c-.181.646-.324,1.217-.433,1.714s-.162.778-.162.835h.324a1.144,1.144,0,0,0,.433-.088,38.394,38.394,0,0,1,6.108-.527q4.7-.175,9.784-.176a52.762,52.762,0,0,1,7.242.352,12.934,12.934,0,0,1,1.622.263,3.561,3.561,0,0,1,.865.264,6.041,6.041,0,0,0,.756.22q.54.132,1.19.307.755.264,1.675.572a14.608,14.608,0,0,1,1.568.615,2.637,2.637,0,0,1,.865.571l.216.088a1.658,1.658,0,0,0,.432.264,1.546,1.546,0,0,1,.7.527,2.786,2.786,0,0,1,.54.923,2.676,2.676,0,0,1,.163.835q-.543,1.406-.973,1.406a.564.564,0,0,0-.216.044c-.073.03-.108.074-.108.132,0,.118-.2.22-.6.308a8.443,8.443,0,0,1-1.189.175c-.4.031-.74.044-1.027.044h-.865a11.289,11.289,0,0,1-2.054-.351,2.6,2.6,0,0,1-1.189-.528c0-.057-.092-.131-.27-.219a3.415,3.415,0,0,0-.595-.22,8.77,8.77,0,0,1-2.811-2.109,3.8,3.8,0,0,0-2-1.011,22.739,22.739,0,0,0-4.486-.308h-1.406q-1.621,0-3.459.088-2.7.089-4.919.264a11.1,11.1,0,0,0-2.54.351,4.691,4.691,0,0,1-.973.176q-.758.088-1.838.176c-.794.058-1.388.118-1.783.176a2.38,2.38,0,0,0-.811.219,3.8,3.8,0,0,0-.433.308.6.6,0,0,0-.108.264l-.108.175c.071,0,.108.031.108.088l-.108.176a2.48,2.48,0,0,0-.378.615A8.986,8.986,0,0,0,287.69,48c-.216.47-.416.923-.594,1.362a7.422,7.422,0,0,1-.487,1.011q-.324.615-.973,1.934t-1.3,2.636a20.037,20.037,0,0,0-.865,1.934,3.351,3.351,0,0,0-.324.659.961.961,0,0,1-.216.4,2.523,2.523,0,0,0-.379.527,11.3,11.3,0,0,0-.6,1.142,7.131,7.131,0,0,1-.486,1.1,2.644,2.644,0,0,1-.378.571,1.91,1.91,0,0,0-.325.484c-.145.263-.324.571-.54.923q-.649,1.405-4.433,7.382a4.538,4.538,0,0,1-.594.879q-.486.617-1.135,1.319l-1.3,1.758a4.7,4.7,0,0,1-.7.878q-.705.792-1.622,1.67t-1.459,1.5a11.178,11.178,0,0,1-4.757,2.636l-1.081.264-.216,1.23q-.434,4.132-.486,7.735t-.055,5.01q0,4.042.217,7.207.106,2.2.378,4.262t.432,3.516a7.434,7.434,0,0,0,.271,1.626,1.011,1.011,0,0,1,.216.439c.071.235.143.5.216.791a16.961,16.961,0,0,0,.378,1.978q.27,1.1.487,2.021a3.313,3.313,0,0,0,.432,1.187,2.008,2.008,0,0,0,.217.659c.143.322.287.69.432,1.1a17.184,17.184,0,0,0,5.621,7.734,5.3,5.3,0,0,0,1.19.791,2.034,2.034,0,0,0,.756.176h.216a5.087,5.087,0,0,0,.974-.44,8.6,8.6,0,0,1,.919-.395,2.032,2.032,0,0,1,.486-.132,5.706,5.706,0,0,0,1.081-.7q.972-.7,2-1.582t1.567-1.406a11.151,11.151,0,0,1,1.027-1.143c.468-.469.919-.936,1.352-1.406s.827-.893,1.189-1.275a3.487,3.487,0,0,0,.649-.835c.143-.175.378-.483.7-.922s.666-.923,1.027-1.451l1.081-1.582a11.117,11.117,0,0,0,.757-1.23,9,9,0,0,1,.433-.791,1.978,1.978,0,0,1,.324-.44,1.913,1.913,0,0,1,.27-.527q.269-.44.6-1.055l.648-1.23a6.162,6.162,0,0,0,.433-.967,4.1,4.1,0,0,0,.486-.879c.179-.409.341-.791.487-1.142a6.76,6.76,0,0,1,.432-1.011,1.884,1.884,0,0,1,.324-.483,8.767,8.767,0,0,0,.379-.792q.269-.614.594-1.406a10.063,10.063,0,0,1,.487-1.406,2.6,2.6,0,0,1,.378-.7.328.328,0,0,1,.054-.176.332.332,0,0,0,.054-.176,3.867,3.867,0,0,1,.27-.7q.27-.613.541-1.45t.541-1.494q.269-.66.378-.923t.433-1.011q.322-.745.648-1.714.324-.877.6-1.626a6.5,6.5,0,0,1,.378-.922,17.525,17.525,0,0,0,.865-2.11q.648-1.758,1.3-3.691t.865-2.725v-.176q.324-.877.757-2.241a18.725,18.725,0,0,1,.756-2.065,1.192,1.192,0,0,1,1.19-.7h.432c.649,0,1.044.088,1.189.263a1.191,1.191,0,0,1,.324.967,3.453,3.453,0,0,1-.107.791,14.766,14.766,0,0,1-.433,2.109q-.433,1.759-.973,4.043-.867,3.078-1.946,5.889-.541,1.669-1.189,3.428-.324.967-.649,1.89c-.216.615-.361,1.069-.432,1.362-.146.351-.324.791-.541,1.318a11.817,11.817,0,0,0-.54,1.67q-.324.791-.541,1.362a2.121,2.121,0,0,1-.324.66,2.625,2.625,0,0,0-.378.747,10.005,10.005,0,0,0-.487,1.626c-.216.586-.416,1.1-.594,1.538a2.783,2.783,0,0,1-.379.747,1.516,1.516,0,0,0-.27.571q-.162.483-.379,1.187-.324.615-.648,1.362t-.541,1.274a6.6,6.6,0,0,0-.486.923,2.087,2.087,0,0,0-.162.484,9.707,9.707,0,0,1-1.081,2.329q-1.083,1.977-2.379,4.043t-2.054,3.032c-.216.294-.4.542-.54.747a1.1,1.1,0,0,0-.217.395c0,.119-.307.484-.919,1.1s-1.351,1.333-2.215,2.153a17.929,17.929,0,0,1-5.189,3.34,22.548,22.548,0,0,1-2.865,1.011,13.242,13.242,0,0,1-2,.308q-.757,0-1.406.044a3.457,3.457,0,0,0-.865.131c-.216,0-.54-.013-.972-.044S270.861,131.93,270.285,131.93Zm-3.243-55.986c.36-.469.665-.848.919-1.142a1.775,1.775,0,0,0,.378-.528.833.833,0,0,1,.217-.351,5.845,5.845,0,0,0,.432-.616,46.688,46.688,0,0,0,2.919-4.218q1.836-2.9,3.621-5.889t2.649-4.746l.649-1.231q.322-.614.54-1.054a8.558,8.558,0,0,0,.756-1.67,3.859,3.859,0,0,1,.271-.659q.162-.308.27-.484a2.282,2.282,0,0,0,.487-.835q.269-.659.594-1.45.324-.877.595-1.494a3.9,3.9,0,0,0,.27-.7l.216-.176V48.61a.33.33,0,0,1,.054-.176.737.737,0,0,1,.162-.175c.071-.234.163-.513.271-.835a8.366,8.366,0,0,1,.324-.835,1.616,1.616,0,0,0,.162-.44c0-.117-.037-.176-.108-.176s-.578.059-1.513.176-2.019.25-3.243.4-2.343.294-3.352.439-1.621.25-1.837.308a1.527,1.527,0,0,1-.541.176c-.289.058-.578.118-.865.175l-1.081.088-.54,1.582c-.217.47-.4.879-.541,1.231a2.4,2.4,0,0,0-.216.7,2.917,2.917,0,0,0-.379.835A14.127,14.127,0,0,0,269.1,53.8q-.324.879-.6,1.626a2.975,2.975,0,0,1-.378.835,5.2,5.2,0,0,0-.324,1.054c-.146.586-.324,1.289-.541,2.11q-.324,1.142-.594,2.065a6.907,6.907,0,0,1-.379,1.1,15.39,15.39,0,0,0-.648,2.593q-.433,2.154-.865,4.877c-.073.7-.162,1.319-.271,1.846a4.091,4.091,0,0,1-.27.967,4.219,4.219,0,0,0-.27,1.011q-.162.836-.324,1.889c-.108.7-.2,1.363-.271,1.978s-.108,1.011-.108,1.186c0,.059.036.088.108.088a1.733,1.733,0,0,0,.541-.263,11.944,11.944,0,0,0,1.405-1.143Q266.176,76.824,267.042,75.944ZM277.1,43.073l3.243-.439a2.4,2.4,0,0,1,.811-.176q.7-.087,1.675-.176c.649-.117,1.206-.2,1.676-.264s.7-.117.7-.175a1.863,1.863,0,0,0,.27-.7c.108-.409.233-.878.378-1.406s.27-1.024.378-1.494a5.165,5.165,0,0,0,.163-.967,1.161,1.161,0,0,1,.054-.351.526.526,0,0,1,.162-.264,3.787,3.787,0,0,0,.216-1.055q.107-.877.162-2.065t.054-2.066c0-.584-.072-.908-.216-.966a.6.6,0,0,1-.162-.352,3.025,3.025,0,0,1-.054-.615,7.391,7.391,0,0,0-.216-1.494c-.146-.645-.308-1.244-.487-1.8a6.8,6.8,0,0,0-.378-1.011.354.354,0,0,0-.216-.088.345.345,0,0,0-.216.088l-.433.352a3.99,3.99,0,0,0-.324.439l-.217.264a.69.69,0,0,1-.162.308,2.172,2.172,0,0,1-.378.395,46.241,46.241,0,0,0-5.837,8.262q-.759,1.232-1.352,2.2a12.188,12.188,0,0,0-.7,1.231,1.792,1.792,0,0,0-.432.7,7.313,7.313,0,0,1-.541,1.054c-.145.352-.324.734-.54,1.143s-.4.733-.541.967a2.5,2.5,0,0,0-.324.791v.176h.216a7.093,7.093,0,0,1,1.189-.22Q275.691,43.161,277.1,43.073Z" style="fill: none"/>
    </clipPath>
    <clipPath id="clip-path-5">
      <path d="M215.692,102.4a16.014,16.014,0,0,1-6.594-6.24,12.318,12.318,0,0,1-1.136-2.593,19.041,19.041,0,0,1-.594-3.032,14.593,14.593,0,0,1-.108-1.758q0-7.733,5.081-15.644,5.189-7.647,10.161-10.02a16.778,16.778,0,0,1,6.379-1.23,20.263,20.263,0,0,1,3.243.263,10.186,10.186,0,0,1,4.648,1.934,5.589,5.589,0,0,1,2.379,4.57,8.036,8.036,0,0,1-.324,2.2,16.547,16.547,0,0,1-5.838,8.086,13.655,13.655,0,0,1-9.189,3.34h-1.838l-.108,1.143a12.529,12.529,0,0,0-.108,1.846q0,1.055.108,2.46a23.384,23.384,0,0,0,.54,4.571A13.987,13.987,0,0,0,226.5,99.85l1.081.967.974-.351a25.831,25.831,0,0,0,5.837-3.252,24.845,24.845,0,0,0,4.324-3.648,47.847,47.847,0,0,0,4.541-5.757q1.622-2.284,3.621-5.273t2.973-4.57a10.044,10.044,0,0,1,.595-.879,3.115,3.115,0,0,1,.378-.44,2.418,2.418,0,0,1,.541-.132,4.1,4.1,0,0,1,.432-.044l.432.088a1.863,1.863,0,0,1,.649.088.447.447,0,0,1,.108.352,8.807,8.807,0,0,1-1.081,2.988,1.767,1.767,0,0,0-.324.615q-2.271,4.4-5.513,9.58A48.083,48.083,0,0,1,238.5,99.5q-4.324,4.133-7.892,4.878a28.711,28.711,0,0,1-5.08.747A21.679,21.679,0,0,1,215.692,102.4Zm11.567-23.73a16.257,16.257,0,0,0,3.513-2.769,14.436,14.436,0,0,0,2.541-3.384A7.112,7.112,0,0,0,233.8,70.5q.053-.878.053-1.231a6.112,6.112,0,0,0-.215-1.757,5.154,5.154,0,0,0-1.244-1.538,7.318,7.318,0,0,0-1.892-1.275.691.691,0,0,0-.432-.176,1.207,1.207,0,0,0-.541.176,6.716,6.716,0,0,0-1.3,1.231,24.727,24.727,0,0,0-5.3,10.81c-.073.528-.146.982-.216,1.362a2.634,2.634,0,0,1-.217.748v.175a.316.316,0,0,0,.109.264,1.251,1.251,0,0,0,.648.352,2.142,2.142,0,0,0,.865.263,2.926,2.926,0,0,0,.865-.176,6.265,6.265,0,0,0,.973-.395Q226.61,79.021,227.259,78.669Z" style="fill: none"/>
    </clipPath>
    <clipPath id="clip-path-6">
      <path d="M151.153,149.948q-9.835-1.319-11.892-10.723a17.558,17.558,0,0,1-.324-3.515v-.967a19.508,19.508,0,0,1,.433-4.395,26.563,26.563,0,0,1,14.594-17.666,61.046,61.046,0,0,1,15.026-4.57q2.052-.349,4.324-.835t3.946-.879a12.346,12.346,0,0,0,1.784-.483,29.962,29.962,0,0,0,1.081-3.823q.864-3.472,1.784-7.911t1.459-7.69v-.264c-.072,0-.181.119-.324.352q-.434.615-1.838,2.9-5.732,9.052-9.189,10.635a11.6,11.6,0,0,1-3.567.835q-1.839.132-2.919.132a17.667,17.667,0,0,1-2.595-.176,14.528,14.528,0,0,1-2.811-.835,8.976,8.976,0,0,1-2.27-1.274,10.771,10.771,0,0,1-1.837-2.241,8.784,8.784,0,0,1-1.189-2.857,13.7,13.7,0,0,1-.433-3.6,21.893,21.893,0,0,1,.324-3.6,31.485,31.485,0,0,1,2.379-8.086,34.569,34.569,0,0,1,5.675-8.35,20.837,20.837,0,0,1,6.865-5.185,23.037,23.037,0,0,1,8.108-1.582,18.845,18.845,0,0,1,6.486,1.142,11.481,11.481,0,0,1,2.919,1.89,17.01,17.01,0,0,1,2.378,2.329,1.589,1.589,0,0,0,.541.747,2.125,2.125,0,0,0,.864.308q2.271.615,3.838,4.087a24.7,24.7,0,0,1,1.892,8.569v1.319q0,2.724-.324,6.24a75.267,75.267,0,0,1-1.189,8l-.108.615,1.513-1.23a38.017,38.017,0,0,0,6-5.889q3.188-3.778,8.919-11.69a16.871,16.871,0,0,1,1.405-1.8,2.6,2.6,0,0,1,.919-.7,2.145,2.145,0,0,1,.7-.132,2.491,2.491,0,0,1,.648.088,4.614,4.614,0,0,1,.649.131c.071.031.108.1.108.22a1.256,1.256,0,0,1-.108.352,43.78,43.78,0,0,1-2.487,3.867q-2.163,3.163-4.648,6.548a57.115,57.115,0,0,1-3.892,4.878,53.889,53.889,0,0,1-7.783,6.855q-1.083.792-1.676,1.231a3.739,3.739,0,0,0-.811.747,1.008,1.008,0,0,0-.216.571q-.434,2.023-1.352,5.537t-1.567,5.625a77.247,77.247,0,0,1-9.892,20.523q-6.218,9.007-13.026,12.876a25.5,25.5,0,0,1-7.244,2.548,17.362,17.362,0,0,1-3.837.44h-2.54A32.619,32.619,0,0,1,151.153,149.948Zm5.621-3.691A20.509,20.509,0,0,0,162.4,141.6a52.967,52.967,0,0,0,6.27-8.349q5.4-8.7,9.189-22.5l.757-2.637-6.162,1.406q-2.595.617-4.811,1.187t-2.973.835a35.943,35.943,0,0,0-4.108,1.406,32.023,32.023,0,0,0-3.567,1.67,22.512,22.512,0,0,0-9.622,10.547,24.4,24.4,0,0,0-1.513,8.262,22.027,22.027,0,0,0,.648,5.273q1.731,6.5,6.811,7.91a4.584,4.584,0,0,0,1.189.176h.432A7.281,7.281,0,0,0,156.774,146.257Zm14.811-51.68a22.268,22.268,0,0,0,3.405-2.813q1.89-1.845,3.513-3.691,5.081-6.328,6.162-11.426a25.727,25.727,0,0,1,.649-2.592,15.419,15.419,0,0,1,.649-1.714q.107-.351.162-.528a.535.535,0,0,0-.054-.395,3.24,3.24,0,0,0-.541-.659,13.053,13.053,0,0,0-3.513-3.033,7.452,7.452,0,0,0-3.514-1.362q-1.081,0-2.594,1.89a19.366,19.366,0,0,0-2.7,4.79,37.991,37.991,0,0,0-1.513,4.746q-.758,2.9-1.189,5.361-.219,1.5-.433,3.823t-.216,3.956v3.647q0,.879.325.879a4.6,4.6,0,0,0,1.3-.7A.239.239,0,0,0,171.585,94.577Z" style="fill: none"/>
    </clipPath>
    <clipPath id="clip-path-7">
      <path d="M119.262,107.5a17.994,17.994,0,0,1-9.189-3.164q-4.647-3.779-5.189-8a55.281,55.281,0,0,1-.541-5.713,32.779,32.779,0,0,1,2.7-12.393,14.494,14.494,0,0,0,.54-1.45,2.43,2.43,0,0,0,.108-.571.318.318,0,0,0-.108-.264,4.986,4.986,0,0,1-.216-.879,8.289,8.289,0,0,1-.108-1.406V72.6a13.46,13.46,0,0,1,1.405-5.713q2.595-5.886,9.73-7.119a26.254,26.254,0,0,1,4.378-.395,29.948,29.948,0,0,1,4.487.219,23.334,23.334,0,0,1,10.053,4.483,20.485,20.485,0,0,1,6.7,8.35A11.088,11.088,0,0,1,145.1,75.68a31.43,31.43,0,0,1,.216,4.219v3.34l1.3-.7q2.054-1.055,4.595-2.593t4.378-2.768q1.838-1.318,3.568-2.681t2.919-2.461q1.188-1.1,1.189-1.274c0-.352.143-.541.432-.572s.5-.044.649-.044a2.152,2.152,0,0,1,1.189.352.624.624,0,0,1,.432.615v.176a6.954,6.954,0,0,1-1.3,1.67q-.757.79-2.541,2.329t-3.783,3.12q-2,1.582-3.406,2.549-1.946,1.232-4.215,2.505a37.772,37.772,0,0,1-4.217,2.065q-.865.352-1.3.572a1.675,1.675,0,0,0-.594.439.791.791,0,0,0-.163.483,15.92,15.92,0,0,1-1.081,2.989q-.867,1.934-1.729,3.515a40.745,40.745,0,0,1-6,7.866,20.365,20.365,0,0,1-6.649,4.791,21.358,21.358,0,0,1-7.891,1.406C120.522,107.585,119.911,107.555,119.262,107.5Zm18.81-21.885a1.837,1.837,0,0,0,.27-.7c.109-.409.234-.908.379-1.494a25.51,25.51,0,0,0,.216-3.252,17.684,17.684,0,0,0-4.757-12.041,22.794,22.794,0,0,0-5.189-4.043,11.617,11.617,0,0,0-5.081-1.758,4.731,4.731,0,0,0-1.892.352,6.847,6.847,0,0,0-1.783,1.23,6.078,6.078,0,0,0-1.352,1.362q-.7.924-1.135,1.626a2.434,2.434,0,0,0-.432.967v.088h.54a6.116,6.116,0,0,0,.974-.088,17.018,17.018,0,0,1,3.134-.263q.864,0,1.73.087a19.03,19.03,0,0,1,4.216.791,4.967,4.967,0,0,1,1.135.835,1.359,1.359,0,0,1,.487.923,3.324,3.324,0,0,1-.379.923,11.63,11.63,0,0,1-1.027,1.626q-.542.969-1.189,2.066t-.973,1.8q-.434,1.054-1.027,2.549t-.973,2.813a9.433,9.433,0,0,0-.378,1.582q0,.263,1.081.7a19.6,19.6,0,0,0,2.7.835q1.621.394,3.243.659h4.108q1.3,0,2.27-.088C137.64,85.642,138,85.612,138.072,85.612ZM126.4,101.345a32.753,32.753,0,0,0,8.54-8.614q.649-1.054,1.189-2.065t.865-1.67a2.6,2.6,0,0,0,.324-.923v-.088h-.54q-.542.088-1.405.176-1.191.088-2.919.088h-1.838a39.264,39.264,0,0,1-5.081-.44,2.889,2.889,0,0,1-.757-.088,9.127,9.127,0,0,0-1.513-.175,1.454,1.454,0,0,0-.541.088q-.324.177-.54,1.406a2.2,2.2,0,0,1-.108.615,37.224,37.224,0,0,0-.541,5.889,14.229,14.229,0,0,0,.973,5.713q.431.879.649,1.23a.628.628,0,0,0,.54.352,2.151,2.151,0,0,0,.757-.264q.324-.176.919-.527A8.611,8.611,0,0,0,126.4,101.345Z" style="fill: none"/>
    </clipPath>
    <clipPath id="clip-path-8">
      <path d="M77.533,139.753a9.909,9.909,0,0,1-2.378-1.538,11.838,11.838,0,0,1-2.054-2.242q-3.567-5.36-5.081-26.63-.543-7.911-.7-15.689t-.162-24.39q0-11.337.054-16.787t.27-8.3q.216-2.856.757-6.636.215-1.406.487-3.56t.378-3.911q.324-2.722.648-4.262a12.857,12.857,0,0,1,.649-2.286,3.063,3.063,0,0,1,.865-1.186q.43-.264.865-.527a3.017,3.017,0,0,1,.757-.352,2.449,2.449,0,0,0,.648-.088l.216-.088q0-.176-1.567-.791T68.56,19.211A33.07,33.07,0,0,0,64.668,18.2a40.983,40.983,0,0,0-9.729-1.406A27.19,27.19,0,0,0,46.507,18.2,60.116,60.116,0,0,0,20.021,34.9q-.758.792-1.3,1.406t-.811.923c-.181.206-.27.338-.27.4l-.108.176.108.175a.233.233,0,0,0,.108.176c.143.059.216.132.216.22a4,4,0,0,1-.054.483q-.055.352-.162,1.055a4.277,4.277,0,0,0-.325,1.318.779.779,0,0,0,.325.616,3.756,3.756,0,0,0,1.189.527,2.94,2.94,0,0,1,1.135.791,1.71,1.71,0,0,1,.594.967c0,.058-.09.176-.27.351s-.378.382-.594.616a2.6,2.6,0,0,1-.865.483,4.247,4.247,0,0,1-1.189.132,14.128,14.128,0,0,1-2.6-.264,6.968,6.968,0,0,1-2.162-.7,2.592,2.592,0,0,1-1.622-2.461,8.454,8.454,0,0,1,1.838-4.57q9.511-14.061,28.216-20.83,6.81-2.46,10.324-2.593t4.162-.132a61.49,61.49,0,0,1,13.513,1.758,59.651,59.651,0,0,1,9.621,2.944,111.964,111.964,0,0,1,11.027,5.4q10.055,5.363,14.594,7.3a32.894,32.894,0,0,0,11.568,2.373,21.136,21.136,0,0,0,8.756-1.845,19.4,19.4,0,0,0,4.649-3.736q2.161-2.326,2.378-3.735V24.44q0-1.055,1.514-2.109a4.54,4.54,0,0,1,2.324-.967q1.136-.087,1.567-.088a6.828,6.828,0,0,1,2.379.44,3.542,3.542,0,0,1,.757.615,2.1,2.1,0,0,1,.432,1.142.628.628,0,0,1,0,.7,3.114,3.114,0,0,1-.649.966c-.216.294-.523.7-.919,1.231s-.81,1.085-1.243,1.67a19.083,19.083,0,0,1-5.3,4.922,26.814,26.814,0,0,1-10.378,3.427,51.64,51.64,0,0,1-6.7.352,51.1,51.1,0,0,1-7.242-.44,45.983,45.983,0,0,1-9.136-2.2,92.617,92.617,0,0,1-11.4-5.361,8.563,8.563,0,0,0-2.378-1.055c-.073,0-.108.03-.108.088a4.938,4.938,0,0,1,.378,2.373q.054,2.023.054,4.483t-.108,4.394q-.648,6.416-2.27,17.227-3.029,21.8-3.027,51.767v3.428q0,11.6.648,17.578.756,6.855,2.595,8.613a5.051,5.051,0,0,1,.7.791.948.948,0,0,1,.162.352v.176a.242.242,0,0,1-.108.176,1.945,1.945,0,0,1-1.459.834,11.623,11.623,0,0,1-2.217.22h-.757A6.853,6.853,0,0,1,77.533,139.753Z" style="fill: none"/>
    </clipPath>
  </defs>
  <title>資產 1</title>
  <g id="圖層_2" data-name="圖層 2">
    <g id="圖層_1-2" data-name="圖層 1">
      <g style="clip-path: url(#clip-path)">
        <path d="M395.778,80.175l11-7,10-14-1-6-5-1-9,5-4,9v5l3,3,7,3,14-4h8l4,5s-2,10-2,11-6,10-6,11,0,5-1,6-1,3-1,5v8l2,7,4,1,9-6,15-22,10-19" style="fill: none;stroke: #000;stroke-miterlimit: 10;stroke-width: 22px"/>
      </g>
      <g style="clip-path: url(#clip-path-2)">
        <polyline points="356.778 80.175 370.778 81.175 377.778 80.175 385.778 73.175 386.778 66.175 383.778 64.175 380.778 63.175 372.778 66.175 368.778 72.175 365.778 82.175 365.778 93.175 368.778 99.175 375.778 103.175 382.778 101.175 393.778 91.175 402.778 75.175" style="fill: none;stroke: #000;stroke-miterlimit: 10;stroke-width: 22px"/>
      </g>
      <g style="clip-path: url(#clip-path-3)">
        <path d="M295.778,73.175h15l6-6,7-8,6-9,3-12-1-8-3-5-4-1-6,4-6,10-4,17-5,16-1,29,9-15,10-11,5-5,6-1,3,4s-2,14-2,15-1,17-1,17l2,11,5,7h5l7-8,7-17,7-21" style="fill: none;stroke: #000;stroke-miterlimit: 10;stroke-width: 22px"/>
      </g>
      <g style="clip-path: url(#clip-path-4)">
        <polyline points="244.778 80.175 260.778 81.175 267.778 77.175 279.778 61.175 287.778 42.175 291.778 29.175 286.778 23.175 279.778 23.175 265.778 43.175 264.556 47.451 257.778 71.175 252.778 93.175 256.778 112.175 262.778 125.175 270.778 130.175 279.778 128.175 289.778 116.175 299.778 95.175 305.778 74.175 332.778 54.175 327.778 34.175 305.778 25.175 289.778 14.175 257.778 15.175 229.778 17.175 235.778 25.175 227.778 35.175 229.778 42.175 236.778 46.175 243.778 48.175 261.778 47.175 278.778 45.175 298.778 42.175 317.778 43.175 326.778 48.175" style="fill: none;stroke: #000;stroke-miterlimit: 10;stroke-width: 22px"/>
      </g>
      <g style="clip-path: url(#clip-path-5)">
        <polyline points="206.778 76.175 217.778 80.175 222.778 81.175 227.778 80.175 233.778 76.175 237.778 69.175 233.778 64.175 227.778 63.175 220.778 66.175 216.778 76.175 214.778 92.175 219.778 98.175 222.778 103.175 233.778 101.175 243.778 90.175 253.778 73.175" style="fill: none;stroke: #000;stroke-miterlimit: 10;stroke-width: 22px"/>
      </g>
      <g style="clip-path: url(#clip-path-6)">
        <path d="M191.778,77.175l-6-9-6-3-10,2-2,9-6,10,5,10,6,1,13-16,6-8,2,15-7,23s-4,14-5,14-16,17-16,17l-9,6s-14-4-14-6,1-16,1-16l10-11,10-5,18-4,16-8,15-17,3-6" style="fill: none;stroke: #000;stroke-miterlimit: 10;stroke-width: 22px"/>
      </g>
      <g style="clip-path: url(#clip-path-7)">
        <polyline points="126.278 66.675 115.278 77.675 111.778 95.175 117.778 103.175 124.778 105.175 134.778 96.175 141.778 87.175 141.778 75.175 137.778 67.175 129.778 62.175 122.778 60.175 114.778 62.175 111.778 71.175 113.778 79.175 117.778 84.175 122.778 86.175 138.778 87.175 147.778 83.175 159.778 76.175 167.778 69.175" style="fill: none;stroke: #000;stroke-miterlimit: 10;stroke-width: 22px"/>
      </g>
      <g style="clip-path: url(#clip-path-8)">
        <path d="M23.278,45.675l-9-2,1-6,10-10,10-7,12.5-4.5,10-1,13,3,18,8,19,9,20-1,7-7,5-8,9,8-45,23-20-28-6,6-5,44v19c0,1,1,32,1,32l6,14,7,4" style="fill: none;stroke: #000;stroke-miterlimit: 10;stroke-width: 25px"/>
      </g>
    </g>
  </g>
</svg>
